<?xml version="1.0" encoding="utf-8"?>
<!-- Generator: Adobe Illustrator 23.0.1, SVG Export Plug-In . SVG Version: 6.00 Build 0)  -->
<svg version="1.1" id="Layer_1" xmlns="http://www.w3.org/2000/svg" xmlns:xlink="http://www.w3.org/1999/xlink" x="0px" y="0px"
	 viewBox="0 0 1920 300" style="enable-background:new 0 0 1920 300;" xml:space="preserve">
<style type="text/css">
	.st0{fill:#F900E5;}
</style>
<polygon class="st0" points="960.88,301.93 0,303.35 0,265.57 27.86,265.92 27.86,279.47 35.49,279.47 35.49,250.95 63.65,250.95 
	63.65,271.63 68.93,271.63 68.93,255.23 81.25,255.23 81.25,270.91 83.59,270.91 83.59,265.92 89.46,265.92 89.46,233.13 
	132.28,233.13 131.7,258.79 134.63,258.79 134.63,262.36 138.74,262.36 138.74,208.89 142.25,208.89 142.25,206.04 145.77,206.04 
	145.77,193.92 146.95,193.92 146.95,191.07 148.12,191.07 148.12,186.79 149.88,186.79 149.88,181.8 152.23,181.8 152.23,177.52 
	155.75,176.1 155.75,172.53 158.68,169.68 158.68,165.4 159.85,165.4 161.61,165.4 161.61,169.68 164.55,173.24 164.55,175.38 
	166.89,177.52 166.89,181.8 168.07,181.8 168.07,189.64 174.52,193.21 174.52,205.33 178.63,207.46 178.63,213.17 180.97,213.88 
	180.97,263.07 185.66,263.07 185.66,248.1 188.6,248.1 188.6,243.11 193.29,243.11 193.29,236.69 199.74,236.69 199.74,218.87 
	220.86,218.87 220.86,240.26 224.97,240.26 224.97,218.87 249.02,218.87 249.02,240.97 251.37,240.97 251.37,243.82 257.82,243.82 
	257.82,251.66 264.86,251.66 264.86,254.52 268.96,254.52 268.96,202.47 285.98,202.47 285.98,236.69 299.47,236.69 299.47,196.06 
	312.96,196.06 312.96,215.31 328.8,215.31 328.8,218.16 334.67,218.16 334.67,253.09 345.22,258.08 345.22,216.02 365.76,216.02 
	365.76,254.52 369.86,254.52 369.86,250.24 372.8,248.1 372.8,178.95 374.56,178.95 374.56,165.4 378.08,165.4 378.08,160.41 
	381.59,160.41 381.59,157.56 385.11,157.56 385.11,154.71 390.98,154.71 390.98,136.17 396.85,134.03 396.85,127.62 399.19,127.62 
	399.19,134.03 403.89,136.17 403.89,153.28 406.23,153.28 406.23,154.71 409.75,154.71 409.75,157.56 413.27,157.56 413.27,159.7 
	416.79,159.7 416.79,165.4 420.9,165.4 420.9,178.95 424.42,178.95 424.42,260.93 426.18,260.93 426.18,249.53 428.52,249.53 
	428.52,223.86 447.3,223.86 447.3,216.73 466.65,216.73 466.65,230.28 482.49,230.28 482.49,246.67 490.71,246.67 490.71,235.27 
	493.64,235.27 493.64,229.56 518.86,229.56 518.28,263.78 521.21,263.78 521.21,254.52 526.49,248.81 531.18,253.09 531.18,266.64 
	535.29,266.64 535.29,258.79 539.98,258.79 539.98,250.24 548.19,250.24 548.19,207.46 578.11,207.46 578.11,224.57 595.71,224.57 
	595.71,250.95 611.55,250.95 611.55,235.27 615.66,235.27 615.66,227.43 650.27,227.43 649.68,265.21 652.61,265.21 652.61,252.38 
	658.48,232.42 665.52,252.38 665.52,265.92 669.04,265.92 669.04,258.79 673.14,258.79 673.14,260.93 676.08,260.93 676.08,263.78 
	684.29,263.78 684.29,266.64 688.98,266.64 688.98,251.66 698.37,251.66 698.37,233.13 724.18,233.13 724.18,237.41 727.7,237.41 
	727.7,245.25 734.15,245.25 734.15,242.4 752.92,242.4 752.92,233.13 755.27,233.13 755.27,220.3 768.76,220.3 768.76,232.42 
	774.63,232.42 774.63,270.2 781.08,270.2 781.08,263.07 784.01,263.07 784.01,246.67 787.53,246.67 787.53,239.55 796.33,233.84 
	802.2,236.69 802.2,131.18 836.81,131.18 836.22,241.68 846.2,241.68 845.61,183.23 870.25,172.53 890.78,183.23 890.78,250.95 
	897.82,249.53 897.82,175.38 925.98,175.38 925.98,268.06 932.43,268.06 932.43,257.37 933.6,257.37 933.6,233.13 956.48,233.13 
	956.48,265.92 960.59,268.77 "/>
<polygon class="st0" points="1920,300.5 959.12,301.93 959.12,264.14 986.98,264.5 986.98,278.04 994.61,278.04 994.61,249.53 
	1022.77,249.53 1022.77,270.2 1028.05,270.2 1028.05,253.8 1040.37,253.8 1040.37,269.49 1042.71,269.49 1042.71,264.5 
	1048.58,264.5 1048.58,231.7 1091.4,231.7 1090.82,257.37 1093.75,257.37 1093.75,260.93 1097.86,260.93 1097.86,207.46 
	1101.37,207.46 1101.37,204.61 1104.89,204.61 1104.89,192.49 1106.07,192.49 1106.07,189.64 1107.24,189.64 1107.24,185.36 
	1109,185.36 1109,180.37 1111.35,180.37 1111.35,176.1 1114.87,174.67 1114.87,171.11 1117.8,168.25 1117.8,163.98 1118.97,163.98 
	1120.73,163.98 1120.73,168.25 1123.67,171.82 1123.67,173.96 1126.01,176.1 1126.01,180.37 1127.19,180.37 1127.19,188.22 
	1133.64,191.78 1133.64,203.9 1137.75,206.04 1137.75,211.74 1140.09,212.45 1140.09,261.65 1144.78,261.65 1144.78,246.67 
	1147.72,246.67 1147.72,241.68 1152.41,241.68 1152.41,235.27 1158.86,235.27 1158.86,217.45 1179.98,217.45 1179.98,238.83 
	1184.09,238.83 1184.09,217.45 1208.14,217.45 1208.14,239.55 1210.49,239.55 1210.49,242.4 1216.94,242.4 1216.94,250.24 
	1223.98,250.24 1223.98,253.09 1228.08,253.09 1228.08,201.05 1245.1,201.05 1245.1,235.27 1258.59,235.27 1258.59,194.63 
	1272.08,194.63 1272.08,213.88 1287.92,213.88 1287.92,216.73 1293.79,216.73 1293.79,251.66 1304.34,256.66 1304.34,214.59 
	1324.88,214.59 1324.88,253.09 1328.98,253.09 1328.98,248.81 1331.92,246.67 1331.92,177.52 1333.68,177.52 1333.68,163.98 
	1337.2,163.98 1337.2,158.99 1340.71,158.99 1340.71,156.13 1344.23,156.13 1344.23,153.28 1350.1,153.28 1350.1,134.75 
	1355.97,132.61 1355.97,126.19 1358.31,126.19 1358.31,132.61 1363.01,134.75 1363.01,151.86 1365.35,151.86 1365.35,153.28 
	1368.87,153.28 1368.87,156.13 1372.39,156.13 1372.39,158.27 1375.91,158.27 1375.91,163.98 1380.02,163.98 1380.02,177.52 
	1383.54,177.52 1383.54,259.51 1385.3,259.51 1385.3,248.1 1387.64,248.1 1387.64,222.44 1406.42,222.44 1406.42,215.31 
	1425.77,215.31 1425.77,228.85 1441.61,228.85 1441.61,245.25 1449.83,245.25 1449.83,233.84 1452.76,233.84 1452.76,228.14 
	1477.98,228.14 1477.4,262.36 1480.33,262.36 1480.33,253.09 1485.61,247.39 1490.3,251.66 1490.3,265.21 1494.41,265.21 
	1494.41,257.37 1499.1,257.37 1499.1,248.81 1507.31,248.81 1507.31,206.04 1537.23,206.04 1537.23,223.15 1554.83,223.15 
	1554.83,249.53 1570.67,249.53 1570.67,233.84 1574.78,233.84 1574.78,226 1609.39,226 1608.8,263.78 1611.73,263.78 
	1611.73,250.95 1617.6,230.99 1624.64,250.95 1624.64,264.5 1628.16,264.5 1628.16,257.37 1632.26,257.37 1632.26,259.51 
	1635.2,259.51 1635.2,262.36 1643.41,262.36 1643.41,265.21 1648.1,265.21 1648.1,250.24 1657.49,250.24 1657.49,231.7 
	1683.3,231.7 1683.3,235.98 1686.82,235.98 1686.82,243.82 1693.27,243.82 1693.27,240.97 1712.04,240.97 1712.04,231.7 
	1714.39,231.7 1714.39,218.87 1727.88,218.87 1727.88,230.99 1733.75,230.99 1733.75,268.77 1740.2,268.77 1740.2,261.65 
	1743.13,261.65 1743.13,245.25 1746.65,245.25 1746.65,238.12 1755.45,232.42 1761.32,235.27 1761.32,129.76 1795.93,129.76 
	1795.34,240.26 1805.32,240.26 1804.73,181.8 1829.37,171.11 1849.9,181.8 1849.9,249.53 1856.94,248.1 1856.94,173.96 
	1885.1,173.96 1885.1,266.64 1891.55,266.64 1891.55,255.94 1892.72,255.94 1892.72,231.7 1915.6,231.7 1915.6,264.5 
	1919.71,267.35 "/>
</svg>
