<?xml version="1.0" encoding="utf-8"?>
<!-- Generator: Adobe Illustrator 23.0.1, SVG Export Plug-In . SVG Version: 6.00 Build 0)  -->
<svg version="1.1" id="Logo_Barrier" xmlns="http://www.w3.org/2000/svg" xmlns:xlink="http://www.w3.org/1999/xlink" x="0px"
	 y="0px" viewBox="0 0 100 100" style="enable-background:new 0 0 100 100;" xml:space="preserve">
<style type="text/css">
	.st0{fill:#ED0CF4;}
	.st1{fill:#00F9F2;}
	.st2{fill:none;stroke:#ED0CF4;stroke-width:6;stroke-miterlimit:10;}
	.st3{fill:none;stroke:#00F9F2;stroke-width:6;stroke-miterlimit:10;}
</style>
<g>
	<path class="st0" d="M42.46,98V58.2H34.3v-8.04h8.16V47.4c0-8.16,1.8-15.6,6.72-20.28c3.96-3.84,9.24-5.4,14.16-5.4
		c3.72,0,6.96,0.84,9,1.68l-1.44,8.16c-1.56-0.72-3.72-1.32-6.72-1.32c-9,0-11.28,7.92-11.28,16.8v3.12h14.04v8.04H52.9V98H42.46z"
		/>
</g>
<g>
	<path class="st1" d="M39.46,95V55.2H31.3v-8.04h8.16V44.4c0-8.16,1.8-15.6,6.72-20.28c3.96-3.84,9.24-5.4,14.16-5.4
		c3.72,0,6.96,0.84,9,1.68l-1.44,8.16c-1.56-0.72-3.72-1.32-6.72-1.32c-9,0-11.28,7.92-11.28,16.8v3.12h14.04v8.04H49.9V95H39.46z"
		/>
</g>
<path id="Back" class="st2" d="M12.5,11.5c-4,4-4,75,0,80s76,5,80,0s3-77,0-80S16.5,7.5,12.5,11.5z"/>
<path id="Front" class="st3" d="M8.5,7.5c-4,4-4,75,0,80s76,5,80,0s3-77,0-80S12.5,3.5,8.5,7.5z"/>
</svg>
