<?xml version="1.0" encoding="utf-8"?>
<!-- Generator: Adobe Illustrator 23.0.1, SVG Export Plug-In . SVG Version: 6.00 Build 0)  -->
<svg version="1.1" id="Pizza" xmlns="http://www.w3.org/2000/svg" xmlns:xlink="http://www.w3.org/1999/xlink" x="0px" y="0px"
	 viewBox="0 0 1920 800" style="enable-background:new 0 0 1920 800;" xml:space="preserve">
<style type="text/css">
	.st0{fill:#EDC9A2;stroke:#000000;stroke-width:7;stroke-miterlimit:10;}
	.st1{fill:#ED3B11;}
	.st2{opacity:0.5;fill:none;stroke:#F7931E;stroke-width:29;stroke-miterlimit:10;}
	.st3{opacity:0.5;fill:none;stroke:#F7931E;stroke-width:7;stroke-miterlimit:10;}
	.st4{fill:none;stroke:#000000;stroke-width:7;stroke-miterlimit:10;}
	.st5{fill:#EFBF37;stroke:#050303;stroke-width:5;stroke-miterlimit:10;}
	.st6{fill:#D82323;stroke:#020000;stroke-width:5;stroke-miterlimit:10;}
	.st7{opacity:0.2;}
	.st8{opacity:0.25;}
	.st9{fill:#070606;}
	.st10{fill:#D82323;stroke:#000000;stroke-width:5;stroke-miterlimit:10;}
	.st11{opacity:0.25;fill:none;stroke:#000000;stroke-width:4;stroke-miterlimit:10;}
	.st12{fill:#050303;}
	.st13{opacity:0.25;fill:none;stroke:#050303;stroke-width:4;stroke-miterlimit:10;}
	.st14{opacity:0.25;fill:#D82323;stroke:#000000;stroke-width:5;stroke-miterlimit:10;}
	.st15{opacity:0.25;fill:none;stroke:#000000;stroke-width:5;stroke-miterlimit:10;}
	.st16{opacity:0.6;}
	.st17{fill:#F46221;}
	.st18{fill:#EDF222;}
	.st19{fill:#E0CC77;}
	.st20{fill:#ED0CF4;}
	.st21{fill:#00F9F2;stroke:#020102;stroke-width:2;stroke-miterlimit:10;}
	.st22{fill:#00F9F2;stroke:#070404;stroke-width:2;stroke-miterlimit:10;}
</style>
<g id="Dough">
	<path id="Crust" class="st0" d="M895.5,207.5c14.94-29.69,28.1-52.12,42.04-64.5c0.63-0.56,1.26-1.1,1.9-1.62
		c8.79-7.19,17.94-10.38,28.06-8.88c10.48,1.55,26.32,19.44,53,37.57c42.06,28.59,86,49.43,107,66.43s128,112,146,145s-27,61-33,64
		s-54,10-59,17s-43.47,31.47-68.74,29.74c-25.26-1.74-288.09,57.6-399.55,77.26c-58.19,10.26-97.76,10.48-97.82,8.88"/>
	<path id="Tomatosauce" class="st1" d="M908.99,189.01c121.32,61.01,220.18,131.68,302.51,216.49c1.52-9.41-11.34,23.67-28,31.5
		c-22.18,10.42-56.03,24-65.76,32s-60.54-1.11-100.03,11C865.46,526.68,676,565,670,560.5s213.5-326,213.5-326L908.99,189.01z"/>
	<path id="Shadow_1_" class="st2" d="M1225,393c-9.68-9.45-14.35-21.39-34.92-30.94c-20.58-9.56-67.73-54.85-80.65-61.7
		s-71.38-49.4-100.98-72.91c-25.62-17.26-43.94-36.94-65.23-40.63c-14.84-9.66-23.71-15.31-23.71-15.31"/>
	<path id="Shadow_3_" class="st3" d="M619.32,570.5l2.18,2c21.78,0.12,41.6-2,57-5c14.84-1.57,28.13-4.43,37-6
		c8.92-1.58,23.38-3.77,39-7c19.91-2.93,98.84-18.8,163-33c43.2-9.99,87.2-18.29,132-27c0,0,52-10,62-10c7.27,0.92,13.89-0.33,21-3
		c4.94-0.79,45-20,47-27c6-6,54-11,60-16c19-9,42.2-47.84,26-56"/>
	<path class="st4" d="M1186.8,427.34c9.82-2.45,18.56-10.59,26.7-21.84c25.4-29.23,46.77-34.48,63.75-13.54"/>
	<path class="st4" d="M1213.5,405.5c-86.41-86.03-188.08-159.03-305-219"/>
</g>
<g id="Topping">
	<path id="Cheese" class="st5" d="M603.5,584.5c-14.54-3.75-18.96-20.79-8-58c10.99-23.49,22.96-45.38,40-59
		c54.1-45.04,108-89,123-90S800,308,800,308c11.61-25.44,65.5-74.5,71.5-84.5c7.88-8.87,10.81-12.62,24-16
		c17.24-4.41,47.27,40.2,46.5,49.5c5.53,15.18,1.25-1.55,17.5,21.5l54,6c44.98,13.48,59.28,29.68,61,47l51,26c3.6-9.86,22,26,31,33
		s22.36,8.2,28,17c2.86,8.06,6,19,0,22s-28,6-35,8s-9,35-22,40s-24-9-28-11s-17,8-22,9s-14-2-18-1s-30,16-30,16c-11,5-27-4-32-5
		s-16,9-22,11S955,488,949,488s-9.5,7.5-14.5,11.5s-12.45-1.77-22,5c-7.17,5.09-26,46-42,39s-33-28-44-26s-20.17,20.86-30,19
		c-9.06-1.71-21.29-5.3-31-4c-8.92,1.19-25,10-29,16s-31,4-37,6s-24,16-35,13s-32.5-14.62-38-8
		C621.28,565.79,615.05,587.46,603.5,584.5z"/>
	<g id="Salami_1_1_">
		<path id="Salami_1_" class="st6" d="M692.5,540.5c-13.23-6.93-3.8-83.97,48-92c53-8,91.08,42.81,81,60c-3.54,6.04-25,9-45,11
			s-19,1-37,0S698.76,543.78,692.5,540.5z"/>
		<g class="st7">
			<g>
				<path d="M706.33,506.76c0.13-0.04,0.28,0.07,0.38,0.11c0.16,0.11,0.18,0.12,0.09,0.03c-0.07-0.07-0.07-0.07,0,0
					c0,0.01,0.04,0.17,0.05,0.18c-0.01,0.04-0.02,0.08-0.03,0.11c0.05-0.15,0.05-0.18,0.01-0.09c0.03,0.15,0.06-0.24-0.01-0.01
					c0.01-0.05,0.17-0.17,0.02-0.06c0.03-0.02,0.35-0.21,0.2-0.13c-0.09,0.05,0.26,0.02-0.02,0.01c-0.22-0.01,0-0.06,0.03,0.01
					c-0.14-0.06-0.16-0.07-0.07-0.02c0.07,0.05,0.07,0.04,0,0c-0.07-0.05-0.07-0.05-0.01,0.01c0.07,0.08,0.06,0.06-0.04-0.06
					c-0.01,0.01,0.11,0.22,0.02-0.02c0,0.01,0.1,0.38,0.06,0.17c-0.03-0.2-0.01,0.16-0.01,0.18c0.01-0.22-0.04-0.08-0.01-0.03
					c0.07-0.14,0.08-0.17,0.03-0.07c-0.05,0.09-0.04,0.07,0.05-0.05c0.79,0.1,1.57,0.2,2.36,0.3c-0.1-0.24-0.21-0.48-0.31-0.72
					c-0.32-0.74-1.41-0.91-2.05-0.54c-0.77,0.45-0.86,1.31-0.54,2.05c0.1,0.24,0.21,0.48,0.31,0.72c0.37,0.86,1.78,0.98,2.36,0.3
					c0.89-1.04,1.07-2.44,0.43-3.66c-0.65-1.24-2.05-1.84-3.41-1.48c-1.31,0.35-2.38,1.66-2.36,3.03c0.03,1.62,1.62,3.14,3.28,2.58
					c0.77-0.26,1.27-1.03,1.05-1.85C707.97,507.06,707.1,506.5,706.33,506.76L706.33,506.76z"/>
			</g>
		</g>
		<g class="st7">
			<g>
				<path d="M707.41,484.54c-0.41-0.1,0.14,0.08-0.08-0.02c-0.09-0.06-0.08-0.04,0.03,0.03c-0.03-0.03-0.06-0.06-0.1-0.1
					c0.02,0.03,0.04,0.06,0.07,0.09c-0.07-0.14-0.09-0.16-0.05-0.06c0.04,0.1,0.03,0.07-0.02-0.07c0.01,0.05,0.01,0.09,0.02,0.14
					c0-0.04,0-0.09,0-0.13c0.01,0.07,0,0.14-0.04,0.21c-0.04,0.18,0.16-0.17-0.06,0.1c0.17-0.21-0.11,0.09,0.02-0.01
					c0.17-0.12-0.31,0.15,0.02,0.01c-0.11,0.04-0.25,0-0.06,0.03c-0.13-0.02-0.41-0.17-0.23-0.04c-0.1-0.07-0.17-0.13-0.25-0.23
					c-0.07-0.19-0.09-0.23-0.06-0.12c0.02,0.08,0.02,0.07,0-0.05c-0.01-0.13-0.02-0.13-0.02,0.01c0.01-0.06,0.02-0.13,0.02-0.19
					c-0.14,0.32,0.13-0.19,0.02-0.02c-0.07,0.11,0.18-0.16,0.24-0.2c-0.22,0.16,0.28-0.06-0.02-0.01c-0.8,0.13-1.25,1.12-1.05,1.85
					c0.23,0.85,1.04,1.18,1.85,1.05c1.2-0.2,2.03-1.51,1.94-2.68c-0.11-1.37-1.24-2.49-2.67-2.36c-1.4,0.13-2.55,1.15-2.65,2.59
					c-0.1,1.42,0.98,2.74,2.33,3.08c0.76,0.19,1.66-0.25,1.85-1.05C708.63,485.61,708.22,484.75,707.41,484.54L707.41,484.54z"/>
			</g>
		</g>
		<g class="st7">
			<g>
				<path d="M726.82,482.63c-0.28,0.15-0.67,0.12-0.87-0.01c-0.17-0.11-0.22-0.28-0.22-0.34c0,0.15,0.04-0.17,0.01-0.12
					c-0.05,0.09,0.22-0.36,0.16-0.29c0.08-0.1,0.16-0.11,0.18-0.09c-0.17-0.17,0,0.08-0.01,0.04c-0.02-0.13,0.08,0.12,0.04,0.06
					c0.01,0.01,0.14,0.27,0.06,0.29c0.01,0,0.01-0.22,0.09-0.21c0.05-0.02,0.1-0.04,0.15-0.06c0.92,0.41,1.18,0.9,0.78,1.48
					c-0.22,0.13-0.44,0.26-0.66,0.39c-0.05,0-0.1,0.01-0.15,0.01c1.93-0.01,1.93-3.01,0-3c-1.36,0.01-2.3,1.37-1.91,2.66
					c0.45,1.49,2.27,1.81,3.46,1.02c2.14-1.41,1.27-4.78-0.98-5.53c-2.42-0.81-4.69,1.76-4.14,4.1c0.57,2.42,3.49,3.29,5.52,2.18
					C730.03,484.3,728.51,481.71,726.82,482.63L726.82,482.63z"/>
			</g>
		</g>
		<g class="st7">
			<g>
				<path d="M734.39,466.21c-0.56,0.08-1.34,0.08-1.84-0.25c-0.19-0.13-0.23-0.22-0.25-0.33c0.03,0.16,0.01-0.44-0.01-0.27
					c0,0,0.05-0.11,0.05-0.12c0.02-0.22,0.03,0.09-0.05,0.06c-0.16-0.07,0.06,0.09,0.04,0.07c-0.01-0.02,0.66,0.42,0.63,0.41
					c-0.13-0.04,0.27-0.27,0.49-0.22c0.56,0.13,0.88,1.11,0.04,1.26c0.8-0.14,1.25-1.12,1.05-1.85c-0.23-0.84-1.04-1.19-1.85-1.05
					c-1.25,0.22-1.87,1.59-1.63,2.75c0.26,1.28,1.47,2.1,2.76,1.81c1.29-0.29,2.18-1.57,2.13-2.87c-0.05-1.33-1.06-2.41-2.23-2.92
					c-1.15-0.5-2.56-0.5-3.5,0.43c-0.82,0.8-1.07,2.01-0.85,3.11c0.53,2.7,3.53,3.17,5.81,2.87c0.8-0.11,1.24-1.14,1.05-1.85
					C736,466.39,735.2,466.1,734.39,466.21L734.39,466.21z"/>
			</g>
		</g>
		<g class="st7">
			<g>
				<path d="M754.92,471.85c-1.06,0.06-2.65,0.24-3.36-0.76c-0.37-0.52-0.38-2.02,0.67-1.76c0.66,0.16,0.08,1.02,0.89,0.81
					c0.01,0,0.48-0.42,0.48-0.35c-0.17-0.08-0.34-0.17-0.5-0.25c0.02,0.11,0.04,0.22,0.07,0.32c-0.05,0.67,0.16,1.33,0.05,2.03
					c-0.22,1.37,1.38,2.65,2.51,1.46c2.97-3.15,0.15-7.98-4.03-7.12c-1.89,0.39-1.09,3.28,0.8,2.89c1.28-0.26,1.97,1.2,1.11,2.1
					c0.84,0.49,1.67,0.97,2.51,1.46c0.26-1.64,0.43-4.14-0.97-5.36c-1.49-1.29-3.8-0.12-4.64,1.38c-0.86,1.55-0.13,3.69,1.63,4.21
					c1.83,0.54,3.46-1.14,3.51-2.89c0.12-3.9-5.01-4.93-6.86-1.72c-0.91,1.59-0.5,3.71,0.74,5c1.41,1.47,3.49,1.65,5.41,1.53
					C756.84,474.74,756.85,471.74,754.92,471.85L754.92,471.85z"/>
			</g>
		</g>
		<g class="st7">
			<g>
				<path d="M745.12,496.76c0.05-0.01,0.21,0.02,0.21,0.02c-0.05,0.01-0.07-0.23-0.07-0.13c0,0.05-0.06,0.18,0,0.01
					c0.03-0.1,0.34-0.33,0.51-0.36c0.05-0.01,0.34,0.03,0.36,0c-0.08,0.1,0.33-0.21-0.01-0.05c-0.03,0.01-0.09-0.15-0.05-0.12
					c-0.82-0.38,0,0.26-0.1,0.15c0,0,0.05-0.05,0.06-0.01c0.09,0.03,0.17,0.05,0.26,0.08c0.14,0.23,0.27,0.46,0.41,0.69
					c0.05,0.49-0.68,0.84-1.06,0.71c0.76,0.27,1.64-0.31,1.85-1.05c0.23-0.83-0.28-1.57-1.05-1.85c-1.18-0.42-2.35,0.45-2.65,1.58
					c-0.34,1.25,0.43,2.48,1.68,2.77c2.54,0.58,4.56-2.59,3.09-4.68c-1.42-2.02-4.7-1.34-5.86,0.58c-1.37,2.27,0.73,5.03,3.24,4.56
					c0.8-0.15,1.25-1.11,1.05-1.85C746.73,496.97,745.91,496.61,745.12,496.76L745.12,496.76z"/>
			</g>
		</g>
		<g class="st7">
			<g>
				<path d="M769.57,488.63c0.33-0.07,0.2,0.01-0.02-0.29c-0.11-0.15-0.2-0.32-0.29-0.48c-0.09-0.17-0.39-0.7-0.28-0.91
					c0.21-0.42,0.86,0.05,1.01,0.24c0.23,0.27,0.38,0.64,0.45,0.98c0.01,0.07,0,0.64,0.02,0.65c-0.03-0.04,0.39-0.06,0.39-0.06
					c0.51,0.02,0.24,0.18,0.24-0.08c0.01-0.28-0.21-0.7-0.26-0.99c-0.13-0.8-1.12-1.25-1.85-1.05c-0.85,0.23-1.18,1.04-1.05,1.85
					c0.17,1.03,0.6,2.15,1.5,2.76c0.98,0.65,2.26,0.56,3.12-0.25c1.76-1.65,0.83-4.9-0.8-6.27c-1.85-1.55-5-1.05-5.66,1.48
					c-0.64,2.44,1.62,5.85,4.28,5.32C772.26,491.14,771.46,488.25,769.57,488.63L769.57,488.63z"/>
			</g>
		</g>
		<g class="st7">
			<g>
				<path d="M790.19,488.95c-0.95-0.13-1.81-0.49-2.42-1.25c-0.4-0.51-0.83-1.16,0.07-1.07c0.39,0.04,0.73,0.41,0.97,0.69
					c0.27,0.32,0.49,1.09,0.8,1.31c0.05,0.2,0.11,0.16,0.19-0.11c0.21-0.2,0.21-0.27,0-0.21c-0.13-0.07-0.41-0.02-0.55-0.04
					c-0.1-0.01-0.28-0.16-0.34-0.15c-0.1,0.02,0.26,0.46-0.27,0.43c1.93,0.11,1.92-2.9,0-3c-1.47-0.08-2.63,1.21-2.67,2.64
					c-0.04,1.57,1.23,2.71,2.68,3.02c1.29,0.27,2.99,0.04,3.71-1.21c0.85-1.46-0.18-3.18-1.07-4.35c-0.87-1.14-2.13-2.07-3.63-2.02
					c-1.34,0.04-2.68,0.78-3.17,2.08c-1.1,2.93,2.3,5.77,4.9,6.13c0.81,0.11,1.6-0.2,1.85-1.05
					C791.44,490.1,790.99,489.06,790.19,488.95L790.19,488.95z"/>
			</g>
		</g>
		<g class="st7">
			<g>
				<path d="M789.24,504.23c-0.49-0.13-1.45-0.25-1.67-0.81c-0.16-0.41,0.18-0.89,0.63-0.85c0.3,0.03,0.51,0.34,0.57,0.62
					c-0.01-0.05,0.03,0.57-0.08,0.48c0.14,0.12,0.8-0.13,0.86-0.23c0.05-0.08,0.01-0.42,0.03-0.53c-0.07,0.25-0.14,0.5-0.2,0.76
					c0.02-0.05,0.05-0.1,0.07-0.15c-0.18,0.18-0.36,0.36-0.54,0.54c0.05-0.03,0.1-0.06,0.15-0.09c-0.25,0.07-0.5,0.14-0.76,0.2
					c0.06,0,0.12,0,0.18,0c-0.25-0.07-0.5-0.14-0.76-0.2c0,0-0.01,0-0.01-0.01c-0.13-0.22-0.26-0.44-0.39-0.66
					c0.01-0.02,0.02-0.04,0.02-0.05c-0.13,0.8,0.21,1.61,1.05,1.85c0.71,0.2,1.72-0.24,1.85-1.05c0.13-0.82,0.16-1.63-0.47-2.28
					c-0.57-0.59-1.49-0.79-2.23-0.39c-1.28,0.69-1.21,2.71-0.51,3.81c0.81,1.26,2.59,1.67,3.74,0.62c0.96-0.88,1.2-2.32,0.85-3.53
					c-0.8-2.74-4.33-3.64-6.23-1.43c-0.93,1.09-1.11,2.67-0.48,3.96c0.68,1.38,2.12,1.95,3.53,2.31
					C790.31,507.6,791.11,504.71,789.24,504.23L789.24,504.23z"/>
			</g>
		</g>
		<g id="Shadow_4_" class="st8">
			<g>
				<path class="st9" d="M735.38,517.69c-10.84-0.39-20.62,5.41-29.37,11.2c-2.28,1.51-4.47,3.12-6.67,4.72
					c-2.23,1.63-5.9,3.81-6.61-0.13c-1-5.58-0.25-12.29,0.16-17.91c0.97-13.24,5.41-24.14,11.77-35.66
					c5.9-10.69,14.77-18.28,24.19-25.77c1.51-1.2-0.62-3.31-2.12-2.12c-10.71,8.52-19.77,17.08-26.21,29.29
					c-3,5.68-6.06,11.43-7.96,17.59c-2.02,6.58-2.6,13.69-2.89,20.54c-0.15,3.56-0.12,7.1-0.02,10.66c0.05,1.75-0.35,4.53,0.3,6.23
					c1.24,3.21,5.2,2.72,7.92,1.69c2.45-0.92,4.55-3.02,6.66-4.5c2.97-2.09,6.03-4.05,9.17-5.88c6.72-3.92,13.73-7.23,21.69-6.95
					C737.31,520.76,737.31,517.76,735.38,517.69L735.38,517.69z"/>
			</g>
		</g>
	</g>
	<g id="Salami_2_1_">
		<path id="Salami_2" class="st10" d="M735.5,371.5c-6.28,27.87,87,50,114,17c18.71-17.79,20.29-18.86,19-44
			c-2-28-74.16-41.75-79-32c-3.47,7-10,28-17,36S738.07,360.12,735.5,371.5z"/>
		<g class="st7">
			<g>
				<path d="M778.15,368.67c0.1,0-0.04,0.22-0.03,0.25c-0.02-0.05,0.19-0.08,0.2-0.08c-0.11-0.03-0.19-0.05-0.13,0.02
					c0.14,0.15,0.24,0.2,0.29,0.41c0.04,0.16,0.03,0.25-0.03,0.41c-0.01,0.02-0.03,0.04-0.05,0.06c-0.11,0.2-0.17,0-0.1,0.1
					c0.02,0.03,0.3,0.04,0.35,0.21c0.05,0.18-0.36,0.58-0.08,0.33c0.61-0.53,0.54-1.58,0-2.12c-0.61-0.61-1.51-0.53-2.12,0
					c-1.74,1.5-0.43,4.46,1.74,4.55c2.36,0.1,3.84-2.45,3.12-4.55c-0.76-2.21-3.57-3.26-5.31-1.43c-1.75,1.85-0.29,4.81,2.15,4.85
					C780.08,371.7,780.08,368.7,778.15,368.67L778.15,368.67z"/>
			</g>
		</g>
		<g class="st7">
			<g>
				<path d="M759.98,371.45c-0.28,0.02,0.13,0.13-0.13,0.01c0.14,0.07,0.09,0.06,0-0.02c0.11,0.1,0.18,0.13,0.22,0.29
					c0.02,0.07-0.05,0.41,0,0.25c0.04-0.14-0.09,0.15-0.13,0.18c-0.09,0.09-0.22,0.12-0.34,0.14c-0.49,0.06-0.82-0.32-0.7-0.8
					c-0.18,0.76,0.24,1.66,1.05,1.85c0.77,0.18,1.65-0.23,1.85-1.05c0.27-1.1-0.24-2.22-1.25-2.73c-1.03-0.52-2.23-0.19-2.91,0.72
					c-1.36,1.79,0.16,4.31,2.35,4.16c0.78-0.05,1.54-0.65,1.5-1.5C761.44,372.18,760.82,371.39,759.98,371.45L759.98,371.45z"/>
			</g>
		</g>
		<g class="st7">
			<g>
				<path d="M810.36,377.31c-0.13-0.05-0.25-0.11-0.37-0.18c-0.03-0.02-0.27-0.18-0.18-0.11c-0.09-0.07-0.17-0.15-0.24-0.23
					c-0.14-0.15-0.05-0.05-0.1-0.15c-0.04-0.08-0.05-0.09-0.02-0.03c0.03,0.09,0.02,0.05-0.02-0.1c-0.01,0.08,0.03,0.16,0.01,0.24
					c-0.06,0.23-0.22,0.26-0.41,0.32c0.1-0.03,0.19-0.02,0.02-0.01c0.15,0.05,0.18,0.06,0.09,0.02c-0.07-0.03-0.06-0.02,0.01,0.02
					c0.07,0.05,0.08,0.05,0.02,0.01c-0.08-0.06-0.06-0.03,0.06,0.08c-0.01-0.03-0.06-0.05-0.07-0.08c0.16,0.44-0.04,0.98-0.23,1.47
					c0.73-0.3,1.47-0.6,2.2-0.9c-0.26-0.13,0-0.01,0.01,0.15c-0.06-1.93-3.06-1.93-3,0c0.03,1.02,0.54,1.97,1.48,2.44
					c0.94,0.47,1.83,0.04,2.2-0.9c0.49-1.23,0.6-2.73-0.15-3.89c-0.69-1.06-2.08-1.65-3.32-1.32c-1.35,0.36-2.11,1.73-1.83,3.07
					c0.24,1.17,1.25,2.2,2.32,2.66c0.74,0.32,1.61,0.22,2.05-0.54C811.27,378.72,811.11,377.63,810.36,377.31L810.36,377.31z"/>
			</g>
		</g>
		<g class="st7">
			<g>
				<path d="M818.13,359.67c-0.28,0.15-1.08,0.05-0.66-0.38c0.07-0.07-0.05-0.07,0.07,0.05c0.1,0.09,0.16,0.23,0.2,0.35
					c0.11,0.29,0.09,0.62,0.06,0.92c-0.01,0.2-0.04,0.4-0.09,0.6c-0.11,0.29-0.09,0.32,0.08,0.1c0.25-0.07,0.5-0.14,0.76-0.2
					c0.31,0.2,0.38,0.22,0.19,0.04c-0.09-0.08-0.15-0.17-0.2-0.28c-0.03-0.06-0.05-0.11-0.08-0.17c0-0.18-0.03-0.2-0.09-0.05
					c0.08,0.02-0.29,0.17-0.23,0.17c-0.22-0.03-0.36-0.16-0.41-0.39c-0.11-0.38-0.21-0.41-0.31-0.08c-0.1,0.05-0.41,0.3-0.36,0.28
					c-0.05,0.03-0.07-0.12-0.07-0.13c-0.05-0.05-0.09,0.19,0,0.1c1.39-1.34-0.73-3.46-2.12-2.12c-1.13,1.09-1.11,2.9-0.1,4.07
					c1.06,1.24,2.88,1.3,4.18,0.41c1.33-0.9,2.25-2.97,1.05-4.35c-1-1.15-2.86-0.97-3.86,0.09c-1.26,1.34-0.62,3.39,0.5,4.58
					c1.31,1.39,3.28,0.91,3.88-0.9c0.53-1.61,0.46-3.62-0.68-4.94c-1.07-1.23-2.87-1.52-4.18-0.5c-1.38,1.08-1.74,3.12-0.63,4.51
					c1.11,1.41,3.1,1.65,4.64,0.83C821.35,361.35,819.83,358.76,818.13,359.67L818.13,359.67z"/>
			</g>
		</g>
		<g class="st7">
			<g>
				<path d="M834.12,349.49c-0.68-0.29-1.31-0.64-1.85-1.16c-0.25-0.24-0.51-0.51-0.68-0.82c-0.15-0.26-0.09-0.54-0.32-0.41
					c0.54-0.32,0.94,0.81,0.85,1.3c-0.09,0.49-0.8,1.71-1.37,1.17c-0.43-0.41-0.01-3.1,0.58-2.83c1.75,0.79,3.27-1.8,1.51-2.59
					c-3.91-1.77-6.09,3.17-4.95,6.33c0.6,1.65,2.24,2.54,3.96,2.09c1.43-0.37,2.51-1.49,3-2.86c1.02-2.86-1.24-6.47-4.53-5.45
					c-1.77,0.55-2.29,2.5-1.65,4.1c0.69,1.7,2.28,3.01,3.92,3.72C834.36,352.83,835.89,350.25,834.12,349.49L834.12,349.49z"/>
			</g>
		</g>
		<g class="st7">
			<g>
				<path d="M797.13,347.75c0.08-0.09,0.18-0.15,0.29-0.18c-0.16,0.04-0.14,0.04,0.09,0c-0.17-0.01-0.14,0,0.08,0.02
					c-0.16-0.05-0.14-0.03,0.05,0.04c-0.07-0.03-0.13-0.07-0.19-0.11c0.16,0.13,0.18,0.13,0.06,0.02c0.09,0.08,0.15,0.18,0.17,0.3
					c-0.04-0.16-0.04-0.13,0,0.08c-0.04,0.22-0.04,0.24,0,0.08c-0.02,0.12-0.08,0.22-0.17,0.3c0.12-0.11,0.1-0.1-0.06,0.02
					c0.06-0.04,0.12-0.08,0.19-0.11c-0.19,0.08-0.21,0.09-0.05,0.04c-0.22,0.02-0.25,0.03-0.08,0.02c-0.22-0.04-0.25-0.04-0.09,0
					c-0.12-0.03-0.21-0.09-0.29-0.17c0.63,0.51,1.51,0.61,2.12,0c0.53-0.53,0.63-1.6,0-2.12c-0.9-0.74-1.96-0.89-3.03-0.4
					c-0.9,0.41-1.54,1.34-1.54,2.34c0,0.97,0.62,1.9,1.49,2.32c1.07,0.52,2.16,0.37,3.08-0.37c0.63-0.51,0.53-1.59,0-2.12
					C798.63,347.13,797.76,347.23,797.13,347.75L797.13,347.75z"/>
			</g>
		</g>
		<g class="st7">
			<g>
				<path d="M803.29,327.89c-0.55,0.14-0.67-2.37-0.67-2.72c0-0.06,0.01-0.24,0.04-0.27c-0.21,0.21,0.15-0.18,0.17,0.17
					c0.02,0.36-0.37,0.66-0.72,0.84c-1.09,0.55-0.85,1.98,0,2.59c1.37,0.98,3.36,0.28,4.06-1.19c0.72-1.51-0.26-3.15-1.82-3.53
					c-1.58-0.39-3.21,0.64-3.35,2.3c-0.16,1.93,1.56,3.16,3.16,3.79c1.8,0.71,2.58-2.19,0.8-2.89c-0.28-0.11-0.47-0.31-0.73-0.43
					c-0.84-0.42,0.58-0.35-0.56,0.15c-0.16,0.07-0.24-0.93-0.04-0.79c0,0.86,0,1.73,0,2.59c1.69-0.85,2.78-2.98,1.87-4.78
					c-0.86-1.69-3.21-2.42-4.72-1.12c-1.46,1.26-1.27,3.32-0.89,5.03c0.44,2,1.99,3.72,4.2,3.17
					C805.96,330.32,805.17,327.43,803.29,327.89L803.29,327.89z"/>
			</g>
		</g>
		<g class="st7">
			<g>
				<path d="M835.29,330.44c-0.37-0.17-0.67-0.35-0.89-0.67c-0.02-0.03-0.23-0.51-0.23-0.51c-0.17-0.04-0.16,0.91-0.36,0.78
					c-0.01-0.01,0.44-0.09,0.32-0.08c0.4-0.03,0.64,0.47,0.51,0.75c-0.35,0.73-0.2,1.62,0.54,2.05c0.66,0.38,1.7,0.2,2.05-0.54
					c0.57-1.18,0.6-2.57-0.15-3.69c-0.81-1.2-2.23-1.73-3.64-1.49c-1.52,0.26-2.58,1.55-2.14,3.11c0.36,1.25,1.29,2.35,2.47,2.88
					c0.74,0.33,1.61,0.21,2.05-0.54C836.21,331.85,836.04,330.77,835.29,330.44L835.29,330.44z"/>
			</g>
		</g>
		<g class="st7">
			<g>
				<path d="M849.68,359.48c-0.26-0.09-0.48-0.38-0.53-0.66c-0.04-0.25,0.02-0.27,0.07-0.48c0.03-0.1-0.09,0.06-0.14-0.04
					c0.11,0.23,0.14,0.34,0.05,0.6c-0.1,0.29-0.8,1.1-1.09,1.11c0.25,0.07,0.5,0.14,0.76,0.2c-0.01,0-0.03,0-0.04-0.01
					c0.13,0.22,0.26,0.44,0.39,0.66c-0.02-0.06-0.04-0.13-0.06-0.19c0,0.27,0,0.53,0,0.8c0.02-0.06,0.04-0.13,0.05-0.19
					c0.52-1.86-2.37-2.66-2.89-0.8c-0.32,1.15,0.41,2.31,1.6,2.49c1.12,0.17,2.2-0.64,2.96-1.38c1.5-1.46,1.99-3.86,0.37-5.44
					c-1.69-1.66-4.29-0.63-4.91,1.51c-0.58,2.03,0.74,4.01,2.62,4.69C850.7,363.02,851.48,360.12,849.68,359.48L849.68,359.48z"/>
			</g>
		</g>
		<g class="st7">
			<g>
				<path d="M838.83,378.02c0,0-0.18-0.33-0.11-0.17c0.08,0.17-0.04-0.16-0.05-0.19c-0.01-0.04-0.02-0.09-0.03-0.13
					c0.02,0.16,0.03,0.19,0.03,0.07c-0.05-0.03,0.08-0.43-0.01-0.04c0.04-0.16,0.05-0.09-0.02,0.01c0.16-0.23-0.02,0.01-0.08,0.05
					c-0.08,0.06-0.35,0.16-0.13,0.08c-0.06,0.01-0.13,0.02-0.19,0.03c0.14,0.01,0.14,0,0.01-0.01c-0.11-0.02-0.12-0.02-0.04,0
					c0.11,0.03,0.07,0.01-0.11-0.06c0.16,0.12,0,0-0.04-0.06c0.16,0.2-0.06-0.12-0.08-0.17c-0.06-0.15-0.08-0.34-0.03-0.5
					c0.04-0.12,0.13-0.18,0.19-0.27c0.07-0.1-0.1,0.05-0.18,0.09c0.14-0.07,0.1-0.03-0.02,0c-0.13,0.04-0.26,0.08-0.39,0.11
					c-0.79,0.2-1.26,1.08-1.05,1.85c0.22,0.8,1.06,1.25,1.85,1.05c1.13-0.28,2.24-0.9,2.52-2.13c0.29-1.29-0.64-2.47-1.86-2.8
					c-1.18-0.32-2.42,0.2-2.99,1.3c-0.56,1.08-0.43,2.41,0.21,3.42c0.43,0.69,1.34,0.96,2.05,0.54
					C838.97,379.68,839.26,378.71,838.83,378.02L838.83,378.02z"/>
			</g>
		</g>
		<g class="st8">
			<g>
				<path d="M759,353.92c-2.62,1.64-5.57,2.08-8.34,3.38c-2.58,1.21-5.11,2.84-7.32,4.63c-3.89,3.15-6.53,7.47-5.79,12.62
					c0.72,4.98,3.02,10.57,7.12,13.66c5.45,4.11,12.88,6.71,19.07,9.5c6.47,2.91,12.41,3.23,19.33,4.05
					c7.42,0.89,14.64,3.03,22.12,3.52c6.92,0.45,13.86-0.9,20.61-2.27c6.37-1.29,12.97-3.2,18.72-6.28
					c3.41-1.82,0.38-7.01-3.03-5.18c-9.15,4.9-21.38,7.4-31.67,7.79c-6.3,0.24-12.42-1.14-18.57-2.28
					c-5.5-1.02-11.02-1.2-16.53-2.05c-5.72-0.88-10.92-3.87-16.1-6.33c-5.13-2.44-11.36-4.23-13.65-9.93
					c-0.96-2.39-1.89-5.06-1.25-7.58c0.71-2.81,3.09-4.49,5.37-6.03c4.07-2.76,8.83-3.46,12.94-6.04
					C765.29,357.05,762.28,351.86,759,353.92L759,353.92z"/>
			</g>
		</g>
	</g>
	<g id="Salami_3_1_">
		<path id="Salami_3_3_" class="st10" d="M878.5,419.5c0,45,50,45,66,45s56-7,57-59s-58-43-64-42S878.5,374.5,878.5,419.5z"/>
		<path class="st11" d="M922.6,367.36C851,406,878,477,968.85,459.73"/>
		<g class="st8">
			<g>
				<path class="st12" d="M934.38,411.7c0.71-0.58,0.9,0.1,0.54-0.61c-0.15-0.29-0.28-0.58-0.39-0.89c-0.18-0.5-0.22-1.1-0.4-1.57
					c-0.25,0.28-0.26,0.4-0.01,0.34c0.15-0.01,0.31-0.02,0.46-0.01c0.17,0.01,0.35,0.02,0.52,0.08c0.52,0.17,0.63,0.45,0.65,1
					c0.02,0.34,0.07,1.17-0.3,1.37c-0.09,0.05,0.18,0.1-0.11-0.08c-0.18-0.11-0.26-0.37-0.38-0.54c-0.21-0.31-0.05-0.51-0.23-0.1
					c0.09-0.21,0.27-0.39,0.43-0.55c0.13-0.13,0.54-0.77,0.77-0.33c-0.9-1.71-3.5-0.19-2.59,1.51c0.77,1.44,2.72,1.75,3.97,0.74
					c1.35-1.1,1.46-3.16,0.19-4.37c-1.32-1.27-3.26-0.86-4.47,0.33c-1.32,1.31-1.58,2.81-0.6,4.42c0.83,1.37,2.26,2.35,3.9,1.85
					c1.75-0.53,2.41-2.42,2.41-4.08c0-1.72-0.74-3.23-2.39-3.89c-1.36-0.54-3.4-0.6-4.51,0.51c-1.4,1.4-0.45,3.75,0.22,5.26
					c0.82,1.83,2.54,3.29,4.42,1.74C937.99,412.59,935.86,410.48,934.38,411.7L934.38,411.7z"/>
			</g>
		</g>
		<g class="st8">
			<g>
				<path class="st12" d="M906.81,412.3c-0.79-0.13-1.89-0.29-2.35-1.04c-0.29-0.47-0.18-0.98,0.46-0.91
					c0.63,0.07,0.92,0.78,0.97,1.34c0.04,0.41-0.02,0.37,0.3,0.32c0.24-0.04,0.02,0.16,0.15,0.11c0.02-0.01,0.14-0.16,0.16-0.18
					c1.39-1.34-0.73-3.46-2.12-2.12c-2.07,2-0.61,5.8,2.45,5.1c2.95-0.67,2.34-4.9,0.66-6.51c-1.9-1.82-5.43-1.17-6.1,1.52
					c-0.73,2.94,2.12,4.85,4.62,5.26c0.8,0.13,1.61-0.21,1.85-1.05C908.05,413.43,907.61,412.43,906.81,412.3L906.81,412.3z"/>
			</g>
		</g>
		<g class="st8">
			<g>
				<path class="st12" d="M942.3,380.9c-0.65-0.37-2.25-1.56-1.35-2.46c0.78-0.78,1.38,1.07,1.02,1.71
					c-0.09,0.16-0.21,0.31-0.35,0.43c-0.13,0.1-0.28,0.18-0.44,0.23c0.2,0.09,0.39,0.18,0.59,0.27c-0.03,0.04-0.09-0.73-0.07-0.78
					c0.04-0.22,0.13-0.45,0.34-0.57c0.05-0.03,0.53-0.05,0.52-0.04c0.07-0.31,0.15-0.62,0.22-0.94c-0.11,0.04-0.22,0.06-0.34,0.05
					c-0.23-0.08-0.55-0.02-0.79-0.08c-0.39-0.09-0.71-0.26-1.04-0.48c-1.64-1.03-3.15,1.56-1.51,2.59c1.32,0.83,3.09,1.27,4.61,0.76
					c1.53-0.51,2.23-2.16,1.35-3.56c-0.8-1.29-2.53-1.66-3.9-1.18c-1.53,0.53-2.47,2.07-2.46,3.67c0.01,1.49,0.74,3.26,2.45,3.28
					c1.5,0.02,2.93-1.09,3.57-2.4c1.38-2.83-1.09-7.17-4.51-5.97c-1.56,0.55-2.54,2.25-2.44,3.87c0.12,1.86,1.5,3.32,3.05,4.2
					C942.47,384.44,943.98,381.85,942.3,380.9L942.3,380.9z"/>
			</g>
		</g>
		<g class="st8">
			<g>
				<path class="st12" d="M968.87,397.91c-0.62,0.1-1.49-0.37-1.58-1.04c-0.07-0.51,0.4-1.29,0.98-1.22
					c0.26,0.03,0.58,0.33,0.65,0.58c0.06,0.2-0.05,0.33-0.04,0.48c-0.05,0.05-0.11,0.08-0.18,0.09c0.11,0.03,0.21,0.06,0.32,0.1
					c0.06,0.45,0.18,0.02-0.25,0.51c-0.29,0.34-0.36,0.23,0,0.56c0.44,0.4-0.35,0.34,0.22-0.12c-0.63,0.51-0.52,1.59,0,2.12
					c0.62,0.63,1.49,0.51,2.12,0c2.33-1.89-0.71-5.97-3.25-5.26c-2.99,0.84-1.73,5.27,1.18,5.04c3.04-0.24,3.71-4.04,1.8-5.98
					c-2.04-2.06-5.35-1.02-6.29,1.6c-1.18,3.29,2.03,5.9,5.13,5.41c0.81-0.13,1.24-1.12,1.05-1.85
					C970.49,398.1,969.66,397.78,968.87,397.91L968.87,397.91z"/>
			</g>
		</g>
		<g class="st8">
			<g>
				<path class="st12" d="M974.21,425.22c-0.48,0.06-1.88,0.39-2.22-0.17c-0.29-0.48,0.38-1.38,0.76-1.63
					c0.36-0.24,1.05-0.38,1.37,0.04c0.13,0.17,0.05,0.3,0.06,0.49c0,0.04-0.06,0.17-0.07,0.14c0.03-0.02,0.06-0.02,0.09-0.01
					c0.33,0.01,0.54,0.24,0.64,0.7c-0.07,0.25-0.14,0.5-0.2,0.76c-0.21,0.09-0.42,0.17-0.62,0.26c-0.25-0.07-0.5-0.14-0.76-0.2
					c0.05,0.03,0.1,0.06,0.15,0.09c1.66,0.99,3.17-1.6,1.51-2.59c-1.31-0.78-2.99,0.18-3.08,1.69c-0.09,1.38,1.17,2.34,2.48,2.28
					c3.04-0.13,3.72-4.26,1.61-5.98c-2.43-1.98-5.79-0.36-6.73,2.36c-0.46,1.31-0.31,2.77,0.71,3.78c1.15,1.14,2.8,1.18,4.3,1
					c0.8-0.1,1.5-0.62,1.5-1.5C975.71,425.99,975.02,425.13,974.21,425.22L974.21,425.22z"/>
			</g>
		</g>
		<g class="st8">
			<g>
				<path class="st12" d="M942.56,435.57c-0.29,0.36,0.25-0.08,0.49-0.08c0.24-0.01,0.16,0.28,0.08-0.03
					c-0.06-0.24-0.11-0.57-0.19-0.81c0,0,0.01-0.18,0.05-0.18c-0.31-0.03-0.17,0.37-0.04,0.12c-0.14,0.26-0.2-0.46-0.07,0.06
					c0,0.02,0.02,0.11,0,0.17c-0.11,0.19-0.2,0.24-0.42,0.32c-0.1,0.03-0.2,0.1-0.12,0.05c-0.06-0.02-0.12-0.03-0.17-0.05
					c0.42,0.23,0.57,0.5,0.46,0.83c0,0-0.05,0.14-0.02,0.18c-0.01-0.02,0.41-0.07,0.42-0.07c0.81-0.08,1.5-0.63,1.5-1.5
					c0-0.75-0.69-1.58-1.5-1.5c-1.37,0.14-2.77,0.56-3.24,2.02c-0.46,1.42,0.54,2.76,1.95,3c2.65,0.45,5.05-2.27,3.83-4.8
					c-1.22-2.53-5.06-2.03-5.54,0.75c-0.21,1.25,0.18,2.82,1.14,3.7c0.96,0.88,2.65,1.03,3.54-0.06c0.51-0.63,0.61-1.51,0-2.12
					C944.16,435.04,943.08,434.94,942.56,435.57L942.56,435.57z"/>
			</g>
		</g>
		<g class="st8">
			<g>
				<path class="st12" d="M913.61,435.17c-0.44,0.33-1.31,0.41-1.8,0.1c0.18,0.18,0.36,0.36,0.54,0.54
					c-0.04,0.38-0.01,0.49,0.08,0.32c-0.08,0.08-0.06,0.07,0.08-0.04c0.26,0.01,0.61-0.16,0.89-0.18c0.04,0,0.6,0.03,0.6,0.03
					c-0.11-0.11-0.17-0.23-0.19-0.37c0.04-0.37,0.28-0.59,0.73-0.64c-1.93-0.01-1.93,2.99,0,3c1.83,0,2.8-2.09,1.96-3.62
					c-0.88-1.6-3.26-1.65-4.78-1.12c-1.62,0.56-3.15,2.66-1.84,4.28c0.62,0.76,1.72,0.87,2.63,0.94c0.91,0.07,1.88-0.1,2.62-0.66
					c0.64-0.49,0.98-1.29,0.54-2.05C915.29,435.08,914.26,434.68,913.61,435.17L913.61,435.17z"/>
			</g>
		</g>
	</g>
	<g id="Salami_4_1_">
		<path id="Salami_4" class="st10" d="M811.5,282.5c4,5,21,5,41,3s27-24,27-34s-6-28-14-29s-14,30-30,37S807.5,277.5,811.5,282.5z"
			/>
		<g class="st8">
			<g>
				<path class="st12" d="M848.1,274.4c-0.67,0.25-0.91-0.44-0.54-0.98c0.23-0.33,0.71-0.58,1.11-0.62c0.42-0.04,0.37,0.02,0.63,0.4
					c0.28,0.4,0.42,0.77,0.6,1.21c0.03,0.07-0.1,0.24-0.08,0.27c0.04,0.06,0.23-0.13,0.23-0.13c-0.02-0.17-0.42-0.65-0.51-0.82
					c-0.05-0.09-0.01-0.26-0.05-0.33c-0.84-1.57-1.72,0.04-2.05,0.48c-0.49,0.65-0.1,1.67,0.54,2.05c0.76,0.46,1.57,0.11,2.05-0.54
					c0.57-0.75,0.97-1.67,0.72-2.62c-0.24-0.91-1.01-1.61-1.95-1.69c-1.8-0.16-2.56,1.71-2.21,3.22c0.35,1.5,1.56,3.17,3.22,3.27
					c1.67,0.11,2.97-1.26,3.08-2.89c0.11-1.54-0.95-3.51-2.22-4.4c-1.43-0.99-3.6-0.43-4.84,0.64c-1.28,1.1-1.83,2.98-1.11,4.56
					c0.71,1.55,2.56,2.41,4.19,1.81C850.69,276.63,849.91,273.73,848.1,274.4L848.1,274.4z"/>
			</g>
		</g>
		<g class="st8">
			<g>
				<path class="st12" d="M855.3,260.35c-0.08-0.06-0.16-0.13-0.23-0.2c-0.12-0.14-0.14-0.15-0.07-0.05
					c-0.14-0.11-0.05-0.16-0.03,0.06c0.01,0.2-0.08,0.32-0.17,0.48c-0.16,0.11-0.17,0.13-0.03,0.04c-0.07,0.05-0.15,0.08-0.24,0.08
					c-0.13,0.01-0.12,0.01,0.02,0.01c-0.22,0.01-0.4-0.06-0.57-0.23c-0.13-0.14-0.17-0.29-0.18-0.48c0.02,0.31,0.1-0.23,0,0.04
					c0.02-0.11,0.08-0.21,0.16-0.29c0.17-0.12,0.18-0.13,0.03-0.06c-0.74,0.34-0.92,1.4-0.54,2.05c0.44,0.75,1.31,0.88,2.05,0.54
					c0.87-0.4,1.38-1.46,1.29-2.39c-0.13-1.21-1.03-2.18-2.29-2.19c-1.07,0-2.07,0.71-2.41,1.72c-0.37,1.13,0.25,2.26,1.1,2.97
					c0.62,0.52,1.51,0.61,2.12,0C855.84,261.94,855.92,260.88,855.3,260.35L855.3,260.35z"/>
			</g>
		</g>
		<g class="st8">
			<g>
				<path class="st12" d="M868.4,257.92c-0.26-0.48-0.55-0.96-0.78-1.46c-0.18-0.38,0.01,0.15-0.11-0.27
					c-0.05-0.19-0.06-0.22-0.01-0.09c-0.11,0.54-0.37,0.8-0.76,0.76c-0.2-0.01-0.28-0.13-0.46-0.2c-0.05-0.02,0.02,0.26,0.03,0.07
					c0,0.01-0.03,0.28-0.08,0.26c0.01,0,0.24-0.13,0.29-0.13c-1.93,0.04-1.93,3.04,0,3c2.9-0.06,3.88-4.6,1.18-5.77
					c-1.43-0.62-3.05,0.27-3.18,1.85c-0.1,1.26,0.73,2.42,1.3,3.49C866.72,261.13,869.32,259.62,868.4,257.92L868.4,257.92z"/>
			</g>
		</g>
		<g class="st8">
			<g>
				<path class="st12" d="M867.04,243.01c0.13,0.09,0.03,0.03-0.02-0.04c-0.26-0.37,0.08,0.12-0.06-0.1
					c-0.12-0.18,0.04,0.18-0.03-0.03c-0.02-0.06-0.08-0.36-0.05-0.09c-0.01-0.08,0.02-0.21,0-0.29c-0.34,0.3-0.68,0.6-1.02,0.9
					c-0.14-0.03-0.28-0.07-0.43-0.1c-0.13-0.17-0.26-0.33-0.39-0.5c0-0.13,0-0.14,0-0.03c-0.01,0.04-0.03,0.38,0.01,0.14
					c-0.11,0.77,0.19,1.65,1.05,1.85c0.71,0.16,1.73-0.22,1.85-1.05c0.13-0.97,0.16-1.94-0.6-2.69c-0.76-0.74-2.09-0.84-2.86-0.06
					c-0.67,0.68-0.74,1.77-0.48,2.65c0.26,0.87,0.8,1.51,1.52,2.03c0.66,0.47,1.67,0.11,2.05-0.54
					C868.02,244.3,867.69,243.48,867.04,243.01L867.04,243.01z"/>
			</g>
		</g>
		<g class="st8">
			<g>
				<path class="st12" d="M832.3,271.7c-0.14,0.1-0.27,0.2-0.42,0.28c0,0-0.43,0.2-0.24,0.13c0.12,0.01,0.1,0.01-0.05,0.01
					c0.05,0,0.1,0.01,0.15,0.01c0.22,0.14,0.29,0.2,0.36,0.47c0.04,0.09,0.06,0.19,0.06,0.29c-0.03,0.08-0.02,0.08,0.01,0
					c0.07-0.07,0.18-0.29,0.21-0.38c0.04-0.11-0.06,0.05-0.18,0.1c-0.38,0.15-0.73-0.13-0.96-0.43c0.49,0.64,1.29,0.98,2.05,0.54
					c0.63-0.37,1.03-1.4,0.54-2.05c-0.71-0.94-1.89-1.33-2.97-0.73c-0.84,0.46-1.54,1.57-1.67,2.52c-0.16,1.17,0.56,2.21,1.69,2.55
					c1.05,0.32,2.07-0.11,2.93-0.72c0.66-0.47,0.97-1.31,0.54-2.05C833.97,271.59,832.97,271.23,832.3,271.7L832.3,271.7z"/>
			</g>
		</g>
		<path class="st13" d="M813.5,279.5c17.6,7,37.71,7.3,58.2-6.34"/>
	</g>
	<g id="Salami_5_1_">
		<path id="Salami_5_2_" class="st10" d="M904.5,283.5c-8,47,49,46,58,46s66-1,61-50s-56-43-61-43S912.5,236.5,904.5,283.5z"/>
		<path class="st14" d="M959.5,236.5c-66,14-71,92,0,92.92"/>
		<g class="st8">
			<g>
				<path d="M925.69,292.9c-0.01-0.02-0.07-0.49-0.1-0.52c-0.12-0.11,0.3-0.2-0.22,0.13c-0.29,0.18-1.04-0.29-0.98-0.34
					c0.01-0.01,0.01,0.14,0.01,0.17c-0.01,0.33-0.19,0.59-0.64,0.8c-0.74,0.34-0.92,1.4-0.54,2.05c0.44,0.76,1.31,0.88,2.05,0.54
					c1.86-0.85,2.88-3.63,1.52-5.33c-0.82-1.01-2.23-1.06-3.21-0.26c-1.11,0.9-1.07,2.28-0.78,3.56c0.18,0.79,1.09,1.26,1.85,1.05
					C925.46,294.52,925.88,293.69,925.69,292.9L925.69,292.9z"/>
			</g>
		</g>
		<g class="st8">
			<g>
				<path d="M931.11,282.4c0.08,0.13,0.1,0.55,0.02,0.68c0.45-0.68,0.13-1.66-0.54-2.05c-0.73-0.43-1.6-0.14-2.05,0.54
					c-0.47,0.7-0.45,1.64-0.02,2.35c0.42,0.69,1.34,0.95,2.05,0.54C931.27,284.05,931.54,283.09,931.11,282.4L931.11,282.4z"/>
			</g>
		</g>
		<g class="st8">
			<g>
				<path d="M940.39,283.31c-0.01-0.03-0.1-0.47-0.05-0.18c0-0.05,0-0.1,0-0.15c-0.02,0.13-0.02,0.14,0.01,0.04
					c0.07-0.21-0.18,0.23,0.04-0.12c0.16-0.25-0.09,0.07,0.14-0.14c-0.61,0.08-1.21,0.16-1.82,0.23c0.23,0.12-0.03-0.12,0.03,0
					c0.08,0.14-0.14-0.12-0.01-0.03c0.13,0.09,0.07,0.23,0.02,0.01c0.01,0.05,0.06,0.37,0.04,0.15c-0.01-0.21-0.02,0.06-0.02,0.1
					c0,0.19,0.03-0.28-0.02,0.01c0.02-0.11,0.1-0.2,0.01-0.04c0.15-0.25,0.01-0.03-0.08,0.05c-0.62,0.52-0.54,1.58,0,2.12
					c0.61,0.61,1.5,0.53,2.12,0c1.54-1.3,1.17-4.03-0.59-4.95c-0.61-0.32-1.31-0.24-1.82,0.23c-0.93,0.87-1.3,2.25-0.92,3.46
					c0.24,0.77,1.04,1.27,1.85,1.05C940.1,284.94,940.63,284.08,940.39,283.31L940.39,283.31z"/>
			</g>
		</g>
		<g class="st8">
			<g>
				<path d="M921.5,269.25c0.19,0.06,0.29,0.19,0.42,0.32c0.07,0.2,0.09,0.22,0.04,0.06c0.01,0.06,0.02,0.12,0.03,0.19
					c-0.04,0.19-0.07,0.34-0.22,0.48c-0.17,0.16-0.29,0.13-0.49,0.17c-0.12-0.02-0.11-0.02,0.04,0.02
					c-0.08-0.01-0.14-0.04-0.19-0.09c-0.12-0.09-0.19-0.2-0.21-0.35c-0.02-0.07-0.01-0.14,0.02-0.21c-0.04,0.14-0.04,0.17,0,0.07
					c0.05-0.1,0.03-0.08-0.04,0.05c0.04-0.08,0.09-0.14,0.17-0.18c-0.67,0.46-0.97,1.32-0.54,2.05c0.39,0.66,1.38,1,2.05,0.54
					c0.98-0.68,1.53-1.79,1.26-2.98c-0.26-1.13-1.38-1.94-2.53-1.9c-1.25,0.05-2.22,0.97-2.31,2.22c-0.08,1.11,0.66,2.12,1.71,2.43
					c0.75,0.23,1.67-0.27,1.85-1.05C922.73,270.29,922.3,269.49,921.5,269.25L921.5,269.25z"/>
			</g>
		</g>
		<g class="st8">
			<g>
				<path d="M940.88,259.55c-0.17-0.1-0.19-0.14-0.24-0.26c-0.09-0.22-0.08-0.27-0.05-0.57c-0.02,0.24,0.09-0.24,0.01-0.05
					c0.02-0.05,0.19-0.31,0.15-0.26c-0.07,0.07,0.19-0.06,0.18-0.06c0.28-0.01,0.66,0.26,0.76,0.47c0.06,0.12-0.01,0.15,0.04,0.19
					c0.18,0.13,0.45-0.1,0.7,0.14c0.22,0.21,0.23,0.74-0.01,0.94c-0.85-0.35-1.71-0.71-2.56-1.06c0.04,0.58,0.09,1.15,0.13,1.73
					c0.06,0.81,0.65,1.5,1.5,1.5c0.76,0,1.56-0.69,1.5-1.5c-0.04-0.58-0.09-1.15-0.13-1.73c-0.1-1.35-1.54-1.92-2.56-1.06
					c-0.91,0.76-0.86,2.13-0.2,3.03c0.73,1,2.07,1.25,3.14,0.62c2.14-1.25,1.73-4.19-0.05-5.51c-1.63-1.21-4.04-0.94-5.1,0.89
					c-1,1.74-0.45,4.11,1.29,5.13C941.03,263.12,942.55,260.53,940.88,259.55L940.88,259.55z"/>
			</g>
		</g>
		<g class="st8">
			<g>
				<path d="M973.76,256.43c-0.18,0.01-0.09-0.01,0.02,0.03c0.33,0.11-0.06-0.08,0.07,0.03c0.02,0.02,0.2,0.21,0.09,0.09
					c-0.1-0.11,0.04,0.2-0.01-0.05c0.05,0.27,0.02,0.43-0.19,0.62c-0.13,0.12,0.13-0.02-0.04,0.01c-0.09,0.03-0.1,0.04-0.02,0.01
					c0.11-0.03,0.07-0.03-0.12,0c0.19,0.05,0.02,0-0.06-0.03c0.18,0.08,0.02,0.02-0.04-0.03c-0.03-0.02-0.25-0.29-0.18-0.18
					c0.08,0.13-0.04-0.16-0.05-0.19c-0.01-0.13-0.01-0.12-0.01,0.03c0.01-0.06,0.02-0.11,0.03-0.17c-0.01,0.04-0.02,0.07-0.03,0.11
					c0.02-0.05,0.05-0.1,0.07-0.14c-0.19,0.21,0.13-0.12,0,0.02c-0.11,0.12,0.27-0.15-0.03-0.02c-0.74,0.34-0.92,1.4-0.54,2.05
					c0.44,0.76,1.31,0.88,2.05,0.54c1.13-0.52,1.66-1.96,1.35-3.12c-0.37-1.35-1.75-2.07-3.08-1.79c-1.26,0.27-2.23,1.46-2.05,2.76
					c0.18,1.34,1.35,2.52,2.77,2.42c0.78-0.05,1.54-0.65,1.5-1.5C975.22,257.16,974.59,256.37,973.76,256.43L973.76,256.43z"/>
			</g>
		</g>
		<g class="st8">
			<g>
				<path d="M985.07,267.59c-0.33,0.03-0.4-0.03-0.53-0.29c-0.05-0.11-0.02-0.09,0,0.01c0.01,0.11-0.05-0.02,0.05-0.08
					c-0.1,0.06,0.23-0.11,0.13-0.09c0.1-0.03,0.31-0.05,0.14-0.07c-0.05-0.01,0.17,0.14,0.05,0.01c0.08,0.08,0.08,0.16,0.05,0.06
					c0.06,0.21,0.01,0.1,0.07,0.29c-0.03-0.1-0.01-0.07-0.01,0.06c0-0.16-0.08,0.11,0.01,0.01c-0.53,0.61-0.6,1.52,0,2.12
					c0.54,0.54,1.59,0.62,2.12,0c0.97-1.13,1.16-2.68,0.4-4c-0.75-1.31-2.39-1.84-3.79-1.32c-1.51,0.56-2.44,2.01-2.15,3.62
					c0.28,1.56,1.87,2.81,3.46,2.67c0.81-0.07,1.5-0.64,1.5-1.5C986.57,268.33,985.88,267.51,985.07,267.59L985.07,267.59z"/>
			</g>
		</g>
		<g class="st8">
			<g>
				<path d="M968.38,278.04c-0.21,0.02-0.02,0,0.07,0.04c0.11,0.04,0.2,0.09,0.3,0.16c0.09,0.07,0.11,0.2,0.04,0.03
					c0.05,0.12,0.07,0.2,0.08,0.32c-0.03-0.19,0.03-0.03-0.01,0.07c-0.08,0.19-0.19,0.32-0.34,0.45c0.12-0.11,0.09-0.03-0.04,0.01
					c-0.05,0.01-0.11,0.01-0.16,0.02c0.15,0,0.16,0,0.04-0.02c-0.2,0,0.14,0.08-0.03-0.01c-0.21-0.12,0.17,0.14-0.02-0.01
					c-0.04-0.03-0.23-0.16-0.1-0.09c0.04,0.08,0.04,0.08,0.01,0c-0.03-0.08-0.04-0.07-0.01,0.01c0.02,0.09,0.02,0.09,0,0
					c-0.01-0.09-0.02-0.09-0.02,0c0.06,0.11,0.03-0.12-0.01,0.01c-0.06,0.21,0.11-0.17,0,0.03c-0.06,0.1-0.12,0.19-0.19,0.29
					c-0.49,0.64-0.1,1.68,0.54,2.05c0.77,0.45,1.56,0.11,2.05-0.54c0.71-0.92,0.8-2.29,0.26-3.31c-0.58-1.08-1.91-1.65-3.1-1.34
					c-1.23,0.32-2,1.44-1.83,2.69c0.16,1.16,1.22,2.27,2.47,2.14c0.78-0.08,1.54-0.63,1.5-1.5
					C969.85,278.8,969.22,277.96,968.38,278.04L968.38,278.04z"/>
			</g>
		</g>
		<g class="st8">
			<g>
				<path d="M953.05,292.01c-0.59-0.46-1.44-1.2-1.31-1.85c-0.05,0.04-0.11,0.04-0.17,0.02c0.06,0.01,0.1,0.04,0.14,0.09
					c0.02,0.12,0.17,0.25,0.21,0.39c0.16,0.62-0.23,1.46-0.42,2.03c-0.62,1.83,2.28,2.62,2.89,0.8c0.51-1.52,0.86-3.19-0.02-4.65
					c-0.78-1.31-2.44-2.04-3.88-1.38c-1.32,0.61-1.92,2.09-1.72,3.48c0.23,1.65,1.52,2.71,2.76,3.67c0.64,0.49,1.68,0.1,2.05-0.54
					C954.04,293.29,953.69,292.51,953.05,292.01L953.05,292.01z"/>
			</g>
		</g>
		<g class="st8">
			<g>
				<path d="M945.13,313.46c0.17,0.02-0.08-0.06-0.15-0.17c-0.03-0.04-0.04-0.24-0.05-0.21c-0.07,0.19,0.04-0.04,0.12-0.11
					c-0.12,0.11,0.23-0.07,0.05-0.02c0.22-0.06,0.04-0.04,0.17-0.04c0.11,0-0.04-0.1,0.16,0.04c-0.05-0.03-0.17-0.13-0.09-0.01
					c0.02,0.03,0.06,0.1,0.06,0.13c0,0.1,0.03,0.21-0.03,0.38c-0.05,0.15,0.04-0.11-0.06,0.12c0.09-0.19-0.17,0.11,0.01-0.01
					c0.61,0.08,1.21,0.16,1.82,0.23c0.05,0.06,0.04,0.4,0.07-0.02c0.05-0.81-0.72-1.5-1.5-1.5c-0.85,0-1.45,0.69-1.5,1.5
					c-0.05,0.82,0.28,1.53,0.81,2.14c0.41,0.47,1.3,0.59,1.82,0.23c1.25-0.85,1.84-2.35,1.47-3.84c-0.4-1.58-1.87-2.59-3.48-2.37
					c-1.59,0.22-2.92,1.56-2.89,3.21c0.03,1.8,1.48,3.12,3.2,3.29c0.81,0.08,1.5-0.75,1.5-1.5
					C946.63,314.08,945.94,313.54,945.13,313.46L945.13,313.46z"/>
			</g>
		</g>
		<g class="st8">
			<g>
				<path d="M967.85,302.49c0.1-0.06,0.2-0.08,0.32-0.08c0.21,0.04,0.23,0.04,0.06,0c0.18,0.08,0.19,0.08,0.04,0
					c0.1,0.04,0.17,0.11,0.22,0.2c0.13,0.22,0.05,0.42-0.02,0.63c-0.13,0.14-0.13,0.15-0.02,0.03c-0.05,0.06-0.11,0.1-0.19,0.12
					c-0.11,0.04-0.1,0.03,0.04-0.01c-0.11,0.03-0.23,0.03-0.34-0.01c-0.1-0.04-0.19-0.09-0.27-0.17c-0.11-0.17-0.13-0.18-0.04-0.04
					c-0.07-0.1-0.1-0.21-0.09-0.33c0,0.17,0.01,0.15,0.03-0.07c-0.05,0.16-0.04,0.14,0.03-0.05
					C967.68,302.62,967.76,302.54,967.85,302.49c-0.66,0.46-0.97,1.31-0.54,2.05c0.38,0.66,1.38,1,2.05,0.54
					c1.11-0.77,1.53-2.2,0.87-3.43c-0.66-1.21-2.19-1.55-3.36-0.9c-1.2,0.67-1.66,2.17-0.98,3.37c0.7,1.22,2.27,1.57,3.47,0.95
					c0.72-0.37,0.93-1.38,0.54-2.05C969.48,302.29,968.58,302.11,967.85,302.49L967.85,302.49z"/>
			</g>
		</g>
		<g class="st8">
			<g>
				<path d="M984.03,289.16c-0.01-0.02-0.34-0.45-0.35-0.46c-0.15-0.1,0.05-0.11-0.11-0.02c-0.01,0.11-0.07,0.19-0.18,0.23
					c-0.33-0.07-0.65-0.13-0.98-0.2c0.02-0.03,0.06,0.23,0.07,0.18c-0.07,0.53-0.11,0.87-0.65,1.15c0.75,0.43,1.5,0.86,2.26,1.3
					c0.01-0.98-0.59-1.68-1.42-2.13c-0.14-0.08-0.28-0.15-0.43-0.22c-0.25-0.12-0.09-0.11-0.12-0.03c0.1,0.15,0.13,0.32,0.11,0.51
					c-0.03,0.16-0.12,0.26-0.28,0.28c-0.26,0.38-0.22-0.02-0.12,0.07c0.63,0.51,1.51,0.62,2.12,0c0.53-0.53,0.63-1.61,0-2.12
					c-0.8-0.65-1.73-1.03-2.78-0.79c-0.91,0.21-1.61,0.97-1.85,1.86c-0.23,0.88,0.1,1.79,0.77,2.38c0.26,0.23,0.55,0.4,0.85,0.55
					c0.13,0.07,0.28,0.16,0.41,0.22c0.04,0.03,0.08,0.05,0.12,0.08c-0.23-0.15-0.36-0.37-0.39-0.65c-0.02,1.18,1.27,1.81,2.26,1.3
					c2.09-1.09,3.18-4.77,0.89-6.28c-1.22-0.8-2.74-0.17-3.35,1.08c-0.69,1.41,0.13,2.76,1.04,3.83c0.53,0.62,1.58,0.54,2.12,0
					C984.64,290.67,984.55,289.78,984.03,289.16L984.03,289.16z"/>
			</g>
		</g>
		<g class="st8">
			<g>
				<path d="M1003.19,284.73c-0.25-0.01-0.52-0.01-0.77-0.05c-0.07-0.01-0.49-0.19-0.51-0.19c-0.04,0.01-0.02,0.13-0.04,0.27
					c-0.01,0.05-0.04,0.09-0.07,0.12c-0.08,0.04-0.07,0.04,0.03,0.01c0.1-0.03,0.11-0.03,0.02,0c-0.12-0.04-0.08-0.03,0.1,0.02
					c-0.11-0.11,0.11,0.1,0.12,0.12c0.29,0.4,0.38,0.88,0.47,1.36c0.14,0.8,1.12,1.25,1.85,1.05c0.84-0.23,1.19-1.04,1.05-1.85
					c-0.21-1.24-0.78-2.46-1.85-3.18c-1.07-0.72-2.55-0.67-3.58,0.09c-1.13,0.83-1.41,2.39-0.64,3.57c0.86,1.33,2.36,1.61,3.83,1.66
					C1005.12,287.8,1005.12,284.8,1003.19,284.73L1003.19,284.73z"/>
			</g>
		</g>
		<g class="st8">
			<g>
				<path d="M993.03,310.58c-0.45-0.06-0.88-0.02-1.33,0c-0.18,0.01-0.84-0.03-0.85-0.02c-0.26,0.18-0.03-0.14-0.04-0.01
					c-0.01,0.06,0.08,0.25,0.1,0.31c0.06,0.2-0.16,0.2,0.04,0.12c0.08-0.03,0.18-0.17,0.26-0.22c0.19-0.12,0.39-0.19,0.6-0.23
					c-0.08,0.01,0.35,0.01,0.13,0c-0.04-0.03-0.06-0.06-0.06-0.11c-0.02-0.07-0.01-0.06,0.01,0.03c0.07,0-0.05,0,0.02,0.13
					c-0.1-0.18,0.13,0.01-0.02,0.04c0.01-0.05,0.03-0.1,0.06-0.15c0.07-0.11,0.17-0.19,0.32-0.22c-0.76,0.28-1.28,1.02-1.05,1.85
					c0.2,0.73,1.08,1.33,1.85,1.05c1.52-0.56,2.22-2.18,1.63-3.7c-0.67-1.73-2.63-2.27-4.27-1.62c-1.6,0.63-3.19,2.42-2.21,4.2
					c0.4,0.73,1.14,1.24,1.94,1.46c0.96,0.26,1.93-0.02,2.89,0.1c0.81,0.1,1.5-0.76,1.5-1.5
					C994.53,311.18,993.84,310.68,993.03,310.58L993.03,310.58z"/>
			</g>
		</g>
		<g class="st8">
			<g>
				<path d="M966.37,242.63c0.02,0.26,0.04,0.52,0.06,0.77c-0.08,0.13-0.15,0.25-0.23,0.38c-0.15,0.16-0.66,0.21-0.85,0.17
					c-0.17-0.04-0.28-0.19-0.39-0.3c0.02,0.04,0.05,0.08,0.07,0.12c-0.05-0.13-0.06-0.14-0.03-0.03c0.02,0.24-0.04-0.22,0,0.01
					c0.02,0.11,0.08-0.07,0,0.01c-0.04,0.12-0.01,0.09,0.08-0.09c0.08-0.23,0.27-0.32,0.56-0.27c0.24-0.17,0.46-0.17,0.66,0
					c0.32,0.13,0.5,0.4,0.52,0.81c-0.07,0.25-0.14,0.5-0.2,0.76c0.01-0.03,0.03-0.06,0.04-0.09c0.35-0.73,0.2-1.62-0.54-2.05
					c-0.66-0.38-1.7-0.19-2.05,0.54c-0.37,0.75-0.33,1.54,0.24,2.19c0.39,0.44,1.01,0.75,1.61,0.71c1.57-0.11,2.26-1.71,2.01-3.1
					c-0.22-1.24-1.3-2.29-2.61-2.11c-1.36,0.18-2.44,1.89-1.55,3.11c0.48,0.65,1.3,0.98,2.05,0.54
					C966.48,244.31,966.85,243.29,966.37,242.63L966.37,242.63z"/>
			</g>
		</g>
		<g class="st8">
			<g>
				<path d="M998.78,250.15c-0.09-0.14-0.1-0.12-0.01,0.07c0.03,0.12,0.03,0.24-0.02,0.37c0.05-0.16,0.03-0.15-0.04,0.04
					c0.09-0.14,0.08-0.13-0.03,0.03c-0.24,0.14-0.34,0.14-0.62,0.14c-0.16-0.09-0.17-0.09-0.02,0c-0.08-0.04-0.15-0.09-0.19-0.17
					c0.08,0.15,0.08,0.15,0-0.01c-0.01-0.19-0.01-0.2-0.01-0.02c-0.01-0.1,0.01-0.19,0.06-0.28c0.12-0.13,0.12-0.13,0-0.01
					c0.14-0.1,0.14-0.11-0.01-0.02c0.16-0.06,0.16-0.07,0-0.02c0.19-0.02,0.19-0.02,0.02-0.01c0.19,0.04,0.19,0.03,0.02-0.01
					c-0.76-0.2-1.66,0.25-1.85,1.05c-0.18,0.79,0.24,1.63,1.05,1.85c1.18,0.31,2.43-0.08,3.18-1.05c0.8-1.05,0.67-2.54-0.25-3.48
					c-0.92-0.94-2.42-1.03-3.41-0.14c-0.85,0.76-1.19,2.24-0.46,3.2c0.49,0.64,1.29,0.98,2.05,0.54
					C998.88,251.84,999.28,250.8,998.78,250.15L998.78,250.15z"/>
			</g>
		</g>
		<g class="st8">
			<g>
				<path d="M1012.83,268.79c-0.12,0.33-0.43,0.5-0.75,0.28c-0.1-0.07-0.2-0.31-0.11-0.08c-0.06-0.08-0.09-0.16-0.09-0.26
					c0.03-0.19,0.03-0.2-0.03-0.03c0.48-0.37,0.96-0.73,1.45-1.1c-0.24-0.01-0.47-0.08-0.76-0.26c-0.69-0.43-1.65-0.15-2.05,0.54
					c-0.42,0.72-0.15,1.62,0.54,2.05c0.69,0.43,1.46,0.64,2.27,0.67c0.7,0.03,1.23-0.49,1.45-1.1c0.46-1.27-0.33-2.84-1.63-3.22
					c-1.4-0.41-2.7,0.42-3.18,1.72c-0.27,0.74,0.31,1.68,1.05,1.85C1011.84,270.03,1012.54,269.57,1012.83,268.79L1012.83,268.79z"
					/>
			</g>
		</g>
	</g>
	<g id="Salami_6">
		<path id="Salami_6_1_" class="st10" d="M1016.5,369.5c4,52,61,52,70,52s62-3,54-55s-73-50-70-50S1012.5,317.5,1016.5,369.5z"/>
		<path class="st15" d="M1067.5,316.5c-76,20-54,106,24.75,104.25"/>
		<g class="st8">
			<g>
				<path d="M1081.59,361.57c-0.04-0.41-0.1-0.83-0.05-1.23c0.04-0.38,0.14-0.13-0.12-0.24c-0.25-0.1,0.47,0.4,0.4,0.41
					c0.11-0.02,0.08-0.26,0.15-0.35c0.07-0.11,0.18-0.17,0.32-0.2c0.64,0.21,0.81,0.22,0.52,0.03c-0.64-0.49-1.68-0.1-2.05,0.54
					c-0.45,0.77-0.11,1.56,0.54,2.05c1.05,0.8,2.64,0.19,3.25-0.87c0.72-1.27,0.06-2.8-0.97-3.68c-1.13-0.96-2.59-1.24-3.81-0.27
					c-1.17,0.94-1.32,2.42-1.17,3.81c0.09,0.81,0.63,1.5,1.5,1.5C1080.84,363.07,1081.68,362.38,1081.59,361.57L1081.59,361.57z"/>
			</g>
		</g>
		<g class="st8">
			<g>
				<path d="M1115.83,353.41c-0.09-0.5-0.23-1.28-0.01-1.69c0.12-0.21,0.36-0.3,0.57-0.1c0.37,0.36,0.02,0.59-0.1,0.86
					c-0.06,0.13,0.16,0.76-0.38,0.61c1.86,0.54,2.65-2.35,0.8-2.89c-1.17-0.34-2.42,0.21-3.02,1.27c-0.63,1.11-0.28,2.49,0.66,3.3
					c2.04,1.76,4.93,0.04,5.17-2.4c0.23-2.37-1.94-4.32-4.28-3.73c-2.55,0.65-2.65,3.46-2.29,5.57c0.14,0.8,1.12,1.25,1.85,1.05
					C1115.63,355.03,1115.97,354.21,1115.83,353.41L1115.83,353.41z"/>
			</g>
		</g>
		<g class="st8">
			<g>
				<path d="M1121.63,373.33c-0.61,0.01-1.34-0.13-1.66-0.72c-0.18-0.33-0.21-1.14,0.36-1.11c0.39,0.02,0.4,0.52,0.43,0.85
					c-0.01-0.11,0.01,0.42,0.01,0.42c-0.05-0.04,0.44-0.18,0.41-0.18c0.28,0.03,0.02,0.3,0.32,0c1.37-1.37-0.75-3.49-2.12-2.12
					c-0.97,0.97-1.35,2.46-0.68,3.71c0.58,1.08,1.93,1.62,3.1,1.33c2.76-0.69,2.37-5.04,0.46-6.4c-2.2-1.56-5.15,0.09-5.39,2.65
					c-0.25,2.73,2.21,4.61,4.76,4.57C1123.56,376.3,1123.57,373.3,1121.63,373.33L1121.63,373.33z"/>
			</g>
		</g>
		<g class="st8">
			<g>
				<path d="M1100.26,376.32c0-0.19,0-0.38,0-0.57c0-0.78-0.69-1.54-1.5-1.5c-0.81,0.04-1.5,0.66-1.5,1.5c0,0.19,0,0.38,0,0.57
					c0,0.78,0.69,1.54,1.5,1.5C1099.58,377.79,1100.26,377.16,1100.26,376.32L1100.26,376.32z"/>
			</g>
		</g>
		<g class="st8">
			<g>
				<path d="M1114.42,391.28c-0.66,0.1-3.29-0.11-2.52-1.15c0.47-0.63,1.84-1.03,2.55-1.15c0.75-0.13,1.81-0.04,1.79,0.96
					c-0.01,0.46-0.26,0.76-0.71,0.85c-0.16,0.03-1.9-0.49-1.68,0.1c0.66,1.79,3.57,1.02,2.89-0.8c-0.62-1.68-2.52-2.64-4.07-1.4
					c-1.54,1.24-1.08,3.46,0.47,4.46c3.23,2.08,7.28-1.26,5.76-4.82c-1.55-3.64-6.82-2.57-9.13-0.31c-1.39,1.36-1.57,3.55-0.05,4.88
					c1.51,1.32,3.59,1.57,5.49,1.28C1117.12,393.89,1116.31,390.99,1114.42,391.28L1114.42,391.28z"/>
			</g>
		</g>
		<g class="st8">
			<g>
				<path d="M1089.76,401.07c0.01-0.04,0.02-0.07,0.03-0.11c0.18-0.18,0.36-0.36,0.54-0.54c0.33-0.24,0.97,0.48,0.92,0.19
					c-0.02-0.1-0.13-0.23-0.17-0.32c-0.08-0.18-0.12-0.42-0.2-0.62c0.01,0.04-0.01-0.12,0-0.12c-0.01,0-0.23,0.38-0.23,0.37
					c0.02,0.02,0.66-0.06,0.65-0.02c-0.03,0.1-0.29-0.34-0.29-0.34c0-0.03,0.01-0.05,0.01-0.08c-0.02,0.05-0.03,0.1-0.05,0.16
					c-0.03-0.03,0.06-0.11,0.08-0.12c-0.31,0.19-0.91,0.03-1.32-0.11c-0.77-0.26-1.64,0.3-1.85,1.05c-0.22,0.82,0.28,1.59,1.05,1.85
					c1.88,0.63,4.25,0.26,4.94-1.87c0.29-0.89,0.14-1.96-0.5-2.66c-0.69-0.75-1.71-0.94-2.69-0.86c-1.14,0.09-2.19,0.57-2.61,1.71
					c-0.31,0.84-0.16,1.75,0.17,2.57c0.35,0.88,0.84,1.79,1.82,2.08c1.11,0.32,2.3-0.29,2.6-1.42
					C1093.16,400,1090.26,399.2,1089.76,401.07L1089.76,401.07z"/>
			</g>
		</g>
		<g class="st8">
			<g>
				<path d="M1072.27,382.15c-0.02,0.04-0.05,0.08-0.07,0.13c0.18-0.18,0.36-0.36,0.54-0.54c0.92-0.13,1.32,0.02,1.22,0.45
					c-0.01-0.13-0.01-0.26-0.01-0.39c0.02-0.2,0.05-0.2,0.07-0.38c0.03-0.27,0.16-0.17,0.06-0.12c-0.16,0.09-0.1-0.07,0.03,0.06
					c0.02,0.02,0.1,0.09,0.09,0.2c-0.05,0.38-0.41,0.56-0.73,0.7c-0.74,0.33-0.91,1.41-0.54,2.05c0.45,0.76,1.31,0.87,2.05,0.54
					c1.56-0.69,2.53-2.49,2.1-4.16c-0.41-1.61-2.2-2.67-3.81-2.28c-1.65,0.4-2.44,2.22-2.32,3.79c0.07,0.96,0.45,1.9,1.39,2.3
					c0.94,0.4,2,0.05,2.52-0.83C1075.83,381.99,1073.24,380.48,1072.27,382.15L1072.27,382.15z"/>
			</g>
		</g>
		<g class="st8">
			<g>
				<path d="M1047.51,391.63c0.21-0.05,0.02,0.17,0.02-0.07c0-0.18-0.08-0.38-0.09-0.57c-0.01-0.45,0.01-1.04,0.27-1.4
					c-0.18,0.18-0.36,0.36-0.54,0.54c0.79-0.6,1.54,0.82,0.67,1.38c0.68,0.18,1.37,0.36,2.05,0.54c-0.24-0.31-0.33-0.44-0.11-0.79
					c1.03-1.64-1.57-3.15-2.59-1.51c-0.72,1.16-0.74,2.72,0.11,3.82c0.48,0.63,1.3,1.01,2.05,0.54c1.47-0.93,2.3-2.73,1.76-4.44
					c-0.51-1.65-2.23-2.8-3.95-2.65c-4.28,0.37-3.35,8.66,1.14,7.52C1050.18,394.05,1049.39,391.16,1047.51,391.63L1047.51,391.63z"
					/>
			</g>
		</g>
		<g class="st8">
			<g>
				<path d="M1054.3,367.96c0.42-0.56,0.36-0.31,0.7-0.26c0.12,0.02-0.13-0.15-0.05-0.04c-0.03-0.04-0.27-0.62-0.21-0.62
					c0.07,0-0.26,0.22-0.32,0.26c0.18-0.13,0.12,0.06-0.06-0.03c-0.16-0.08-0.23-0.22-0.33-0.33c0.17,0.2-0.07,0.06,0.04-0.14
					c-0.95,1.68,1.64,3.2,2.59,1.51c0.71-1.27,0.35-2.94-0.94-3.69c-1.35-0.78-3.15-0.13-3.75,1.28c-0.55,1.29-0.08,3.02,0.93,3.97
					c1.23,1.15,3,0.92,3.98-0.39c0.49-0.65,0.11-1.68-0.54-2.05C1055.59,366.98,1054.79,367.31,1054.3,367.96L1054.3,367.96z"/>
			</g>
		</g>
		<g class="st8">
			<g>
				<path d="M1036.95,359.73c0.09,0,0.16,0.11,0.19,0.18c0.04,0.09,0,0.19,0.01,0.27c0,0.03-0.02,0.06-0.04,0.09
					c-0.06,0.08-0.03,0.05,0.08-0.07c0.01,0.03-0.14,0.1-0.14,0.09c0.16-0.04,0.19-0.05,0.09-0.04c-0.04,0.01-0.07,0.01-0.1-0.01
					c-0.03-0.11,0.16,0.11,0.01,0.01c-0.02-0.02-0.05-0.03-0.07-0.05c-0.06-0.1-0.06-0.1-0.01-0.01c0.03-0.01,0.02-0.01,0.05,0.12
					c0.02,0.09,0.03,0.21,0.01,0.05c0.05,0.38,0.04-0.07,0,0.13c0.01-0.04,0,0.15-0.05,0.14c-0.02-0.01,0.75-0.05,0.73-0.02
					c-0.01,0.01-0.03-0.01-0.08-0.11c-0.08-0.15-0.17-0.3-0.24-0.46c-0.35-0.73-1.4-0.92-2.05-0.54c-0.75,0.44-0.89,1.32-0.54,2.05
					c0.37,0.78,0.97,1.57,1.83,1.84c0.98,0.31,1.97-0.05,2.62-0.82c1.08-1.29,1.03-3.37-0.22-4.55c-1.33-1.26-3.56-0.86-4.5,0.69
					c-1.1,1.82,0.38,4,2.4,4.01C1038.88,362.75,1038.89,359.75,1036.95,359.73L1036.95,359.73z"/>
			</g>
		</g>
		<g class="st8">
			<g>
				<path d="M1054.88,342.89c-0.66-0.52-1.16-1.21-1.07-2.1c0.06-0.61,0.61-1.66,1.3-1.72c0.55-0.05,0.49,0.17,0.64,0.78
					c0.13,0.5,0.23,1.03,0.2,1.55c0,0.01-0.15,0.84-0.17,0.81c0.18,0.18,0.73-1.46,0.82-1.64c-0.68,0.18-1.37,0.36-2.05,0.54
					c-0.16-0.54-0.34-0.59-0.55-0.14c-0.19,0.2-0.36,0.41-0.52,0.63c-0.29,0.4-0.51,0.78-0.63,1.26c-0.22,0.92,0.05,1.82,0.71,2.47
					c1.38,1.35,3.5-0.77,2.12-2.12c0.28,0.28,0.1,0.2,0.44-0.13c0.19-0.18,0.37-0.42,0.52-0.63c0.32-0.45,0.53-0.93,0.59-1.48
					c0.12-1.05-0.33-1.85-1.17-2.45c-0.63-0.45-1.71-0.14-2.05,0.54c-0.71,1.4-1.31,2.98-0.52,4.48c0.58,1.09,1.8,1.8,3.04,1.55
					c3.1-0.63,2.63-5.04,1.73-7.16c-1.23-2.9-4.69-2.18-6.36-0.06c-1.72,2.19-1.33,5.41,0.85,7.14
					C1054.25,346.2,1056.39,344.09,1054.88,342.89L1054.88,342.89z"/>
			</g>
		</g>
		<g class="st8">
			<g>
				<path d="M1080.22,335.86c0.02,0.07-0.08,0.09-0.05,0.13c-0.01-0.01,0.37-0.14,0.39-0.14c0.31-0.09,0.68-0.14,1.01-0.09
					c0.24,0.04,0.55,0.13,0.71,0.33c0.15,0.18,0.14,0.4,0.11,0.43c-0.14,0.17-0.47,0.18-0.67,0.2c-0.18,0.02-0.35,0-0.53,0.01
					c-0.04,0-0.4-0.1-0.22,0c0.06,0.03,0.13,0.03,0.02-0.16c-0.03-0.05-0.15,0.06-0.01,0.08c-0.25-0.07-0.5-0.14-0.76-0.2
					c-0.06-0.29-0.12-0.59-0.18-0.88c0.3-0.14,0.35-0.2,0.14-0.17c-0.06-0.05-0.67-0.13-0.73-0.15c0,0.96,0,1.93,0,2.89
					c0.65-0.09,1.3-0.18,1.95-0.28c0.8-0.11,1.24-1.14,1.05-1.85c-0.24-0.86-1.04-1.16-1.85-1.05c-0.65,0.09-1.3,0.18-1.95,0.28
					c-1.52,0.22-1.33,2.54,0,2.89c1.65,0.44,3.61,0.29,4.21-1.6c0.51-1.62-0.86-3.16-2.52-2.85c-3.32,0.62-2.92,5.46,0.25,5.99
					c1.5,0.25,3.42-0.11,4.31-1.47c0.89-1.36,0.56-3.2-0.58-4.31c-1.17-1.15-3.03-1.34-4.55-0.92c-1.62,0.44-3.06,1.91-2.43,3.7
					C1077.96,338.46,1080.86,337.68,1080.22,335.86L1080.22,335.86z"/>
			</g>
		</g>
	</g>
	<g id="Details">
		<g class="st16">
			<g>
				<path class="st17" d="M658.99,512.63c-0.72,0.19-1.44,0.37-2.17,0.5c-0.26,0.05-1.72,0.08-1.86,0.26
					c0.26,0.55,0.42,0.67,0.5,0.38c0.04-0.13,0.1-0.25,0.17-0.36c0.1-0.19,0.23-0.37,0.37-0.53c0.25-0.28,0.65-0.65,1.05-0.67
					c0.27-0.01,0.82,0.16,0.85,0.51c0.03,0.28-0.43,0.42-0.63,0.49c-0.21,0.08-0.45,0.08-0.65,0.15c-0.14,0.02-0.28,0.04-0.42,0.04
					c0.06,0.13,0.12,0.25,0.18,0.38c0.21-0.01,0.83-0.36,1.07-0.43c-0.62-0.35-1.23-0.7-1.85-1.05c0.1,0.62-0.24,1.1-0.68,1.49
					c0.49-0.13,0.97-0.26,1.46-0.39c0.11,0.09,0.22,0.19,0.33,0.28c-0.57-1.84-3.47-1.05-2.89,0.8c0.29,0.94,0.86,1.47,1.77,1.82
					c0.51,0.2,1.08-0.05,1.46-0.39c1.31-1.14,1.72-2.74,1.45-4.41c-0.13-0.79-1.13-1.25-1.85-1.05c-1.54,0.44-3.08,1.29-3.24,3.06
					c-0.16,1.7,1.14,2.88,2.79,2.87c1.4-0.01,2.98-0.48,3.93-1.56c1.1-1.26,0.97-3.06-0.1-4.29c-2.32-2.66-6.02-0.89-7.24,1.88
					c-0.66,1.49-0.4,3.35,1.38,3.86c0.79,0.22,1.66,0.03,2.45-0.09c1.07-0.16,2.12-0.39,3.17-0.67
					C661.65,515.02,660.86,512.12,658.99,512.63L658.99,512.63z"/>
			</g>
		</g>
		<g class="st16">
			<g>
				<path class="st17" d="M675.35,533.03c0.01-0.06,0.01-0.12,0.02-0.18c-0.07,0.25-0.14,0.5-0.2,0.76c0,0.01,0,0.02,0.01,0.03
					c-0.22,0.13-0.44,0.26-0.66,0.39c-0.48-0.28-0.63-0.32-0.44-0.13c0.1,0.16,0.2,0.32,0.3,0.48c0.2,0.33,0.41,0.65,0.61,0.98
					c0.43,0.7,0.87,1.4,1.3,2.1c1.02,1.64,3.61,0.13,2.59-1.51c-0.46-0.75-0.93-1.5-1.39-2.24c-0.43-0.7-0.83-1.51-1.45-2.07
					c-1.42-1.29-3.49-0.46-3.69,1.4c-0.09,0.81,0.75,1.5,1.5,1.5C674.74,534.53,675.26,533.84,675.35,533.03L675.35,533.03z"/>
			</g>
		</g>
		<g class="st16">
			<g>
				<path class="st17" d="M688.72,465.71c0.58-2.21,1.25-4.39,2.05-6.52c0.69-1.82,1.44-4.44,3.43-5.23
					c-0.62-0.35-1.23-0.7-1.85-1.05c0.24,0.77-4.06,10.46-3.87,10.49c0.35,0.62,0.7,1.23,1.05,1.85c0.72-2.68,1.9-5.09,3.64-7.25
					c-0.84-0.49-1.67-0.97-2.51-1.46c-0.37,1.71-1,3.17-2,4.6c-1.1,1.59,1.5,3.09,2.59,1.51c1.13-1.64,1.88-3.38,2.3-5.32
					c0.29-1.33-1.49-2.72-2.51-1.46c-2.08,2.57-3.55,5.37-4.41,8.57c-0.19,0.72,0.24,1.71,1.05,1.85c2.94,0.5,3.67-2.39,4.55-4.63
					c0.71-1.8,1.42-3.6,2.13-5.4c0.55-1.4,1.34-2.66,0.88-4.15c-0.22-0.71-1.07-1.35-1.85-1.05c-5,1.98-6.36,9.24-7.58,13.84
					C685.33,466.78,688.22,467.57,688.72,465.71L688.72,465.71z"/>
			</g>
		</g>
		<g class="st16">
			<g>
				<path class="st17" d="M725.37,424.5c0.02-0.09,0.38-0.35,0.45-0.38c0.12-0.05-0.01,0.04-0.1,0c0,0,0.29-0.03,0.19,0.09
					c0.54-0.65-0.53,0.84,0.07-0.06c0.13-0.19,0.15-0.61,0.28-0.84c0.14-0.26,0.29-0.49,0.52-0.68c0.08-0.07-0.01-0.06-0.01,0.05
					c-0.01-0.2-0.23-0.7,0.28-0.67c0.3,0.02,0.32,0.46,0.33,0.64c0.04,1.5-0.71-0.48-1.01-0.02c0.01-0.01-0.09,0.94-0.11,0.92
					c-0.04-0.03,0.15-0.14,0.17-0.15c0.28-0.06,0.22,0.1,0.06-0.05c-0.04-0.04,0.04,0.24,0.01,0.22c-0.05-0.04,0.33-0.04,0.36-0.04
					c-0.31-0.09,0.09-0.02,0.02,0.21c-0.09,0.32-0.32,0.28-0.64,0.24c-0.8-0.11-1.5,0.77-1.5,1.5c0,0.9,0.69,1.39,1.5,1.5
					c2.15,0.28,3.94-1.74,3.57-3.82c-0.35-1.96-2.32-3.11-4.2-2.46c-1.92,0.67-2.78,3.01-1.37,4.61c1.42,1.61,4.01,1.32,4.82-0.73
					c0.69-1.75,0.25-4.52-2.14-4.36c-2.02,0.14-3.32,2.64-1.69,4.13c1.4,1.29,3.93,0.6,4.39-1.27c0.53-2.14-1.78-3.98-3.77-3.3
					c-2.15,0.74-3.62,4.03-2.42,6.04c1.1,1.83,4.33,1.76,4.85-0.51C728.7,423.42,725.81,422.62,725.37,424.5L725.37,424.5z"/>
			</g>
		</g>
		<g class="st16">
			<g>
				<path class="st17" d="M816.84,461.89c0.27-2.12,1.74-6.44,4.6-5.17c0.92,0.41,1.78,1.43,2.18,2.33c0.91,2-0.53,2.78-2.33,3.01
					c-0.78,0.1-3.21-0.08-3.11-1.42c0.06-0.82,2.38-1.69,3.04-1.57c1.12,0.21,1.5,1.43,0.74,2.23c-0.43,0.45-1.44,1.08-1.44-0.14
					c0-0.4,0.52-1.05,0.75-1.37c1.03-1.44,0.43-0.4,0.08-0.17c-0.5,0-1.01,0-1.51,0c0.07,0.12,0.14,0.24,0.2,0.36
					c-0.39,1.88,2.5,2.69,2.89,0.8c0.33-1.58-0.18-2.9-1.58-3.74c-0.43-0.26-1.08-0.29-1.51,0c-2.04,1.38-1.84,4.76,0.65,5.62
					c2.93,1.01,5.33-2.68,3.98-5.18c-1.93-3.57-5.48-0.26-6.54,2.12c-1.26,2.84,0.82,6,4.06,5.2c3-0.74,4.65-5.14,2.39-7.46
					c-2.23-2.28-6.72-1.1-8.58,1.15c-2.03,2.46,0.73,5.79,3.19,6.46c2.82,0.77,7.67-0.72,8.12-4.06c0.45-3.3-3.26-7.34-6.53-7.44
					c-4.35-0.13-6.29,4.9-6.74,8.44C813.59,463.8,816.6,463.79,816.84,461.89L816.84,461.89z"/>
			</g>
		</g>
		<g class="st16">
			<g>
				<path class="st17" d="M864.2,504.56c-0.46-0.26-1.36-0.89-1.03-1.54c0.15-0.29,0.58-0.2,0.53,0.18
					c-0.03,0.22-0.47,0.3-0.64,0.28c0.11,0.02-0.3-0.1-0.29-0.1c-0.02-0.02-0.04-0.05-0.05-0.07c-0.03-0.06-0.05-0.02-0.07,0.12
					c-0.26,0.05-1.29,0.8-1.16-0.3c-0.1,0.81,0.76,1.5,1.5,1.5c0.89,0,1.4-0.69,1.5-1.5c0.19-1.56-1.54-2.62-2.93-2.31
					c-1.49,0.33-2.12,1.95-1.72,3.31c0.82,2.84,4.97,3.11,6.42,0.67c1.55-2.62-1.51-6.07-4.27-4.66c-1.24,0.63-1.94,2.06-1.83,3.43
					c0.12,1.58,1.2,2.84,2.54,3.6C864.37,508.1,865.89,505.51,864.2,504.56L864.2,504.56z"/>
			</g>
		</g>
		<g class="st16">
			<g>
				<path class="st17" d="M883.54,477.58c1.81,0.4,3.62,0.88,5.44,1.21c1.14,0.21,2.38,0.06,2.92-1.11
					c1.25-2.73-3.87-4.55-5.68-5.16c-1.92-0.65-4.95-0.01-4.52,2.6c0.47,2.9,5.02,2.54,7.12,2.74c1.92,0.19,1.91-2.82,0-3
					c-1.06-0.1-2.12-0.18-3.18-0.31c-0.21-0.02-0.76-0.2-0.94-0.15c-0.38-0.16-0.49,0.12-0.35,0.86c0.11-0.02,0.22-0.03,0.34-0.02
					c0.7,0.31,1.5,0.48,2.22,0.82c0.64,0.31,2.08,0.79,2.38,1.47c-0.05-0.39-0.1-0.77-0.15-1.16c0.76-0.32,0.88-0.5,0.37-0.54
					c-0.27-0.06-0.54-0.12-0.82-0.18c-0.45-0.1-0.91-0.2-1.36-0.3c-1-0.22-1.99-0.44-2.99-0.67
					C882.45,474.26,881.65,477.16,883.54,477.58L883.54,477.58z"/>
			</g>
		</g>
		<g class="st16">
			<g>
				<path class="st17" d="M867.6,321.26c-1.8-1.02-3.3-2.7-3.72-4.78c-0.03-0.16-0.06-0.33-0.1-0.49c0.1-0.57,0.01-0.57-0.26-0.01
					c0.17,0.5,0.72,1.03,0.97,1.52c0.44,0.87,1.18,2.55,0.82,3.51c0.23-0.3,0.46-0.6,0.69-0.9c-0.42,0.29-1.34-0.85-1.31-1.3
					c0.06-1.12,0.88-0.44,1.19,0.12c0.17,0.32,0.79,1.5,0.66,1.83c-0.24,0.59-0.59-0.29-0.68-0.55c-0.18-0.47-0.21-0.91-0.12-1.42
					c-0.35,0.35-0.7,0.7-1.05,1.05c-0.03,0-0.05,0-0.08-0.01c0.45,1.88,3.35,1.08,2.89-0.8c-0.4-1.66-1.98-2.54-3.61-2.09
					c-0.47,0.13-0.95,0.55-1.05,1.05c-0.4,2.08,0.16,4.4,2,5.66c1.64,1.12,3.73,0.64,4.48-1.28c1.29-3.29-2.65-9.54-6.32-6.44
					c-1.53,1.29-1.73,3.46-0.65,5.1c0.98,1.5,3.5,2.91,5.16,1.66c1.78-1.35,0.56-4.57-0.19-6.2c-0.78-1.71-2.25-4.15-4.49-3.66
					c-2.47,0.54-2.23,3.54-1.57,5.37c0.87,2.42,2.58,4.37,4.81,5.63C867.77,324.8,869.29,322.21,867.6,321.26L867.6,321.26z"/>
			</g>
		</g>
		<g class="st16">
			<g>
				<path class="st17" d="M933.16,355.44c0.24-1.12,0.64-2.45,1.71-3.06c0.78-0.44,2.06-0.41,2.17,0.69
					c0.11,1.13-0.94,1.74-1.93,1.76c-0.29,0.01-0.54-0.09-0.82-0.1c-0.11-0.04-0.22-0.07-0.34-0.11c0.14,0.47,0.25,0.55,0.33,0.23
					c0.11-0.07,0.41-0.63,0.48-0.8c0.07-0.05,0.14-0.1,0.21-0.15c-0.33-0.87-0.08-0.66,0.76,0.61c1.87-0.49,1.07-3.38-0.8-2.89
					c-1.46,0.38-1.99,2.1-1.21,3.35c0.82,1.33,2.68,1.3,3.58,0.09c0.96-1.29,0.51-3.1-0.87-3.85c-1.61-0.87-3.45,0.06-4.38,1.46
					c-0.89,1.35-1.47,3.31,0.12,4.39c1.34,0.91,3.38,0.98,4.86,0.41c3.04-1.17,4.28-5.66,1.28-7.64c-1.46-0.97-3.46-0.91-4.96-0.04
					c-1.74,1.01-2.68,2.95-3.09,4.85C929.86,356.53,932.76,357.33,933.16,355.44L933.16,355.44z"/>
			</g>
		</g>
		<g class="st16">
			<g>
				<path class="st17" d="M991.15,364.52c-0.42-0.46-1.65-1.84-0.88-2.5c0.56-0.48,1.19,0.93,1.22,1.35
					c0.02,0.21,0.01,0.67-0.24,0.77c-0.13,0.05-0.35-0.12-0.42-0.09c0,0,0.12,0.25,0.03,0.31c-0.08,0.05,0.16-0.08,0.02,0
					c0.05-0.03-0.35-0.16-0.25-0.15c0.11,0.01-0.3,0.18,0.01,0c-1.65,1-0.14,3.59,1.51,2.59c2.27-1.37,1.77-5.34-1.16-5.42
					c-2.7-0.08-4.23,3.33-1.98,5.05c2.2,1.69,5.17,0.17,5.45-2.48c0.27-2.55-2.06-5.72-4.88-4.91c-1.46,0.42-2.43,1.9-2.5,3.38
					c-0.08,1.66,0.86,3.07,1.94,4.24C990.34,368.06,992.46,365.94,991.15,364.52L991.15,364.52z"/>
			</g>
		</g>
		<g class="st16">
			<g>
				<path class="st17" d="M1101.92,424.61c-1.58,4.17,2.15,8.66,6.55,7.61c4.35-1.04,5.84-6.63,2.5-9.67
					c-1.76-1.6-4.49-1.82-6.72-1.31c-2.44,0.56-2.69,3.49-2.09,5.55c0.6,2.04,2.81,3.69,4.95,2.81c1.74-0.72,2.44-3.01,1.53-4.64
					c-0.56-1-1.84-1.73-2.99-1.34c-1.09,0.37-1.67,1.7-1.14,2.73c1.2,2.35,4.63-0.11,2.79-2.09c-1.32-1.42-3.44,0.71-2.12,2.12
					c0.04,0.04,0.08,0.09,0.13,0.13c-0.13-0.49-0.26-0.97-0.39-1.46c0.07-0.1,0.13-0.2,0.2-0.31c0.35-0.15,0.71-0.29,1.06-0.44
					c-0.07,0-0.13,0-0.2,0.01c0.43,0.25,0.86,0.5,1.3,0.74c0.02,0.08,0.05,0.15,0.07,0.23c-0.15,0.35-0.29,0.71-0.44,1.06
					c0.07-0.08,0.14-0.15,0.21-0.23c-0.35,0.15-0.71,0.29-1.06,0.44c-0.03-0.24-0.03-0.21,0,0.09c-0.03,0.06-0.05,0.12-0.08,0.18
					c-0.5-0.1-0.72-0.37-0.9-0.83c-0.15-0.39-0.26-1.03-0.13-1.45c0.17-0.54,0.24-0.49,0.87-0.54c1.87-0.15,3.92,0.5,4.01,2.68
					c0.06,1.66-1.47,2.89-3.1,2.64c-1.88-0.29-2.52-2.37-1.91-3.95C1105.49,423.6,1102.59,422.82,1101.92,424.61L1101.92,424.61z"/>
			</g>
		</g>
		<g class="st16">
			<g>
				<path class="st17" d="M1136.78,417.33c0.01-0.51,0.23-1.05,0.61-1.34c-0.61-0.08-1.21-0.16-1.82-0.23
					c0.14,0.11,0.27,0.22,0.39,0.35c-0.1-0.11,0.15,0.21,0.07,0.07c0.1,0.18,0.1,0.15,0.06-0.01c0.08-0.12,0.07-0.11-0.02,0.05
					c0.02-0.05,0.05-0.08,0.09-0.11c0.18,0,0.37-0.14,0.6-0.04c0.15,0.05,0.26,0.15,0.34,0.3c-0.07-0.13-0.08-0.14-0.03-0.05
					c0.22,0.67-0.45,1.33-1.14,1.13c-0.63-0.17-0.79-0.84-0.24-1.54c-0.5,0.63-0.62,1.5,0,2.12c0.52,0.52,1.61,0.64,2.12,0
					c0.57-0.72,0.75-1.55,0.27-2.39c-0.36-0.64-1.1-1.09-1.83-1.12c-1.8-0.08-2.63,2.02-1.71,3.4c1,1.49,3.13,1.33,4.07-0.15
					c0.89-1.4,0.33-3.17-0.92-4.15c-0.48-0.38-1.25-0.66-1.82-0.23c-1.29,0.95-2.07,2.3-2.1,3.93
					C1133.74,419.26,1136.74,419.26,1136.78,417.33L1136.78,417.33z"/>
			</g>
		</g>
		<g class="st16">
			<g>
				<path class="st17" d="M1025.63,322.87c-2.52,0.07-6.15,0.06-8.26-1.57c-2.07-1.6,0.18-3,1.99-2.97c1.37,0.03,3.1,0.41,4.14,1.36
					c0.47,0.43,1.17,1.3,0.81,1.95c-0.37,0.66-1.01,0.17-1.72-0.01c-0.55-0.14-4.02-0.96-2.33-1.29c0.75-0.14,0.93,0.48,1.68-0.12
					c0.72-0.57,0.32-0.49-0.29-0.82c-0.79-0.42-1.51-0.74-2.42-0.67c-1.91,0.15-1.93,3.15,0,3c1.69-0.13,3.16,2.31,4.87,0.44
					c1.59-1.74-0.03-3.93-1.87-4.5c-1.75-0.53-4.36-0.67-5.5,1.08c-1.27,1.96,0.2,3.93,1.99,4.81c1.2,0.59,2.58,0.83,3.87,1.16
					c1.07,0.27,2.19,0.63,3.25,0.1c2.01-1.02,1.87-3.94,0.98-5.65c-2.1-4.06-10.13-5.72-12.77-1.38c-1.37,2.25-0.27,4.75,1.8,6.09
					c2.77,1.78,6.57,2.07,9.78,1.98C1027.55,325.82,1027.56,322.82,1025.63,322.87L1025.63,322.87z"/>
			</g>
		</g>
		<g class="st16">
			<g>
				<path class="st17" d="M902.85,264.61c-1.36-0.49,2.05-2.56,2.32-2.71c1.27-0.7,2.37-1.49,3.13-2.74
					c1.01-1.67-1.51-3.09-2.59-1.51c-1.62,2.36-2.71,5-3.22,7.82c0.91-0.12,1.83-0.24,2.74-0.36c-1.01-1.98-0.82-4.43,0.57-6.19
					c0.97-1.22-0.27-3.37-1.82-2.36c-2.63,1.72-3.85,4.73-3.14,7.8c0.3,1.3,2.09,1.41,2.74,0.36c0.47-0.75,0.7-1.53,0.83-2.4
					c0.09-0.64,0.08-2.4,1.06-2.3c-0.43-0.75-0.86-1.5-1.3-2.26c-0.77,1.41-1.54,2.82-2.31,4.24c-0.92,1.7,1.67,3.21,2.59,1.51
					c0.77-1.41,1.54-2.82,2.31-4.24c0.58-1.07-0.17-2.15-1.3-2.26c-1.36-0.14-2.51,0.64-3.19,1.79c-0.81,1.37-0.47,3.07-1.29,4.4
					c0.91,0.12,1.83,0.24,2.74,0.36c-0.4-1.71,0.29-3.45,1.76-4.42c-0.61-0.79-1.21-1.57-1.82-2.36c-2.27,2.87-2.71,6.54-1.04,9.83
					c0.56,1.1,2.51,0.91,2.74-0.36c0.47-2.6,1.42-4.93,2.92-7.1c-0.86-0.5-1.73-1.01-2.59-1.51c-1.33,2.19-4.5,2.31-5.67,4.81
					c-0.94,2-0.06,4.3,2.01,5.05C903.87,268.16,904.65,265.26,902.85,264.61L902.85,264.61z"/>
			</g>
		</g>
		<g class="st16">
			<g>
				<path class="st17" d="M898.98,243.61c0.14-0.06-0.06-0.04-0.04-0.09c-0.03,0.08,0.12-0.06,0.1-0.07
					c0.07,0.01,0.35,0.21,0.48,0.31c0.36,0.28,0.78,0.66,0.96,1.1c0.04,0.09-0.07,0.31-0.08,0.3c0.13-0.21,0.34-0.24,0.64-0.09
					c0.31,0.19,0.31,0.49,0.01,0.91c1.31-1.42-0.81-3.54-2.12-2.12c-1.82,1.97,0.6,5.11,2.98,3.84c2.44-1.29,1.63-4.36-0.06-5.88
					c-0.92-0.83-2.05-1.54-3.34-1.3c-1.14,0.21-2.13,1.09-2.46,2.21c-0.33,1.13,0.05,2.32,0.94,3.07c1.03,0.87,2.31,0.93,3.5,0.41
					c0.74-0.32,0.91-1.41,0.54-2.05C900.59,243.38,899.73,243.29,898.98,243.61L898.98,243.61z"/>
			</g>
		</g>
		<g class="st16">
			<g>
				<path class="st17" d="M1106.9,425.27c0,0.76,0,1.51,0,2.27c0,0.78,0.69,1.54,1.5,1.5c0.81-0.04,1.5-0.66,1.5-1.5
					c0-0.76,0-1.51,0-2.27c0-0.78-0.69-1.54-1.5-1.5C1107.59,423.8,1106.9,424.43,1106.9,425.27L1106.9,425.27z"/>
			</g>
		</g>
		<g class="st16">
			<g>
				<path class="st18" d="M626.38,535.37c-1.12,0.53-2.74,0.16-3.88-0.19c-1.09-0.34-2.29-1.25-0.75-2.03
					c0.71-0.36,1.65-0.44,2.41-0.16c0.25,0.09,0.75,0.3,0.87,0.58c0.11,0.28-0.66,0.35-0.86,0.07c0,0.5,0,1.01,0,1.51
					c0.31-0.53,1.16-0.55,0.91,0.22c0.23-0.3,0.46-0.6,0.69-0.9c-0.2,0.14-1.45-0.96-1.54-1.04c-0.5-0.47-1.03-1-1.37-1.61
					c0.05,0.39,0.1,0.77,0.15,1.16c-0.17,0.16-0.35,0.32-0.52,0.48c-1.08,1.61,1.52,3.11,2.59,1.51c1.67-2.49-0.95-5.8-3.74-4.36
					c-3.15,1.63,0.51,5.1,2.3,6.14c1.02,0.59,2.42,1.06,3.51,0.4c1.14-0.69,1.19-2.22,0.7-3.33c-1.21-2.73-4.84-2.67-6.27-0.19
					c-0.25,0.43-0.3,1.09,0,1.51c1.53,2.15,6.08,2.29,6.59-0.87c0.5-3.15-3.4-4.73-5.91-4.38c-2.73,0.39-5.53,3.01-3.85,5.89
					c1.67,2.86,6.73,3.47,9.49,2.17C629.64,537.14,628.12,534.55,626.38,535.37L626.38,535.37z"/>
			</g>
		</g>
		<g class="st16">
			<g>
				<path class="st18" d="M646.71,497.84c-4.04-1.99-4.92-3.74-2.64-5.26c0.32-0.28,0.64-0.55,0.96-0.83
					c1.12-1.04,2.12-2.13,3.14-3.27c2.63-2.92,5.5-4.06,9.2-5.06c-0.56-0.23-1.13-0.46-1.69-0.69c2,3.21-1.26,4.56,0.2,7.08
					c1.05,1.83,4.5,2.47,6.02,3.72c0.1-0.79,0.2-1.57,0.3-2.36c-2.47,1.8-5.6,2.78-8.48,3.78c-1.22,0.42-2.44,0.81-3.68,1.17
					c-0.5,0.14-0.99,0.28-1.49,0.42c-2.15,0.97-2.24,0.21-0.29-2.26c-0.61-0.79-1.21-1.57-1.82-2.36c-0.78,0.78-1.87,1.59-2.49,2.5
					c-1.55,0.77-1.73,1.3-0.54,1.57c0.51,0.5,0.94,0.43,1.29-0.19c1.74-0.66,3.8-3.42,5.21-4.63c2.34-2,5.77-3.07,7.52-5.61
					c0.95-1.38-0.83-2.59-2.05-2.05c-4.32,1.89-11.15,4.94-9.87,10.69c0.23,1.02,1.38,1.29,2.2,0.9c3.43-1.62,6.39-3.68,9.14-6.29
					c-0.79-0.61-1.57-1.21-2.36-1.82c-2.47,3.58-6.63,5.08-9,8.65c-0.7,1.06,0.47,2.64,1.69,2.2c3.76-1.34,7.48-2.78,11.17-4.31
					c0.8-0.33,1.53-1.33,0.9-2.2c-1-1.36-1.27-1.57-2.84-2.2c-0.13,0.98-0.27,1.96-0.4,2.95c1.9,0.14,0.15-0.86-0.58-1.41
					c-1.54-1.16-3.04,1.44-1.51,2.59c1.86,1.41,5.54,2.55,6.42-0.75c0.79-2.99-2.23-3.28-4.32-3.43c-1.83-0.13-1.84,2.36-0.4,2.95
					c0.35,0.27,0.7,0.55,1.05,0.82c0.3-0.73,0.6-1.47,0.9-2.2c-3.69,1.54-7.41,2.97-11.17,4.31c0.56,0.73,1.13,1.47,1.69,2.2
					c2.27-3.41,6.57-5.12,9-8.65c0.99-1.44-1.16-2.96-2.36-1.82c-2.57,2.44-5.33,4.31-8.53,5.82c0.73,0.3,1.47,0.6,2.2,0.9
					c-0.78-3.52,6.14-6.28,8.49-7.3c-0.68-0.68-1.37-1.37-2.05-2.05c-0.85,1.24-2.52,1.6-3.75,2.37c-1.19,0.75-2.25,1.72-3.3,2.64
					c-1.82,1.58-6.56,4.43-6.95,6.96c-0.18,1.18,0.47,2.45,1.71,2.68c2.32,0.42,4.74-3.38,6.01-4.65c1.18-1.19-0.35-3.27-1.82-2.36
					c-2.54,1.58-6.15,6.57-1.42,8.21c2.43,0.84,6.22-1.06,8.46-1.81c3.28-1.1,7.1-2.28,9.92-4.33c0.7-0.51,1.12-1.69,0.3-2.36
					c-1.08-0.88-2.13-1.69-3.41-2.28c-2.61-1.21-1.12-0.09-1.41-2c-0.13-0.84,0.4-2.01,0.27-2.97c-0.17-1.17-0.59-1.95-1.2-2.93
					c-0.35-0.57-1.04-0.86-1.69-0.69c-3.93,1.05-7.27,2.33-10.1,5.34c-2.29,2.44-5.86,4.89-7.3,7.95c-3.08,6.56,4.23,8.83,9.05,6.62
					C649.98,499.63,648.46,497.04,646.71,497.84L646.71,497.84z"/>
			</g>
		</g>
		<g class="st16">
			<g>
				<path class="st18" d="M861.41,434.47c-1.46,0.08-3.57-0.2-3.88-1.98c-0.3-1.74,1.88-2.1,3.03-1.42
					c1.23,0.74,2.27,3.44-0.08,3.34c-0.63-0.03-1.4-0.67-1.09-1.37c0.11-0.24,0.28-0.31,0.52-0.41c0.09-0.01,0.18-0.01,0.27-0.02
					c0.05-0.46,0.15-0.26,0.28,0.59c1.9-0.26,1.09-3.15-0.8-2.89c-2.1,0.29-2.76,2.99-1.25,4.36c1.53,1.39,3.99,0.59,4.67-1.3
					c0.69-1.94-0.97-3.73-2.9-3.77c-1.93-0.04-3.69,1.43-3.83,3.38c-0.34,4.95,7,5.96,8.44,1.39c1.39-4.4-4.37-8.22-8.1-5.97
					c-2.02,1.22-2.72,3.7-1.73,5.81c1.16,2.47,3.88,3.38,6.45,3.24C863.34,437.36,863.35,434.36,861.41,434.47L861.41,434.47z"/>
			</g>
		</g>
		<g class="st16">
			<g>
				<path class="st18" d="M1040.87,452.59c2.96-6.45,11.79-4.95,17.1-8.27c2.73-1.71,4.78-3.92,8.04-4.71
					c1.92-0.47,4.01-0.46,5.97-0.72c0.8-0.11,2.92-0.83,3.53-0.65c0.77,1.05,1.55,2.09,2.32,3.14c-0.83,0.44-1.63,0.93-2.41,1.46
					c-1.16,0.77-2.21,1.69-3.36,2.48c-2.92,2.01-6.17,3.22-9.61,4.01c-3.93,0.91-7.97,1.42-11.98,1.89
					c-3.38,0.39-8.09,1.51-11.46,0.84c0.37,0.48,0.73,0.96,1.1,1.45c-0.13-2.8,43.85-7.36,38.92-14.77
					c-2.47-3.72-14.45,1.33-17.33,2.32c-4.13,1.43-7.68,2.65-11.99,3.45c-2.7,0.5-4.53,1.14-6.12,3.45
					c-0.68,0.98,0.24,2.22,1.3,2.26c7.99,0.29,15.98-3.97,23.63-5.93c1.2-0.27,2.39-0.61,3.56-1.01c-1.18,0.73-2.43,1.31-3.74,1.74
					c-1.69,0.61-3.45,1.07-5.17,1.61c-4.71,1.46-12.01,5.19-16.9,3.01c-1.75-0.78-3.28,1.81-1.51,2.59
					c5.79,2.58,11.83-0.41,17.49-2.17c3.25-1.01,12.07-2.13,12.52-6.95c0.39-4.1-3.86-2.54-6.14-1.93c-3.78,1-7.45,1.84-11.13,3.19
					c-4.17,1.53-8.05,3.02-12.6,2.86c0.43,0.75,0.86,1.5,1.3,2.26c1.91-2.78,7.24-2.18,10.23-3.19c2.91-0.98,5.69-2.25,8.63-3.16
					c2.83-0.88,6.92-1,9.54-2.3c1.79-0.88-3.25,0.74-3.11,0.69c-1.72,0.66-3.44,1.31-5.18,1.91c-6.28,2.17-12.65,3.16-19.1,4.61
					c-2.78,0.62-10.26,1.49-10.08,5.48c0.03,0.62,0.44,1.31,1.1,1.45c4.87,0.98,11.08-0.54,15.97-1.2
					c4.95-0.67,10.02-1.36,14.66-3.29c4.01-1.66,8.04-4.49,11.49-7.11c1.81-1.38,3.2-3.41,2.05-5.72c-1.32-2.63-4.38-2.79-6.89-2.42
					c-4.25,0.62-9.7,0.66-13.62,2.68c-2.21,1.14-3.86,3.08-6.04,4.25c-2.84,1.53-6.05,1.71-9.1,2.57c-3.68,1.03-6.82,2.81-8.45,6.38
					C1037.48,452.82,1040.07,454.34,1040.87,452.59L1040.87,452.59z"/>
			</g>
		</g>
		<g class="st16">
			<g>
				<path class="st18" d="M902.84,353.64c-0.11,1.17-0.67,1.96-1.89,1.92c-0.24-0.01-1.21-0.12-1.45-0.29
					c-0.11-0.04-0.21-0.08-0.32-0.12c0.36-0.04,0.66-0.2,0.87-0.49c0.82-0.54,1.5-1.21,2.43-1.59c0.91-0.37,2.35-0.62,1.96,0.83
					c-0.22,0.81-0.78,1.56-1.42,2.08c-0.81,0.66-1.65,0.72-2.56,1.08c-0.41-0.13-0.54-0.07-0.38,0.18c0.08,0.31,0.15,0.22,0.2-0.25
					c0.36-0.31,0.6-0.8,0.97-1.13c0.34-0.29,0.71-0.54,1.1-0.75c0.24-0.14,0.5-0.26,0.76-0.35c0.56-0.11,0.63-0.16,0.2-0.17
					c-0.23-0.3-0.46-0.6-0.69-0.9c-0.08-0.27-0.84,0.48-1.05,0.6c-0.5,0.28-1.03,0.46-1.6,0.53c-1.9,0.21-1.92,3.22,0,3
					c2.03-0.23,4.41-1.16,5.4-3.11c1.15-2.24-1.14-3.47-3.05-2.85c-2,0.64-4.28,2.27-4.95,4.35c-0.74,2.29,0.79,3.95,3.09,3.84
					c2.17-0.1,4.25-1.24,5.59-2.93c1.27-1.59,2.17-4.12,0.84-5.94c-1.32-1.82-3.91-1.62-5.75-0.81c-1.84,0.82-4.5,2.55-4.78,4.72
					c-0.35,2.69,3.01,3.54,5.09,3.46c2.75-0.11,4.16-2.43,4.4-4.93C906.02,351.72,903.02,351.74,902.84,353.64L902.84,353.64z"/>
			</g>
		</g>
		<g class="st16">
			<g>
				<path class="st18" d="M873.29,296.32c-0.56,0.11-4.93,1.37-5.21,1.05c-1.05-1.21,1.74-1.88,2.49-2.34
					c1.8-1.11,3.06-2.72,5.5-2.45c0.61,0.07,4.17,1,4.44,1.32c1.51,1.78-0.85,2.09-2.24,2.42c-1.86,0.44-4.46,1.4-6.32,0.83
					c-2.87-0.88,0.24-1.63,1.74-2.12c1.99-0.65,4.89-1.27,6.86-0.13c-0.25-0.43-0.5-0.86-0.74-1.3c-0.13-1-8.55,1.37-9.47,1.79
					c-1.76,0.79-0.23,3.38,1.51,2.59c2.98-1.35,6.45-0.36,9.25-1.69c1.09-0.52,1.93-1.4,1.7-2.68c-0.63-3.61-7.65-2.21-9.91-1.47
					c-2.12,0.69-8.15,3.03-5.4,6.32c2.89,3.46,9.93,1.29,13.29,0.34c2.6-0.73,6.91-3.66,4.09-6.75c-1.31-1.43-4.38-1.15-6.05-1.65
					c-2.19-0.66-3.72-1.3-5.96-0.41c-2.18,0.87-4.58,2.62-6.57,3.88c-1.27,0.8-2.44,2.03-2.36,3.67c0.24,4.91,7.62,2.19,10.15,1.68
					C875.98,298.83,875.18,295.94,873.29,296.32L873.29,296.32z"/>
			</g>
		</g>
		<g>
			<g>
				<path class="st19" d="M876.37,541.73c9.46-4.34,17.02-13.66,22.25-22.46c2.65-4.46,4.74-9.49,8.46-13.21
					c4.12-4.12,10.34-6.01,15.56-8.35c1.76-0.79,0.24-3.37-1.51-2.59c-4.76,2.13-10.15,3.87-14.29,7.12
					c-3.46,2.72-5.79,6.55-7.91,10.34c-5.72,10.21-13.08,21.52-24.07,26.56C873.11,539.94,874.63,542.53,876.37,541.73
					L876.37,541.73z"/>
			</g>
		</g>
		<g>
			<g>
				<path class="st19" d="M1122.76,476.08c3.05-1.05,5.28-1.7,7.6-4.09c2.76-2.85,4.49-6.48,5.95-10.12
					c1.88-4.72,3.51-9.54,5.24-14.31c2.19-6.02,4.01-12.4,11.2-13.66c1.9-0.33,1.09-3.23-0.8-2.89c-8.9,1.57-11.19,9.95-13.9,17.42
					c-1.82,5-3.4,10.2-5.66,15.02c-2.39,5.11-5.17,7.92-10.43,9.74C1120.15,473.82,1120.93,476.72,1122.76,476.08L1122.76,476.08z"
					/>
			</g>
		</g>
		<g>
			<g>
				<path class="st19" d="M606.56,582.42c5.54-2.73,7.31-8.61,10.96-13.19c4.04-5.06,4.93-11.83,12-13.56
					c6.3-1.55,13.79,0.54,19.82,2.7c6.15,2.2,11.68,5.6,18.13,6.96c1.88,0.4,2.69-2.5,0.8-2.89c-12.85-2.7-24.09-12.14-37.81-9.97
					c-5.66,0.89-9.13,3.47-11.48,8.66c-1.53,3.37-3.78,5.88-5.81,8.9c-2.47,3.68-3.88,7.72-8.14,9.82
					C603.32,580.68,604.84,583.27,606.56,582.42L606.56,582.42z"/>
			</g>
		</g>
		<g>
			<g>
				<path class="st19" d="M1026.05,293.91c2.25,1.65,4.57,2.44,7.21,3.28c3.81,1.21,7.19,2.85,10.67,4.82
					c6.73,3.81,12.9,7.35,18.3,12.99c1.34,1.4,3.46-0.73,2.12-2.12c-5.25-5.47-10.9-8.91-17.45-12.63c-2.74-1.56-5.46-3.2-8.38-4.42
					c-3.7-1.55-7.65-2.07-10.96-4.5C1026.01,290.18,1024.51,292.78,1026.05,293.91L1026.05,293.91z"/>
			</g>
		</g>
		<g>
			<g>
				<path class="st19" d="M1143.38,381.22c1.42,5.51,2.85,9.07,7.68,12.19c5.36,3.46,11.11,6.21,17.04,8.52
					c1.8,0.7,2.58-2.2,0.8-2.89c-4.64-1.81-9.13-3.92-13.43-6.45c-2.99-1.75-5.84-3.27-7.5-6.62c-0.84-1.69-1.24-3.74-1.7-5.55
					C1145.79,378.55,1142.89,379.35,1143.38,381.22L1143.38,381.22z"/>
			</g>
		</g>
		<g>
			<g>
				<path class="st19" d="M806.42,307.44c2.58-2.36,4.38-5.24,6.17-8.22c2-3.31,4.72-6.12,6.6-9.48c0.94-1.69-1.65-3.2-2.59-1.51
					c-1.69,3.03-4.23,5.59-6.05,8.57c-1.86,3.05-3.58,6.08-6.24,8.52C802.87,306.62,805,308.74,806.42,307.44L806.42,307.44z"/>
			</g>
		</g>
	</g>
</g>
<g id="Text">
	<g id="Fords_1_">
		<path class="st20" d="M638.94,292.08l7.22-7.22l1.45-1.45c4.18-4.18,8.05-4.47,11.63-0.89c2.24,2.24,3.28,4.98,3.13,8.22
			c-0.15,3.25-1.47,6.12-3.97,8.61l-1.45,1.45l-10.07,10.07l15.94,37.64c10.96,26.03,9.06,46.42-5.71,61.19
			c-7.72,7.72-16.6,11.63-26.65,11.72c-10.05,0.09-18.86-3.64-26.43-11.21c-5.89-5.89-10.02-13.02-12.39-21.39
			c-2.37-8.37-2.79-17.2-1.26-26.48c1.34-7.83,4.11-15.75,8.31-23.74c4.2-8,9.26-14.96,15.19-20.89l7.66-8.11l2.4-2.52l-16.28-37.76
			l-0.95-2.18c-1.46-3.17-1.9-5.8-1.34-7.89c0.56-2.09,2.41-4.7,5.54-7.83l28.69-28.69c5.18-5.18,9.6-5.95,13.26-2.29
			c2.16,2.16,3.16,4.88,2.99,8.14c-0.17,3.26-1.48,6.13-3.94,8.59l-1.51,1.51l-23.88,23.88L638.94,292.08z M631.89,325.86
			l-3.02,3.02c-11.04,11.04-17.34,22.37-18.91,34.01c-1.75,13.01,0.91,23.06,8,30.15c3.8,3.8,8.16,5.83,13.06,6.07
			c4.9,0.24,9.09-1.37,12.56-4.84c8.05-8.05,8.28-21.07,0.67-39.04L631.89,325.86z"/>
		<path class="st20" d="M687.55,240.34c5.41-5.41,11.57-8.14,18.49-8.19c6.92-0.05,13.02,2.56,18.32,7.86
			c3.99,3.99,7.04,8.87,9.15,14.63c2.11,5.76,2.88,11.27,2.32,16.53c-0.41,3.47-1.36,6.53-2.85,9.17c-1.49,2.65-4.1,5.84-7.83,9.56
			c-6.08,6.08-10.91,9.45-14.49,10.12c-8.43,1.57-16-1.01-22.71-7.72c-7.08-7.08-10.67-15.77-10.74-26.06
			C677.12,255.95,680.57,247.31,687.55,240.34z M698.12,253.6c-2.76,2.76-3.92,6.64-3.47,11.63c0.45,5,2.31,9.14,5.59,12.42
			c4.33,4.33,8.91,4.06,13.76-0.78c2.83-2.83,4.14-5.89,3.92-9.17c-0.34-5.41-2.35-9.96-6.04-13.65c-2.13-2.13-4.46-3.22-6.99-3.3
			C702.35,250.67,700.09,251.62,698.12,253.6z"/>
		<path class="st20" d="M736.1,217.85l2.8,6.6c2.46,5.89,2.31,10.22-0.45,12.98c-1.68,1.68-3.58,2.57-5.71,2.68
			s-3.93-0.58-5.43-2.07c-0.86-0.86-1.9-2.72-3.13-5.59l-9.29-21.93c-2.24-5.29-1.96-9.34,0.84-12.14c2.76-2.76,5.76-3.15,9.01-1.17
			l2.18,1.29c1.12,0.67,2.01,0.9,2.68,0.67c0.67-0.22,1.88-1.21,3.64-2.96l13.09-13.09c4.88-4.88,9.04-5.61,12.47-2.18
			c4.74,4.74,4.01,10.2-2.18,16.39l-0.06,1.17c-0.26,11.6,1.16,18.94,4.25,22.04c3.1,3.1,6.36,2.93,9.79-0.5l7.05-7.05
			c4.74-4.74,8.75-5.46,12.03-2.18c2.31,2.31,3.27,4.93,2.88,7.86c-0.39,2.93-2.08,5.88-5.06,8.87l-10.96,10.96
			c-3.73,3.73-8.06,5.49-13,5.29c-4.94-0.2-9.46-2.36-13.56-6.46c-2.61-2.61-4.51-5.78-5.71-9.51c-1.19-3.73-1.98-8.99-2.35-15.77
			L736.1,217.85z"/>
		<path class="st20" d="M825.65,165l6.38-6.38c4.74-4.73,8.76-5.44,12.08-2.13c2.28,2.27,3.21,4.89,2.8,7.83
			c-0.41,2.95-2.09,5.89-5.03,8.84l-7.55,7.55c-2.91,2.91-6.23,3.84-9.96,2.8c0,4.77-1.36,8.52-4.08,11.24l-7.1,7.1
			c-4.14,4.14-8.87,6.03-14.18,5.68c-5.31-0.35-10.32-2.88-15.02-7.58c-7.2-7.2-11.21-16.12-12.05-26.76
			c-0.84-10.64,1.8-19.03,7.91-25.14c4.51-4.51,9.73-6.49,15.66-5.93l-18.12-43.07c-3.09-7.35-2.74-12.92,1.06-16.72
			c1.6-1.6,3.48-2.45,5.62-2.54c2.15-0.09,3.96,0.61,5.46,2.1c1.16,1.16,2.18,2.74,3.08,4.75l0.84,2.18L825.65,165z M805.45,185.75
			l2.13-2.13c2.57-2.57,3.24-5.29,2.01-8.17l-6.15-14.54c-0.75-1.79-1.45-3.02-2.13-3.69c-1.12-1.12-2.54-1.59-4.28-1.43
			c-1.73,0.17-3.31,0.96-4.73,2.38c-2.91,2.91-4,7.24-3.27,13c0.73,5.76,2.97,10.52,6.74,14.29
			C799.1,188.79,802.32,188.88,805.45,185.75z"/>
		<path class="st20" d="M844.66,115.33l1.51,3.64c2.05,5.33,1.57,9.51-1.46,12.53c-1.53,1.53-3.43,2.37-5.71,2.52
			c-2.27,0.15-4.1-0.47-5.48-1.85c-1.3-1.3-2.5-3.58-3.58-6.82l-7.66-22.54c-1.79-5.44-1.32-9.53,1.4-12.25
			c1.45-1.45,3.18-2.23,5.17-2.32c1.99-0.09,3.65,0.51,4.95,1.82c0.34,0.34,0.95,1.17,1.85,2.52c0.67,0.97,1.32,1.77,1.96,2.41
			c2.35,2.35,5.63,3.88,9.84,4.59l7.61,1.23c7.76,1.27,13.74,4.01,17.96,8.22c4.7,4.7,6.87,10.38,6.52,17.03
			c-0.35,6.66-3.14,12.59-8.36,17.81l-11.69,11.69c-4.74,4.74-8.74,5.46-12.03,2.18c-2.27-2.27-3.22-4.89-2.83-7.86
			c0.39-2.96,2.06-5.92,5.01-8.87l6.49-6.49c5.18-5.18,5.89-9.66,2.13-13.42c-1.38-1.38-3.49-2.52-6.32-3.41L844.66,115.33z"/>
	</g>
	<g id="Fords">
		<path class="st21" d="M630.8,290.78l7.22-7.22l1.45-1.45c4.18-4.18,8.05-4.47,11.63-0.89c2.24,2.24,3.28,4.98,3.13,8.22
			c-0.15,3.25-1.47,6.12-3.97,8.61l-1.45,1.45l-10.07,10.07l15.94,37.64c10.96,26.03,9.06,46.42-5.71,61.19
			c-7.72,7.72-16.6,11.63-26.65,11.72c-10.05,0.09-18.86-3.65-26.43-11.21c-5.89-5.89-10.02-13.02-12.39-21.39
			c-2.37-8.37-2.79-17.2-1.26-26.48c1.34-7.83,4.11-15.75,8.31-23.74c4.2-8,9.26-14.96,15.19-20.89l7.66-8.11l2.4-2.52l-16.28-37.76
			l-0.95-2.18c-1.46-3.17-1.9-5.8-1.34-7.89c0.56-2.09,2.41-4.7,5.54-7.83l28.69-28.69c5.18-5.18,9.6-5.95,13.26-2.29
			c2.16,2.16,3.16,4.88,2.99,8.14c-0.17,3.26-1.48,6.13-3.94,8.59l-1.51,1.51l-23.88,23.88L630.8,290.78z M623.75,324.57l-3.02,3.02
			c-11.04,11.04-17.34,22.37-18.91,34.01c-1.75,13.01,0.91,23.06,8,30.15c3.8,3.8,8.16,5.83,13.06,6.07
			c4.9,0.24,9.09-1.37,12.56-4.84c8.05-8.05,8.28-21.07,0.67-39.04L623.75,324.57z"/>
		<path class="st21" d="M679.4,239.04c5.41-5.41,11.57-8.14,18.49-8.19c6.92-0.05,13.02,2.56,18.32,7.86
			c3.99,3.99,7.04,8.87,9.15,14.63c2.11,5.76,2.88,11.27,2.32,16.53c-0.41,3.47-1.36,6.53-2.85,9.17c-1.49,2.65-4.1,5.84-7.83,9.56
			c-6.08,6.08-10.91,9.45-14.49,10.12c-8.43,1.57-16-1.01-22.71-7.72c-7.08-7.08-10.67-15.77-10.74-26.06
			C668.98,254.65,672.43,246.02,679.4,239.04z M689.97,252.3c-2.76,2.76-3.92,6.64-3.47,11.63c0.45,5,2.31,9.14,5.59,12.42
			c4.33,4.33,8.91,4.06,13.76-0.78c2.83-2.83,4.14-5.89,3.92-9.17c-0.34-5.41-2.35-9.96-6.04-13.65c-2.13-2.13-4.46-3.22-6.99-3.3
			C694.21,249.37,691.95,250.32,689.97,252.3z"/>
		<path class="st21" d="M727.95,216.56l2.8,6.6c2.46,5.89,2.31,10.22-0.45,12.98c-1.68,1.68-3.58,2.57-5.71,2.68
			s-3.93-0.58-5.43-2.07c-0.86-0.86-1.9-2.72-3.13-5.59l-9.29-21.93c-2.24-5.29-1.96-9.34,0.84-12.14c2.76-2.76,5.76-3.15,9.01-1.17
			l2.18,1.29c1.12,0.67,2.01,0.9,2.68,0.67c0.67-0.22,1.88-1.21,3.64-2.96l13.09-13.09c4.88-4.88,9.04-5.61,12.47-2.18
			c4.74,4.74,4.01,10.2-2.18,16.39l-0.06,1.17c-0.26,11.6,1.16,18.94,4.25,22.04c3.1,3.1,6.36,2.93,9.79-0.5l7.05-7.05
			c4.74-4.74,8.75-5.46,12.03-2.18c2.31,2.31,3.27,4.93,2.88,7.86c-0.39,2.93-2.08,5.88-5.06,8.87l-10.96,10.96
			c-3.73,3.73-8.06,5.49-13,5.29c-4.94-0.2-9.46-2.36-13.56-6.46c-2.61-2.61-4.51-5.78-5.71-9.51c-1.19-3.73-1.98-8.99-2.35-15.77
			L727.95,216.56z"/>
		<path class="st21" d="M817.5,163.7l6.38-6.38c4.74-4.73,8.76-5.44,12.08-2.13c2.28,2.27,3.21,4.89,2.8,7.83
			c-0.41,2.95-2.09,5.89-5.03,8.84l-7.55,7.55c-2.91,2.91-6.23,3.84-9.96,2.8c0,4.77-1.36,8.52-4.08,11.24l-7.1,7.1
			c-4.14,4.14-8.87,6.03-14.18,5.68c-5.31-0.35-10.32-2.88-15.02-7.58c-7.2-7.2-11.21-16.12-12.05-26.76
			c-0.84-10.64,1.8-19.03,7.91-25.14c4.51-4.51,9.73-6.49,15.66-5.93l-18.12-43.07c-3.09-7.35-2.74-12.92,1.06-16.72
			c1.6-1.6,3.48-2.45,5.62-2.54c2.15-0.09,3.96,0.61,5.46,2.1c1.16,1.16,2.18,2.74,3.08,4.75l0.84,2.18L817.5,163.7z M797.31,184.45
			l2.13-2.13c2.57-2.57,3.24-5.29,2.01-8.17l-6.15-14.54c-0.75-1.79-1.45-3.02-2.13-3.69c-1.12-1.12-2.54-1.59-4.28-1.43
			c-1.73,0.17-3.31,0.96-4.73,2.38c-2.91,2.91-4,7.24-3.27,13c0.73,5.76,2.97,10.52,6.74,14.29
			C790.95,187.49,794.18,187.59,797.31,184.45z"/>
		<path class="st21" d="M836.52,114.03l1.51,3.64c2.05,5.33,1.57,9.51-1.46,12.53c-1.53,1.53-3.43,2.37-5.71,2.52
			c-2.27,0.15-4.1-0.47-5.48-1.85c-1.3-1.3-2.5-3.58-3.58-6.82l-7.66-22.54c-1.79-5.44-1.32-9.53,1.4-12.25
			c1.45-1.45,3.18-2.23,5.17-2.32c1.99-0.09,3.65,0.51,4.95,1.82c0.34,0.34,0.95,1.17,1.85,2.52c0.67,0.97,1.32,1.77,1.96,2.41
			c2.35,2.35,5.63,3.88,9.84,4.59l7.61,1.23c7.76,1.27,13.74,4.01,17.96,8.22c4.7,4.7,6.87,10.38,6.52,17.03
			c-0.35,6.66-3.14,12.59-8.36,17.81l-11.69,11.69c-4.74,4.74-8.74,5.46-12.03,2.18c-2.27-2.27-3.22-4.89-2.83-7.86
			c0.39-2.96,2.06-5.92,5.01-8.87l6.49-6.49c5.18-5.18,5.89-9.66,2.13-13.42c-1.38-1.38-3.49-2.52-6.32-3.41L836.52,114.03z"/>
	</g>
	<g id="Pizza_2_">
		<path class="st20" d="M868.54,635.64l-6.59,37.22c-3.31,18.41-6.16,31.21-8.56,38.42c-2.4,7.21-5.99,13.68-10.77,19.41
			c-6.96,8.35-15.96,13.7-26.99,16.04c-11.65,2.48-21.87,0.8-30.68-5.01c-8.81-5.82-14.46-14.6-16.96-26.36
			c-3.34-15.71-0.52-30.67,8.46-44.87c4.83-7.67,11.49-14.42,19.98-20.28c8.48-5.85,17.29-9.75,26.43-11.69
			c4.4-0.94,8.15-0.7,11.25,0.71c3.09,1.41,4.99,3.73,5.67,6.96c0.72,3.4-0.15,6.44-2.61,9.12c-1.41,1.58-4.44,3.1-9.08,4.55
			c-10.82,3.35-19.22,7.79-25.21,13.31c-4.96,4.61-8.5,10.01-10.62,16.19c-2.12,6.19-2.54,12.32-1.25,18.39
			c1.31,6.18,3.96,10.76,7.94,13.73c3.98,2.97,8.67,3.88,14.08,2.73c6.8-1.45,12.07-5.56,15.81-12.36
			c3.74-6.79,7.03-18.15,9.88-34.07l13.85-77.46l-9.11,1.94c-7.69,1.63-12.1-0.22-13.24-5.57c-0.8-3.79-0.08-7.01,2.18-9.68
			c2.26-2.66,5.84-4.52,10.74-5.56l31.84-6.77c10.7-2.27,19.03-1.93,24.98,1.02c5.96,2.96,9.83,8.64,11.62,17.06
			c2.18,10.25,0,19.48-6.52,27.68c-4.73,5.96-13.09,10.21-25.07,12.75L868.54,635.64z M872.4,613.94l6.77-1.44
			c8.91-1.89,12.6-6.46,11.06-13.71c-0.88-4.12-3.85-5.65-8.92-4.57l-5.6,1.19L872.4,613.94z"/>
		<path class="st20" d="M936.06,661.91l9.44-2.01c7.02-1.49,11.06,0.24,12.11,5.2c0.72,3.4,0.04,6.31-2.03,8.73
			c-2.08,2.42-5.34,4.11-9.8,5.05l-13.29,2.82c-4.9,1.04-8.98,0.86-12.22-0.55c-3.24-1.41-5.23-3.84-5.96-7.29
			c-0.39-1.84-0.3-4.3,0.26-7.4l6.58-36.86l0.42-2.54c1.22-6.84,4.68-10.87,10.36-12.08c2.34-0.5,4.53-0.15,6.56,1.05
			c2.03,1.2,3.28,2.88,3.74,5.06c0.38,1.78,0.21,4.67-0.52,8.67L936.06,661.91z M931.71,587.18c3.23-0.69,6.21-0.14,8.95,1.64
			c2.74,1.78,4.45,4.28,5.13,7.51c0.69,3.23,0.14,6.22-1.63,8.95c-1.78,2.74-4.28,4.45-7.51,5.14c-3.23,0.69-6.22,0.14-8.95-1.64
			c-2.74-1.78-4.45-4.28-5.13-7.51c-0.69-3.23-0.14-6.21,1.64-8.95C925.97,589.58,928.48,587.87,931.71,587.18z"/>
		<path class="st20" d="M990.39,650.36l21.06-4.48c7.02-1.49,11.06,0.24,12.11,5.2c0.72,3.4,0.04,6.31-2.03,8.73
			c-2.08,2.42-5.34,4.11-9.8,5.05l-38.95,8.28c-3.46,0.74-6.38,0.45-8.78-0.84c-2.4-1.29-3.92-3.42-4.54-6.37
			c-0.6-2.84,0.58-6.47,3.54-10.89l21.74-32.14l-9.21,2.31l-2.09,0.44c-6.07,1.29-9.64-0.57-10.71-5.59
			c-0.66-3.12-0.03-6.01,1.91-8.66c1.94-2.65,4.64-4.35,8.09-5.08l2.09-0.44l25.99-5.52c7.74-1.65,12.32,0.82,13.71,7.39
			c0.72,3.4-0.3,7.2-3.08,11.4L990.39,650.36z"/>
		<path class="st20" d="M1057.17,636.17l21.06-4.48c7.02-1.49,11.06,0.24,12.11,5.2c0.72,3.4,0.04,6.31-2.03,8.73
			c-2.08,2.42-5.34,4.11-9.8,5.05l-38.95,8.28c-3.46,0.73-6.38,0.45-8.78-0.84c-2.4-1.29-3.92-3.42-4.54-6.37
			c-0.6-2.84,0.58-6.47,3.54-10.89l21.74-32.14l-9.21,2.31l-2.09,0.44c-6.07,1.29-9.64-0.57-10.71-5.59
			c-0.66-3.12-0.03-6.01,1.92-8.66c1.94-2.65,4.64-4.35,8.09-5.08l2.09-0.44l25.99-5.53c7.74-1.65,12.32,0.82,13.71,7.4
			c0.72,3.4-0.3,7.2-3.08,11.4L1057.17,636.17z"/>
		<path class="st20" d="M1149.86,616.46l9.19-1.95c7.02-1.49,11.05,0.21,12.1,5.12c0.72,3.4,0.03,6.33-2.07,8.78
			c-2.1,2.46-5.35,4.15-9.75,5.09l-10.7,2.27c-4.79,1.02-8.45-0.16-10.97-3.52c-3.38,4.62-7.03,7.35-10.93,8.18l-9.53,2.03
			c-6.13,1.3-11.54,0.17-16.23-3.41c-4.69-3.57-7.79-8.9-9.29-15.98c-2.27-10.7-0.62-21.05,4.97-31.07
			c5.59-10.01,13.04-16,22.34-17.98c7.13-1.52,12.87-0.14,17.21,4.12c1.9-4.77,5.1-7.64,9.62-8.6c2.45-0.52,4.66-0.17,6.64,1.03
			c1.98,1.21,3.21,2.96,3.69,5.24c0.33,1.56,0.28,3.52-0.15,5.88l-0.44,2.45L1149.86,616.46z M1119.61,623.33l2.09-0.44
			c4.57-0.97,7.21-3.48,7.92-7.54l2.78-15.7c0.38-2.06,0.43-3.73,0.16-5.01c-0.32-1.5-1.34-2.66-3.05-3.46
			c-1.71-0.8-3.6-0.98-5.66-0.54c-4.07,0.86-7.52,4.08-10.36,9.63c-2.84,5.55-3.72,10.87-2.64,15.94
			C1112.06,621.94,1114.99,624.31,1119.61,623.33z"/>
	</g>
	<g id="Pizza_1_">
		<path class="st22" d="M860.45,631.23l-6.59,37.22c-3.31,18.41-6.16,31.21-8.56,38.42c-2.4,7.21-5.99,13.68-10.77,19.41
			c-6.96,8.35-15.96,13.7-26.99,16.04c-11.65,2.48-21.87,0.81-30.68-5.01c-8.81-5.82-14.46-14.6-16.96-26.36
			c-3.34-15.71-0.52-30.67,8.46-44.87c4.83-7.67,11.49-14.42,19.98-20.28c8.48-5.85,17.29-9.75,26.43-11.69
			c4.4-0.94,8.15-0.7,11.25,0.71c3.09,1.41,4.99,3.73,5.67,6.96c0.72,3.4-0.15,6.44-2.61,9.12c-1.41,1.58-4.44,3.1-9.08,4.55
			c-10.82,3.35-19.22,7.79-25.21,13.31c-4.96,4.61-8.5,10.01-10.62,16.19c-2.12,6.19-2.54,12.32-1.25,18.39
			c1.31,6.18,3.96,10.76,7.94,13.73c3.98,2.97,8.67,3.88,14.08,2.73c6.8-1.44,12.07-5.56,15.81-12.36
			c3.74-6.79,7.03-18.15,9.88-34.07l13.85-77.46l-9.11,1.94c-7.69,1.63-12.1-0.22-13.24-5.57c-0.8-3.79-0.08-7.02,2.18-9.68
			c2.26-2.66,5.84-4.52,10.74-5.56l31.84-6.77c10.7-2.27,19.03-1.93,24.98,1.02c5.96,2.96,9.83,8.64,11.62,17.05
			c2.18,10.25,0,19.48-6.52,27.68c-4.73,5.96-13.09,10.21-25.07,12.75L860.45,631.23z M864.31,609.52l6.77-1.44
			c8.91-1.9,12.6-6.46,11.06-13.71c-0.88-4.12-3.85-5.65-8.92-4.57l-5.6,1.19L864.31,609.52z"/>
		<path class="st22" d="M927.97,657.49l9.44-2.01c7.02-1.49,11.06,0.24,12.11,5.2c0.72,3.4,0.04,6.31-2.03,8.73
			c-2.08,2.42-5.34,4.11-9.8,5.05l-13.29,2.83c-4.9,1.04-8.98,0.86-12.22-0.55c-3.24-1.41-5.23-3.84-5.96-7.29
			c-0.39-1.84-0.3-4.3,0.26-7.39l6.58-36.87l0.42-2.54c1.22-6.84,4.68-10.87,10.36-12.07c2.34-0.5,4.53-0.15,6.56,1.05
			c2.03,1.2,3.28,2.88,3.74,5.06c0.38,1.78,0.21,4.67-0.52,8.67L927.97,657.49z M923.61,582.77c3.23-0.69,6.21-0.14,8.95,1.64
			c2.74,1.78,4.45,4.28,5.13,7.51c0.69,3.23,0.14,6.22-1.63,8.95c-1.78,2.74-4.28,4.45-7.51,5.14c-3.23,0.69-6.22,0.14-8.95-1.64
			c-2.74-1.78-4.45-4.28-5.13-7.51c-0.69-3.23-0.14-6.22,1.64-8.95C917.88,585.17,920.38,583.45,923.61,582.77z"/>
		<path class="st22" d="M982.29,645.95l21.06-4.48c7.02-1.49,11.06,0.24,12.11,5.2c0.72,3.4,0.04,6.31-2.03,8.73
			c-2.08,2.42-5.34,4.11-9.8,5.05l-38.95,8.28c-3.46,0.73-6.38,0.45-8.78-0.84c-2.4-1.29-3.92-3.42-4.54-6.37
			c-0.6-2.84,0.58-6.47,3.54-10.89l21.74-32.14l-9.21,2.31l-2.09,0.44c-6.07,1.29-9.64-0.57-10.71-5.59
			c-0.66-3.12-0.03-6.01,1.91-8.66c1.94-2.65,4.64-4.35,8.09-5.08l2.09-0.44l25.99-5.53c7.74-1.65,12.32,0.82,13.71,7.4
			c0.72,3.4-0.3,7.2-3.08,11.4L982.29,645.95z"/>
		<path class="st22" d="M1049.08,631.75l21.06-4.48c7.02-1.49,11.06,0.24,12.11,5.2c0.72,3.4,0.04,6.31-2.03,8.73
			c-2.08,2.42-5.34,4.11-9.8,5.05l-38.95,8.28c-3.46,0.73-6.38,0.45-8.78-0.84c-2.4-1.29-3.92-3.42-4.54-6.37
			c-0.6-2.84,0.58-6.47,3.54-10.89l21.74-32.14l-9.21,2.31l-2.09,0.44c-6.07,1.29-9.64-0.57-10.71-5.59
			c-0.66-3.12-0.03-6.01,1.92-8.66c1.94-2.65,4.64-4.35,8.09-5.08l2.09-0.44l25.99-5.53c7.74-1.65,12.32,0.82,13.71,7.39
			c0.72,3.4-0.3,7.2-3.08,11.4L1049.08,631.75z"/>
		<path class="st22" d="M1141.77,612.05l9.19-1.95c7.02-1.49,11.05,0.21,12.1,5.12c0.72,3.4,0.03,6.33-2.07,8.78
			s-5.35,4.15-9.75,5.09l-10.7,2.27c-4.79,1.02-8.45-0.16-10.97-3.52c-3.38,4.62-7.03,7.35-10.93,8.17l-9.53,2.03
			c-6.13,1.3-11.54,0.17-16.23-3.41c-4.69-3.57-7.79-8.9-9.29-15.98c-2.27-10.7-0.62-21.05,4.97-31.06
			c5.59-10.01,13.04-16,22.34-17.98c7.13-1.52,12.87-0.14,17.21,4.12c1.9-4.77,5.1-7.64,9.62-8.6c2.45-0.52,4.66-0.17,6.64,1.04
			c1.98,1.21,3.21,2.96,3.69,5.24c0.33,1.56,0.28,3.52-0.15,5.88l-0.44,2.45L1141.77,612.05z M1111.52,618.92l2.09-0.44
			c4.57-0.97,7.21-3.48,7.92-7.54l2.78-15.7c0.38-2.06,0.43-3.73,0.16-5.01c-0.32-1.5-1.34-2.66-3.05-3.46
			c-1.71-0.8-3.6-0.98-5.66-0.54c-4.07,0.86-7.52,4.08-10.36,9.63c-2.84,5.55-3.72,10.87-2.64,15.94
			C1103.97,617.52,1106.89,619.9,1111.52,618.92z"/>
	</g>
</g>
</svg>
