<?xml version="1.0" encoding="utf-8"?>
<!-- Generator: Adobe Illustrator 23.0.1, SVG Export Plug-In . SVG Version: 6.00 Build 0)  -->
<svg version="1.1" id="Layer_1" xmlns="http://www.w3.org/2000/svg" xmlns:xlink="http://www.w3.org/1999/xlink" x="0px" y="0px"
	 viewBox="0 0 1000 1000" style="enable-background:new 0 0 1000 1000;" xml:space="preserve">
<style type="text/css">
	.st0{fill:#EDC9A2;stroke:#000000;stroke-width:9.8912;stroke-miterlimit:10;}
	.st1{fill:#ED3B11;}
	.st2{opacity:0.5;fill:none;stroke:#F7931E;stroke-width:40.9778;stroke-miterlimit:10;}
	.st3{opacity:0.5;fill:none;stroke:#F7931E;stroke-width:9.8912;stroke-miterlimit:10;}
	.st4{fill:none;stroke:#000000;stroke-width:9.8912;stroke-miterlimit:10;}
	.st5{fill:#EFBF37;stroke:#050303;stroke-width:7.0651;stroke-miterlimit:10;}
	.st6{fill:#D82323;stroke:#020000;stroke-width:7.0651;stroke-miterlimit:10;}
	.st7{opacity:0.2;}
	.st8{opacity:0.25;}
	.st9{fill:#070606;}
	.st10{fill:#D82323;stroke:#000000;stroke-width:7.0651;stroke-miterlimit:10;}
	.st11{opacity:0.25;fill:none;stroke:#000000;stroke-width:5.6521;stroke-miterlimit:10;}
	.st12{fill:#050303;}
	.st13{opacity:0.25;fill:none;stroke:#050303;stroke-width:5.6521;stroke-miterlimit:10;}
	.st14{opacity:0.25;fill:#D82323;stroke:#000000;stroke-width:7.0651;stroke-miterlimit:10;}
	.st15{opacity:0.25;fill:none;stroke:#000000;stroke-width:7.0651;stroke-miterlimit:10;}
	.st16{opacity:0.6;}
	.st17{fill:#F46221;}
	.st18{fill:#EDF222;}
	.st19{fill:#E0CC77;}
	.st20{fill:#ED0CF4;}
	.st21{fill:#00F9F2;stroke:#020102;stroke-width:2.8261;stroke-miterlimit:10;}
	.st22{fill:#00F9F2;stroke:#070404;stroke-width:2.8261;stroke-miterlimit:10;}
</style>
<path id="Crust" class="st0" d="M448.91,206.1c21.11-41.96,39.71-73.65,59.41-91.15c0.89-0.79,1.78-1.55,2.68-2.28
	c12.42-10.16,25.34-14.67,39.65-12.55c14.81,2.19,37.19,27.47,74.89,53.09c59.43,40.4,121.52,69.84,151.19,93.86
	c29.67,24.02,180.87,158.26,206.3,204.89c25.43,46.63-38.15,86.19-46.63,90.43c-8.48,4.24-76.3,14.13-83.37,24.02
	c-7.07,9.89-61.43,44.47-97.13,42.02c-35.7-2.45-407.08,81.4-564.58,109.18c-82.23,14.5-138.14,14.81-138.23,12.55"/>
<path id="Tomatosauce" class="st1" d="M467.97,179.97C639.4,266.18,779.1,366.04,895.43,485.88c2.14-13.3-16.02,33.45-39.56,44.51
	c-31.33,14.72-79.17,33.91-92.92,45.22c-13.76,11.3-85.55-1.57-141.35,15.54C406.46,657.11,138.75,711.26,130.27,704.9
	c-8.48-6.36,301.68-460.65,301.68-460.65L467.97,179.97z"/>
<path id="Shadow_1_" class="st2" d="M914.5,468.22c-13.67-13.35-20.27-30.22-49.35-43.72c-29.08-13.5-95.7-77.51-113.96-87.19
	c-18.26-9.68-100.86-69.81-142.69-103.03c-36.2-24.38-62.09-52.2-92.18-57.41c-20.97-13.65-33.5-21.64-33.5-21.64"/>
<path id="Shadow_3_" class="st3" d="M58.66,719.03l3.08,2.83c30.77,0.17,58.78-2.83,80.54-7.07c20.96-2.22,39.75-6.25,52.28-8.48
	c12.6-2.24,33.03-5.33,55.11-9.89c28.14-4.14,139.66-26.56,230.32-46.63c61.04-14.11,123.21-25.85,186.52-38.15
	c0,0,73.48-14.13,87.61-14.13c10.27,1.3,19.63-0.46,29.67-4.24c6.98-1.12,63.59-28.26,66.41-38.15c8.48-8.48,76.3-15.54,84.78-22.61
	c26.85-12.72,59.62-67.6,36.74-79.13"/>
<path class="st4" d="M860.53,516.73c13.88-3.47,26.22-14.96,37.72-30.86c35.89-41.3,66.09-48.72,90.08-19.14"/>
<path class="st4" d="M898.25,485.88c-122.1-121.56-265.76-224.71-430.97-309.45"/>
<path id="Cheese" class="st5" d="M36.3,738.81c-20.55-5.3-26.79-29.37-11.3-81.96c15.52-33.2,32.44-64.12,56.52-83.37
	c76.44-63.64,152.61-125.76,173.8-127.17s58.64-98.21,58.64-98.21c16.41-35.94,92.55-105.27,101.03-119.4
	c11.13-12.53,15.27-17.84,33.91-22.61c24.36-6.24,66.8,56.8,65.71,69.94c7.82,21.45,1.77-2.19,24.73,30.38l76.3,8.48
	c63.55,19.05,83.76,41.94,86.19,66.41l72.06,36.74c5.08-13.93,31.09,36.74,43.8,46.63c12.72,9.89,31.59,11.59,39.56,24.02
	c4.05,11.38,8.48,26.85,0,31.09c-8.48,4.24-39.56,8.48-49.46,11.3c-9.89,2.83-12.72,49.46-31.09,56.52
	c-18.37,7.07-33.91-12.72-39.56-15.54s-24.02,11.3-31.09,12.72c-7.07,1.41-19.78-2.83-25.43-1.41
	c-5.65,1.41-42.39,22.61-42.39,22.61c-15.54,7.07-38.15-5.65-45.22-7.07s-22.61,12.72-31.09,15.54
	c-8.48,2.83-28.97-12.01-37.45-12.01c-8.48,0-13.42,10.6-20.49,16.25c-7.07,5.65-17.6-2.5-31.09,7.07
	c-10.13,7.19-36.74,65-59.35,55.11s-46.63-39.56-62.17-36.74c-15.54,2.83-28.51,29.47-42.39,26.85c-12.8-2.42-30.08-7.49-43.8-5.65
	c-12.6,1.69-35.33,14.13-40.98,22.61c-5.65,8.48-43.8,5.65-52.28,8.48c-8.48,2.83-33.91,22.61-49.46,18.37
	c-15.54-4.24-45.93-20.65-53.7-11.3C61.42,712.37,52.62,743,36.3,738.81z"/>
<path id="Salami_1_" class="st6" d="M162.06,676.64c-18.7-9.8-5.37-118.65,67.83-130c74.89-11.3,128.7,60.49,114.46,84.78
	c-5,8.53-35.33,12.72-63.59,15.54c-28.26,2.83-26.85,1.41-52.28,0S170.91,681.28,162.06,676.64z"/>
<g class="st7">
	<g>
		<path d="M181.61,628.96c0.18-0.06,0.4,0.1,0.54,0.15c0.22,0.15,0.26,0.16,0.12,0.04c-0.1-0.1-0.1-0.1,0,0
			c0,0.02,0.06,0.24,0.07,0.25c-0.01,0.05-0.03,0.11-0.04,0.16c0.07-0.21,0.07-0.26,0.02-0.13c0.05,0.21,0.08-0.34-0.02-0.01
			c0.02-0.07,0.23-0.25,0.03-0.08c0.04-0.03,0.49-0.29,0.29-0.18c-0.13,0.07,0.36,0.03-0.03,0.02c-0.32-0.01,0-0.08,0.04,0.02
			c-0.2-0.09-0.23-0.1-0.1-0.02c0.1,0.06,0.1,0.06,0-0.01c-0.1-0.08-0.1-0.07-0.02,0.01c0.1,0.11,0.08,0.08-0.06-0.08
			c-0.01,0.01,0.15,0.31,0.02-0.02c0,0.01,0.14,0.53,0.09,0.24c-0.05-0.28-0.01,0.23-0.01,0.26c0.01-0.31-0.06-0.11-0.02-0.04
			c0.1-0.2,0.11-0.24,0.04-0.1c-0.08,0.13-0.06,0.11,0.07-0.07c1.11,0.14,2.22,0.29,3.33,0.43c-0.15-0.34-0.29-0.68-0.44-1.02
			c-0.45-1.05-2-1.29-2.9-0.76c-1.09,0.64-1.22,1.84-0.76,2.9c0.15,0.34,0.29,0.68,0.44,1.02c0.52,1.21,2.51,1.38,3.33,0.43
			c1.25-1.47,1.52-3.45,0.6-5.17c-0.92-1.75-2.9-2.61-4.81-2.09c-1.85,0.5-3.37,2.34-3.33,4.29c0.05,2.29,2.29,4.44,4.63,3.64
			c1.08-0.37,1.8-1.46,1.48-2.61C183.93,629.39,182.7,628.59,181.61,628.96L181.61,628.96z"/>
	</g>
</g>
<g class="st7">
	<g>
		<path d="M183.12,597.57c-0.58-0.15,0.19,0.11-0.12-0.03c-0.13-0.08-0.11-0.06,0.04,0.05c-0.05-0.05-0.09-0.09-0.14-0.14
			c0.03,0.04,0.06,0.08,0.09,0.13c-0.1-0.19-0.13-0.22-0.07-0.08c0.05,0.14,0.04,0.11-0.02-0.1c0.01,0.06,0.01,0.13,0.02,0.19
			c0-0.06,0-0.13,0-0.19c0.02,0.11,0,0.2-0.06,0.29c-0.06,0.25,0.22-0.24-0.09,0.14c0.24-0.3-0.16,0.13,0.03-0.01
			c0.24-0.18-0.44,0.21,0.03,0.01c-0.15,0.06-0.35,0-0.08,0.04c-0.18-0.02-0.57-0.24-0.32-0.05c-0.14-0.1-0.24-0.18-0.35-0.32
			c-0.1-0.27-0.12-0.32-0.08-0.17c0.03,0.12,0.03,0.09,0-0.07c-0.02-0.19-0.03-0.18-0.02,0.01c0.01-0.09,0.02-0.18,0.03-0.27
			c-0.2,0.45,0.18-0.27,0.03-0.03c-0.09,0.15,0.25-0.23,0.34-0.29c-0.32,0.23,0.4-0.09-0.03-0.02c-1.13,0.19-1.76,1.59-1.48,2.61
			c0.33,1.2,1.47,1.67,2.61,1.48c1.69-0.28,2.87-2.14,2.74-3.78c-0.16-1.94-1.76-3.52-3.77-3.33c-2,0.18-3.58,1.62-3.74,3.66
			c-0.16,2.01,1.4,3.87,3.29,4.36c1.07,0.27,2.35-0.35,2.61-1.48C184.86,599.07,184.27,597.87,183.12,597.57L183.12,597.57z"/>
	</g>
</g>
<g class="st7">
	<g>
		<path d="M210.55,594.87c-0.39,0.21-0.95,0.17-1.23-0.01c-0.24-0.16-0.31-0.39-0.31-0.47c0.01,0.21,0.06-0.24,0.02-0.17
			c-0.07,0.12,0.31-0.5,0.23-0.4c0.12-0.14,0.23-0.16,0.26-0.13c-0.24-0.24,0,0.12-0.01,0.05c-0.03-0.18,0.11,0.18,0.05,0.09
			c0.01,0.02,0.19,0.38,0.09,0.41c0.01,0,0.02-0.31,0.13-0.29c0.07-0.03,0.14-0.06,0.21-0.09c1.3,0.57,1.67,1.27,1.1,2.09
			c-0.31,0.18-0.62,0.36-0.94,0.55c-0.07,0-0.15,0.01-0.22,0.01c2.73-0.02,2.73-4.26,0-4.24c-1.92,0.01-3.25,1.94-2.69,3.76
			c0.64,2.11,3.2,2.56,4.89,1.45c3.02-1.99,1.8-6.75-1.38-7.81c-3.41-1.14-6.63,2.49-5.85,5.79c0.8,3.41,4.93,4.65,7.81,3.08
			C215.09,597.23,212.95,593.57,210.55,594.87L210.55,594.87z"/>
	</g>
</g>
<g class="st7">
	<g>
		<path d="M221.26,571.67c-0.79,0.11-1.9,0.12-2.6-0.35c-0.27-0.18-0.32-0.31-0.35-0.46c0.04,0.22,0.01-0.62-0.01-0.38
			c0-0.01,0.07-0.16,0.07-0.17c0.03-0.31,0.05,0.13-0.07,0.08c-0.23-0.1,0.08,0.12,0.06,0.09c-0.02-0.04,0.93,0.59,0.89,0.58
			c-0.18-0.05,0.39-0.38,0.7-0.31c0.79,0.18,1.24,1.57,0.05,1.77c1.13-0.2,1.76-1.58,1.48-2.61c-0.33-1.19-1.48-1.68-2.61-1.48
			c-1.77,0.31-2.64,2.25-2.3,3.88c0.37,1.81,2.08,2.96,3.9,2.55c1.82-0.41,3.08-2.22,3.01-4.05c-0.08-1.88-1.5-3.4-3.15-4.12
			c-1.63-0.7-3.62-0.7-4.95,0.61c-1.16,1.14-1.51,2.84-1.2,4.39c0.75,3.82,4.99,4.49,8.21,4.05c1.14-0.15,1.75-1.61,1.48-2.61
			C223.53,571.92,222.4,571.51,221.26,571.67L221.26,571.67z"/>
	</g>
</g>
<g class="st7">
	<g>
		<path d="M250.26,579.64c-1.5,0.09-3.74,0.33-4.75-1.07c-0.52-0.73-0.54-2.85,0.94-2.49c0.93,0.23,0.11,1.44,1.26,1.15
			c0.01,0,0.68-0.59,0.67-0.5c-0.24-0.12-0.47-0.24-0.71-0.36c0.03,0.15,0.06,0.31,0.1,0.46c-0.07,0.95,0.23,1.88,0.07,2.86
			c-0.31,1.93,1.96,3.74,3.54,2.06c4.2-4.45,0.21-11.28-5.7-10.05c-2.67,0.55-1.54,4.64,1.13,4.09c1.8-0.37,2.78,1.69,1.57,2.97
			c1.18,0.69,2.36,1.37,3.54,2.06c0.37-2.31,0.61-5.84-1.37-7.57c-2.1-1.83-5.37-0.18-6.56,1.95c-1.22,2.19-0.18,5.21,2.3,5.95
			c2.58,0.77,4.88-1.61,4.96-4.08c0.17-5.51-7.08-6.97-9.69-2.43c-1.29,2.24-0.71,5.24,1.05,7.07c2,2.08,4.92,2.33,7.64,2.17
			C252.98,583.72,252.99,579.48,250.26,579.64L250.26,579.64z"/>
	</g>
</g>
<g class="st7">
	<g>
		<path d="M236.41,614.83c0.07-0.01,0.29,0.02,0.29,0.02c-0.07,0.02-0.1-0.32-0.1-0.18c0,0.07-0.09,0.26,0,0.01
			c0.05-0.14,0.48-0.47,0.72-0.51c0.07-0.01,0.48,0.04,0.51,0c-0.12,0.14,0.47-0.3-0.02-0.07c-0.04,0.02-0.13-0.21-0.07-0.18
			c-1.15-0.53,0,0.37-0.15,0.21c0,0,0.07-0.07,0.08-0.02c0.12,0.04,0.24,0.07,0.36,0.11c0.19,0.33,0.38,0.65,0.57,0.98
			c0.08,0.69-0.97,1.19-1.49,1c1.08,0.38,2.32-0.43,2.61-1.48c0.32-1.17-0.4-2.22-1.48-2.61c-1.66-0.59-3.31,0.64-3.75,2.23
			c-0.48,1.76,0.6,3.51,2.37,3.92c3.59,0.82,6.44-3.66,4.37-6.61c-2.01-2.86-6.64-1.9-8.27,0.82c-1.93,3.21,1.03,7.11,4.58,6.45
			c1.13-0.21,1.77-1.57,1.48-2.61C238.69,615.13,237.54,614.62,236.41,614.83L236.41,614.83z"/>
	</g>
</g>
<g class="st7">
	<g>
		<path d="M270.96,603.34c0.47-0.1,0.28,0.02-0.03-0.41c-0.16-0.21-0.29-0.45-0.41-0.68c-0.12-0.24-0.55-0.98-0.4-1.29
			c0.3-0.6,1.21,0.07,1.43,0.34c0.33,0.38,0.53,0.9,0.63,1.39c0.02,0.1,0.01,0.9,0.02,0.92c-0.04-0.05,0.55-0.08,0.55-0.08
			c0.73,0.03,0.34,0.25,0.34-0.12c0.01-0.39-0.3-0.98-0.37-1.4c-0.18-1.13-1.59-1.76-2.61-1.48c-1.2,0.33-1.66,1.47-1.48,2.61
			c0.24,1.45,0.85,3.04,2.12,3.9c1.38,0.93,3.19,0.79,4.41-0.35c2.49-2.33,1.17-6.92-1.13-8.86c-2.61-2.19-7.07-1.49-8,2.09
			c-0.9,3.44,2.28,8.27,6.05,7.51C274.76,606.89,273.63,602.8,270.96,603.34L270.96,603.34z"/>
	</g>
</g>
<g class="st7">
	<g>
		<path d="M300.1,603.79c-1.34-0.18-2.55-0.69-3.42-1.77c-0.57-0.71-1.17-1.64,0.1-1.51c0.55,0.06,1.04,0.57,1.37,0.97
			c0.37,0.45,0.7,1.55,1.13,1.85c0.07,0.28,0.16,0.22,0.27-0.16c0.29-0.29,0.29-0.39,0-0.3c-0.18-0.1-0.58-0.03-0.78-0.05
			c-0.14-0.01-0.39-0.23-0.48-0.21c-0.14,0.03,0.36,0.64-0.38,0.6c2.73,0.15,2.72-4.09,0-4.24c-2.08-0.11-3.72,1.71-3.77,3.73
			c-0.06,2.22,1.73,3.83,3.79,4.27c1.82,0.39,4.23,0.05,5.25-1.71c1.2-2.06-0.25-4.49-1.52-6.14c-1.23-1.62-3.01-2.92-5.13-2.85
			c-1.9,0.06-3.79,1.1-4.48,2.94c-1.55,4.14,3.25,8.16,6.92,8.66c1.14,0.16,2.26-0.28,2.61-1.48
			C301.87,605.41,301.24,603.95,300.1,603.79L300.1,603.79z"/>
	</g>
</g>
<g class="st7">
	<g>
		<path d="M298.76,625.38c-0.69-0.18-2.04-0.36-2.36-1.15c-0.23-0.58,0.25-1.26,0.89-1.2c0.42,0.04,0.72,0.48,0.81,0.88
			c-0.01-0.06,0.04,0.81-0.11,0.68c0.2,0.17,1.13-0.19,1.22-0.32c0.07-0.11,0.02-0.6,0.04-0.74c-0.1,0.36-0.19,0.71-0.29,1.07
			c0.03-0.07,0.06-0.14,0.1-0.21c-0.25,0.25-0.51,0.51-0.76,0.76c0.07-0.04,0.14-0.09,0.21-0.13c-0.36,0.1-0.71,0.19-1.07,0.29
			c0.08,0,0.17,0,0.25,0.01c-0.36-0.1-0.71-0.19-1.07-0.29c0,0-0.01-0.01-0.01-0.01c-0.18-0.31-0.36-0.62-0.55-0.94
			c0.01-0.03,0.02-0.05,0.03-0.08c-0.18,1.13,0.29,2.28,1.48,2.61c1.01,0.28,2.42-0.34,2.61-1.48c0.19-1.17,0.22-2.3-0.67-3.22
			c-0.81-0.83-2.11-1.12-3.15-0.56c-1.81,0.98-1.72,3.83-0.72,5.38c1.15,1.78,3.66,2.36,5.29,0.87c1.36-1.24,1.69-3.28,1.2-4.99
			c-1.13-3.87-6.11-5.14-8.8-2.02c-1.32,1.54-1.57,3.78-0.68,5.59c0.96,1.96,3,2.76,4.98,3.27
			C300.28,630.15,301.41,626.07,298.76,625.38L298.76,625.38z"/>
	</g>
</g>
<g id="Shadow_4_" class="st8">
	<g>
		<path class="st9" d="M222.65,644.41c-16.37-0.75-31.58,8.92-44.54,17.87c-2.53,1.75-15.72,13.07-15.72,4.29
			c0-8.38-0.4-16.68,0.22-25.07c0.63-8.66,1.7-17.33,4.63-25.55c2.92-8.18,7.15-15.93,11.27-23.55c8.49-15.74,21.1-26.8,34.92-37.78
			c2.14-1.7-0.88-4.68-3-3c-11.2,8.9-22.52,18.02-30.52,30.05c-7.86,11.82-15.42,26.04-18.8,39.91c-3.56,14.61-2.96,29.62-2.95,44.5
			c0,3.24-0.05,6.9,3.69,7.98c4.35,1.25,9.16-1.37,12.45-3.82c13.63-10.15,30.57-22.4,48.35-21.58
			C225.38,648.77,225.37,644.53,222.65,644.41L222.65,644.41z"/>
	</g>
</g>
<path id="Salami_2" class="st10" d="M222.82,437.84c-8.88,39.38,122.93,70.65,161.09,24.02c26.44-25.13,28.68-26.65,26.85-62.17
	c-2.83-39.56-104.79-58.99-111.63-45.22c-4.91,9.88-14.13,39.56-24.02,50.87S226.45,421.76,222.82,437.84z"/>
<g class="st7">
	<g>
		<path d="M283.09,433.84c0.14,0-0.05,0.32-0.04,0.35c-0.03-0.07,0.26-0.12,0.28-0.11c-0.16-0.04-0.27-0.07-0.19,0.03
			c0.2,0.22,0.33,0.28,0.41,0.58c0.06,0.22,0.05,0.36-0.04,0.59c-0.01,0.03-0.05,0.06-0.06,0.09c-0.16,0.28-0.24,0-0.15,0.14
			c0.03,0.04,0.43,0.05,0.49,0.29c0.06,0.26-0.51,0.81-0.11,0.47c0.87-0.75,0.77-2.23,0-3c-0.86-0.86-2.13-0.75-3,0
			c-2.46,2.12-0.61,6.31,2.46,6.44c3.33,0.14,5.43-3.47,4.41-6.44c-1.07-3.12-5.05-4.61-7.5-2.03c-2.48,2.61-0.42,6.8,3.04,6.85
			C285.82,438.12,285.82,433.88,283.09,433.84L283.09,433.84z"/>
	</g>
</g>
<g class="st7">
	<g>
		<path d="M257.41,437.76c-0.11,0.01-0.22,0.02-0.32,0.01c0.29,0.05,0.32,0.04,0.09-0.02c0.07,0.03,0.14,0.06,0.21,0.08
			c-0.2-0.13-0.19-0.11,0.04,0.05c-0.25-0.29,0.1,0.17,0.12,0.27c0.02,0.32,0.03,0.36,0.02,0.12c-0.05,0.29-0.05,0.35-0.01,0.19
			c0.05-0.15,0.03-0.1-0.07,0.16c-0.19,0.22-0.21,0.24-0.05,0.08c-0.2,0.17-0.4,0.28-0.68,0.29c-0.62,0.01-1.02-0.55-0.87-1.15
			c-0.27,1.07,0.35,2.35,1.48,2.61c1.1,0.25,2.31-0.33,2.61-1.48c0.38-1.49-0.3-3.11-1.69-3.82c-1.5-0.76-3.2-0.32-4.21,1
			c-0.88,1.13-1,2.78-0.23,4.01c0.75,1.19,2.16,1.96,3.57,1.85c1.1-0.08,2.17-0.92,2.12-2.12
			C259.48,438.8,258.6,437.67,257.41,437.76L257.41,437.76z"/>
	</g>
</g>
<g class="st7">
	<g>
		<path d="M328.6,446.04c-0.18-0.08-0.35-0.16-0.52-0.25c-0.04-0.02-0.38-0.26-0.25-0.15c-0.12-0.1-0.24-0.21-0.34-0.33
			c-0.19-0.22-0.07-0.07-0.15-0.21c-0.06-0.12-0.07-0.13-0.03-0.04c0.05,0.12,0.03,0.07-0.03-0.14c-0.02,0.11,0.04,0.22,0.01,0.34
			c-0.09,0.32-0.31,0.37-0.58,0.46c0.14-0.04,0.27-0.02,0.02-0.01c0.21,0.07,0.26,0.08,0.13,0.03c-0.1-0.04-0.09-0.03,0.02,0.03
			c0.11,0.07,0.12,0.07,0.03,0.01c-0.11-0.08-0.08-0.05,0.09,0.11c-0.01-0.04-0.08-0.08-0.1-0.11c0.23,0.61-0.05,1.39-0.33,2.07
			c1.04-0.42,2.08-0.84,3.11-1.27c-0.36-0.18,0.01-0.01,0.01,0.22c-0.09-2.72-4.33-2.73-4.24,0c0.05,1.44,0.77,2.79,2.09,3.44
			c1.33,0.66,2.59,0.06,3.11-1.27c0.69-1.74,0.85-3.86-0.21-5.5c-0.98-1.5-2.94-2.33-4.69-1.87c-1.91,0.51-2.98,2.45-2.59,4.34
			c0.34,1.65,1.77,3.1,3.28,3.76c1.05,0.45,2.27,0.31,2.9-0.76C329.89,448.04,329.66,446.5,328.6,446.04L328.6,446.04z"/>
	</g>
</g>
<g class="st7">
	<g>
		<path d="M339.58,421.12c-0.4,0.21-1.53,0.07-0.94-0.54c0.1-0.11-0.08-0.1,0.1,0.07c0.14,0.13,0.22,0.32,0.29,0.49
			c0.16,0.4,0.12,0.87,0.09,1.3c-0.02,0.28-0.06,0.57-0.12,0.84c-0.16,0.41-0.12,0.45,0.12,0.13c0.36-0.1,0.71-0.19,1.07-0.29
			c0.44,0.29,0.53,0.31,0.27,0.06c-0.12-0.11-0.22-0.24-0.29-0.4c-0.04-0.08-0.08-0.16-0.12-0.24c0-0.26-0.05-0.28-0.13-0.08
			c0.11,0.03-0.41,0.24-0.33,0.23c-0.31-0.04-0.5-0.23-0.57-0.55c-0.15-0.54-0.3-0.58-0.44-0.11c-0.14,0.07-0.58,0.43-0.52,0.4
			c-0.07,0.04-0.09-0.18-0.1-0.19c-0.07-0.07-0.13,0.26-0.01,0.15c1.96-1.9-1.03-4.9-3-3c-1.6,1.54-1.57,4.1-0.15,5.76
			c1.5,1.75,4.06,1.84,5.91,0.58c1.87-1.28,3.18-4.2,1.48-6.14c-1.42-1.63-4.04-1.38-5.45,0.12c-1.78,1.89-0.87,4.79,0.7,6.47
			c1.85,1.97,4.63,1.28,5.48-1.27c0.75-2.27,0.65-5.11-0.97-6.98c-1.51-1.74-4.06-2.15-5.91-0.7c-1.95,1.52-2.46,4.4-0.9,6.38
			c1.57,1.99,4.39,2.33,6.55,1.17C344.13,423.49,341.99,419.83,339.58,421.12L339.58,421.12z"/>
	</g>
</g>
<g class="st7">
	<g>
		<path d="M362.18,406.73c-0.96-0.41-1.85-0.91-2.61-1.64c-0.35-0.34-0.72-0.72-0.96-1.15c-0.21-0.36-0.13-0.77-0.46-0.57
			c0.77-0.45,1.32,1.14,1.2,1.83c-0.12,0.7-1.14,2.42-1.93,1.65c-0.61-0.58-0.01-4.38,0.81-4c2.47,1.12,4.62-2.54,2.14-3.66
			c-5.52-2.5-8.61,4.48-6.99,8.95c0.84,2.33,3.16,3.59,5.59,2.96c2.02-0.52,3.55-2.11,4.25-4.05c1.45-4.04-1.75-9.14-6.39-7.7
			c-2.5,0.78-3.24,3.54-2.33,5.79c0.97,2.4,3.22,4.25,5.54,5.25C362.52,411.46,364.68,407.81,362.18,406.73L362.18,406.73z"/>
	</g>
</g>
<g class="st7">
	<g>
		<path d="M309.9,404.27c0.26-0.18,0.32-0.23,0.18-0.15c-0.14,0.08-0.07,0.05,0.23-0.09c-0.35,0.12,0.41-0.03,0.15-0.01
			c-0.41,0.03,0.07-0.05,0.14,0.04c-0.06-0.01-0.12-0.03-0.18-0.05c-0.15-0.05-0.08-0.02,0.22,0.1c-0.06-0.03-0.11-0.06-0.16-0.09
			c-0.14-0.08-0.08-0.03,0.18,0.15c-0.01-0.04-0.29-0.38-0.09-0.05c0.19,0.32,0.02-0.05-0.03-0.09c0.12,0.31,0.16,0.38,0.12,0.22
			c-0.04-0.16-0.02-0.08,0.04,0.26c-0.02,0.11-0.04,0.21-0.05,0.32c0.05-0.17,0.03-0.16-0.04,0.02c-0.23,0.3,0.06,0.02,0.06-0.07
			c-0.2,0.25-0.25,0.31-0.14,0.2c0.11-0.11,0.05-0.07-0.2,0.13c0.04,0,0.31-0.17,0.32-0.19c-0.05,0.11-0.48,0.15-0.1,0.07
			c0.26-0.05-0.51,0.01-0.14,0.02c0.42,0.01-0.49-0.14-0.09-0.01c-0.09-0.04-0.19-0.08-0.28-0.12c0.19,0.11,0.15,0.07-0.13-0.12
			c0.85,0.71,2.18,0.89,3,0c0.72-0.79,0.91-2.24,0-3c-1.27-1.07-2.79-1.23-4.29-0.56c-1.26,0.57-2.17,1.9-2.17,3.3
			c0,1.39,0.88,2.67,2.11,3.27c1.49,0.74,3.08,0.53,4.35-0.53c0.85-0.71,0.79-2.27,0-3C311.99,403.44,310.81,403.51,309.9,404.27
			L309.9,404.27z"/>
	</g>
</g>
<g class="st7">
	<g>
		<path d="M318.62,376.22c-0.78,0.19-0.94-3.35-0.94-3.85c0-0.08,0.01-0.34,0.06-0.38c-0.3,0.29,0.22-0.26,0.24,0.24
			c0.03,0.5-0.52,0.93-1.02,1.18c-1.54,0.78-1.2,2.8,0,3.66c1.94,1.39,4.75,0.39,5.74-1.68c1.01-2.13-0.37-4.45-2.58-4.99
			c-2.24-0.55-4.54,0.91-4.73,3.25c-0.22,2.73,2.2,4.47,4.46,5.36c2.54,1,3.64-3.1,1.13-4.09c-0.39-0.15-0.67-0.43-1.03-0.61
			c-1.19-0.59,0.82-0.49-0.79,0.21c-0.23,0.1-0.34-1.32-0.05-1.11c0,1.22,0,2.44,0,3.66c2.38-1.2,3.93-4.21,2.64-6.75
			c-1.21-2.39-4.54-3.42-6.66-1.59c-2.06,1.78-1.79,4.7-1.26,7.1c0.63,2.83,2.82,5.25,5.93,4.47
			C322.39,379.65,321.27,375.56,318.62,376.22L318.62,376.22z"/>
	</g>
</g>
<g class="st7">
	<g>
		<path d="M363.83,379.81c-0.52-0.24-0.95-0.49-1.26-0.95c-0.03-0.05-0.32-0.72-0.32-0.72c-0.23-0.06-0.23,1.29-0.51,1.1
			c-0.02-0.01,0.63-0.13,0.45-0.11c0.57-0.04,0.91,0.67,0.72,1.06c-0.5,1.03-0.28,2.29,0.76,2.9c0.93,0.54,2.4,0.28,2.9-0.76
			c0.8-1.67,0.85-3.63-0.22-5.21c-1.14-1.69-3.15-2.44-5.14-2.1c-2.15,0.37-3.65,2.2-3.02,4.39c0.5,1.76,1.82,3.32,3.49,4.07
			c1.04,0.47,2.28,0.3,2.9-0.76C365.12,381.8,364.88,380.28,363.83,379.81L363.83,379.81z"/>
	</g>
</g>
<g class="st7">
	<g>
		<path d="M384.16,420.84c-0.37-0.13-0.68-0.54-0.75-0.93c-0.06-0.35,0.03-0.38,0.1-0.67c0.04-0.15-0.13,0.08-0.2-0.05
			c0.16,0.32,0.2,0.48,0.07,0.85c-0.15,0.4-1.13,1.55-1.54,1.57c0.36,0.1,0.71,0.19,1.07,0.29c-0.02,0-0.04-0.01-0.06-0.01
			c0.18,0.31,0.36,0.62,0.55,0.94c-0.03-0.09-0.06-0.18-0.09-0.27c0,0.38,0,0.75,0,1.13c0.03-0.09,0.05-0.18,0.08-0.27
			c0.74-2.63-3.35-3.75-4.09-1.13c-0.46,1.62,0.57,3.27,2.26,3.52c1.59,0.24,3.11-0.9,4.18-1.95c2.12-2.06,2.81-5.46,0.53-7.69
			c-2.39-2.34-6.06-0.89-6.93,2.14c-0.83,2.87,1.04,5.67,3.7,6.63C385.6,425.86,386.71,421.76,384.16,420.84L384.16,420.84z"/>
	</g>
</g>
<g class="st7">
	<g>
		<path d="M368.83,447.05c-0.05-0.09-0.26-0.55-0.11-0.12c-0.04-0.11-0.07-0.23-0.11-0.34c-0.16-0.52,0.02,0.4-0.02-0.13
			c-0.02-0.4,0.06,0.18-0.01-0.03c-0.05-0.13,0.12-0.38-0.01-0.04c0.11-0.29-0.01-0.02-0.12,0.09c-0.13,0.09-0.12,0.09,0.03,0
			c-0.08,0.04-0.16,0.08-0.24,0.12c-0.31,0.03-0.38,0.04-0.21,0.03c0.16,0,0.1-0.01-0.2-0.04c0.06-0.13,0.41,0.33,0.16,0.03
			c-0.16-0.07-0.16-0.06,0,0.02c-0.07-0.05-0.14-0.11-0.21-0.16c0.22,0.27-0.09-0.14-0.14-0.25c-0.09-0.22-0.13-0.49-0.05-0.73
			c0.03-0.11,0.08-0.2,0.16-0.28c0.11-0.12,0.09-0.11-0.05,0.03c0.05-0.04,0.1-0.09,0.15-0.13c-0.07,0.05-0.15,0.09-0.23,0.12
			c-0.11,0.05-0.11,0.05,0.01,0c0.14-0.06,0.11-0.06-0.09,0.02c-0.17,0.05-0.34,0.1-0.52,0.14c-1.08,0.27-1.83,1.54-1.48,2.61
			c0.36,1.11,1.45,1.77,2.61,1.48c1.56-0.39,3.22-1.28,3.55-3c0.36-1.82-0.85-3.48-2.61-3.95c-1.68-0.46-3.38,0.28-4.22,1.79
			c-0.84,1.5-0.61,3.45,0.28,4.87c0.59,0.94,1.92,1.4,2.9,0.76C369,449.35,369.46,448.06,368.83,447.05L368.83,447.05z"/>
	</g>
</g>
<g class="st8">
	<g>
		<path d="M256.03,413c-5.36,3.5-11.9,4.38-17.4,7.95c-5.09,3.3-9.99,7.12-12.13,13.02c-2.19,6.05-0.16,12.47,2.25,18.15
			c2.73,6.43,7.38,10.11,13.56,13.1c13.5,6.53,26.42,13.82,41.62,14.87c15.79,1.09,31.18,6.78,47.14,5.37
			c15.18-1.34,32.32-4.52,45.8-11.96c4.78-2.64,0.51-9.96-4.28-7.32c-6.14,3.39-13.46,5.5-20.26,7.12
			c-7.77,1.86-15.98,3.49-23.97,3.88c-8.75,0.42-17.3-1.41-25.84-3.04c-7.94-1.52-15.84-1.88-23.82-2.95
			c-8.26-1.11-15.79-5.54-23.21-9.06c-7.42-3.52-16.09-5.98-19.35-14.21c-1.14-2.86-2.59-6.54-2.09-9.64
			c0.67-4.12,4.2-6.8,7.39-9.02c3.26-2.26,6.58-4.16,10.39-5.28c3.04-0.89,5.78-1.89,8.47-3.64
			C264.86,417.35,260.61,410.01,256.03,413L256.03,413z"/>
	</g>
</g>
<path id="Salami_3_3_" class="st10" d="M424.89,505.66c0,63.59,70.65,63.59,93.26,63.59c22.61,0,79.13-9.89,80.54-83.37
	s-81.96-60.76-90.43-59.35C499.78,427.94,424.89,442.07,424.89,505.66z"/>
<path class="st11" d="M487.2,431.99c-101.18,54.59-63.02,154.92,65.35,130.51"/>
<g class="st8">
	<g>
		<path class="st12" d="M503.85,494.64c1-0.83,1.28,0.14,0.77-0.86c-0.21-0.41-0.39-0.82-0.55-1.25c-0.26-0.7-0.31-1.55-0.56-2.21
			c-0.36,0.4-0.36,0.56-0.01,0.47c0.22-0.02,0.43-0.02,0.65-0.01c0.25,0.01,0.49,0.03,0.73,0.11c0.74,0.24,0.88,0.64,0.92,1.41
			c0.02,0.49,0.1,1.66-0.42,1.94c-0.13,0.07,0.25,0.14-0.16-0.12c-0.26-0.16-0.37-0.52-0.54-0.76c-0.3-0.43-0.07-0.72-0.32-0.14
			c0.13-0.3,0.39-0.55,0.61-0.78c0.19-0.19,0.76-1.09,1.09-0.47c-1.28-2.41-4.94-0.27-3.66,2.14c1.08,2.04,3.85,2.48,5.61,1.04
			c1.91-1.55,2.06-4.46,0.27-6.18c-1.87-1.8-4.61-1.21-6.31,0.47c-1.86,1.85-2.23,3.96-0.84,6.25c1.17,1.94,3.19,3.32,5.51,2.61
			c2.47-0.75,3.4-3.41,3.41-5.76c0-2.43-1.04-4.57-3.38-5.5c-1.92-0.76-4.81-0.85-6.37,0.72c-1.98,1.98-0.64,5.29,0.32,7.43
			c1.16,2.58,3.59,4.65,6.25,2.47C508.95,495.9,505.94,492.91,503.85,494.64L503.85,494.64z"/>
	</g>
</g>
<g class="st8">
	<g>
		<path class="st12" d="M464.89,495.48c-1.12-0.18-2.67-0.41-3.32-1.47c-0.41-0.67-0.26-1.38,0.65-1.28c0.9,0.1,1.29,1.11,1.37,1.89
			c0.05,0.58-0.03,0.52,0.43,0.45c0.33-0.05,0.03,0.23,0.21,0.16c0.02-0.01,0.2-0.23,0.22-0.25c1.97-1.9-1.03-4.89-3-3
			c-2.92,2.82-0.87,8.2,3.46,7.21c4.17-0.95,3.31-6.92,0.93-9.2c-2.68-2.57-7.67-1.65-8.61,2.15c-1.04,4.16,3,6.86,6.53,7.44
			c1.13,0.18,2.28-0.29,2.61-1.48C466.65,497.08,466.02,495.67,464.89,495.48L464.89,495.48z"/>
	</g>
</g>
<g class="st8">
	<g>
		<path class="st12" d="M515.04,451.12c-0.92-0.52-3.18-2.21-1.91-3.48c1.11-1.1,1.95,1.51,1.44,2.41c-0.13,0.22-0.3,0.44-0.5,0.6
			c-0.19,0.14-0.39,0.25-0.62,0.32c0.28,0.13,0.56,0.26,0.83,0.39c-0.04,0.05-0.12-1.02-0.11-1.11c0.06-0.3,0.18-0.64,0.48-0.8
			c0.07-0.04,0.74-0.07,0.73-0.06c0.1-0.44,0.21-0.88,0.31-1.32c-0.15,0.06-0.31,0.09-0.48,0.08c-0.32-0.11-0.77-0.03-1.12-0.11
			c-0.55-0.13-1-0.37-1.48-0.67c-2.32-1.46-4.45,2.21-2.14,3.66c1.86,1.17,4.36,1.8,6.51,1.08c2.17-0.73,3.15-3.05,1.91-5.03
			c-1.14-1.82-3.58-2.35-5.52-1.67c-2.16,0.75-3.48,2.93-3.48,5.18c0.01,2.1,1.04,4.6,3.46,4.63c2.13,0.02,4.14-1.54,5.04-3.39
			c1.95-4-1.54-10.13-6.38-8.43c-2.2,0.77-3.6,3.18-3.45,5.46c0.16,2.63,2.12,4.69,4.3,5.93
			C515.27,456.12,517.41,452.46,515.04,451.12L515.04,451.12z"/>
	</g>
</g>
<g class="st8">
	<g>
		<path class="st12" d="M552.58,475.15c-0.88,0.14-2.1-0.52-2.23-1.46c-0.1-0.72,0.57-1.82,1.39-1.72c0.37,0.05,0.81,0.46,0.92,0.82
			c0.09,0.28-0.07,0.47-0.06,0.68c-0.07,0.07-0.15,0.12-0.26,0.13c0.15,0.05,0.3,0.09,0.45,0.14c0.09,0.64,0.26,0.02-0.35,0.73
			c-0.41,0.48-0.51,0.32,0,0.79c0.62,0.57-0.49,0.48,0.31-0.16c-0.9,0.73-0.74,2.24,0,3c0.87,0.89,2.11,0.72,3,0
			c3.29-2.66-1-8.44-4.59-7.44c-4.22,1.18-2.44,7.45,1.66,7.13c4.29-0.34,5.25-5.71,2.54-8.45c-2.89-2.92-7.56-1.44-8.88,2.26
			c-1.66,4.65,2.87,8.34,7.24,7.65c1.14-0.18,1.75-1.59,1.48-2.61C554.87,475.43,553.7,474.98,552.58,475.15L552.58,475.15z"/>
	</g>
</g>
<g class="st8">
	<g>
		<path class="st12" d="M560.13,513.75c-0.68,0.08-2.65,0.55-3.14-0.24c-0.41-0.67,0.54-1.94,1.07-2.3
			c0.51-0.34,1.49-0.54,1.93,0.06c0.18,0.24,0.06,0.43,0.09,0.69c0.01,0.06-0.09,0.24-0.09,0.2c0.04-0.03,0.08-0.03,0.13-0.01
			c0.46,0.01,0.76,0.34,0.9,0.99c-0.1,0.36-0.19,0.71-0.29,1.07c-0.29,0.12-0.59,0.24-0.88,0.37c-0.36-0.1-0.71-0.19-1.07-0.29
			c0.07,0.04,0.14,0.09,0.21,0.13c2.35,1.4,4.48-2.27,2.14-3.66c-1.85-1.1-4.22,0.25-4.35,2.39c-0.12,1.95,1.65,3.31,3.5,3.23
			c4.3-0.19,5.26-6.02,2.28-8.45c-3.43-2.8-8.18-0.51-9.51,3.33c-0.64,1.86-0.43,3.91,1.01,5.34c1.62,1.61,3.96,1.67,6.08,1.41
			c1.14-0.14,2.12-0.88,2.12-2.12C562.25,514.83,561.28,513.61,560.13,513.75L560.13,513.75z"/>
	</g>
</g>
<g class="st8">
	<g>
		<path class="st12" d="M515.41,528.37c-0.41,0.5,0.35-0.11,0.69-0.11c0.34-0.01,0.22,0.39,0.11-0.04
			c-0.09-0.35-0.16-0.81-0.27-1.14c0,0,0.01-0.25,0.07-0.25c-0.44-0.04-0.24,0.52-0.05,0.17c-0.2,0.37-0.28-0.65-0.11,0.09
			c0.01,0.03,0.03,0.16-0.01,0.23c-0.15,0.27-0.28,0.34-0.59,0.45c-0.14,0.05-0.28,0.14-0.17,0.07c-0.08-0.02-0.16-0.04-0.24-0.06
			c0.59,0.32,0.81,0.71,0.65,1.17c0,0-0.07,0.2-0.03,0.26c-0.02-0.02,0.58-0.09,0.59-0.09c1.14-0.12,2.12-0.89,2.12-2.12
			c0-1.05-0.97-2.24-2.12-2.12c-1.94,0.2-3.92,0.79-4.58,2.85c-0.65,2.01,0.76,3.9,2.75,4.24c3.75,0.64,7.13-3.21,5.41-6.79
			c-1.72-3.57-7.16-2.86-7.82,1.06c-0.3,1.76,0.26,3.99,1.61,5.22c1.36,1.25,3.75,1.46,5-0.08c0.72-0.89,0.87-2.13,0-3
			C517.66,527.62,516.13,527.48,515.41,528.37L515.41,528.37z"/>
	</g>
</g>
<g class="st8">
	<g>
		<path class="st12" d="M474.49,527.81c-0.61,0.47-1.85,0.59-2.54,0.15c0.25,0.25,0.51,0.51,0.76,0.76
			c-0.05,0.54-0.01,0.69,0.12,0.45c-0.12,0.11-0.08,0.1,0.11-0.05c0.37,0.01,0.86-0.23,1.26-0.25c0.05,0,0.84,0.05,0.84,0.05
			c-0.15-0.15-0.24-0.33-0.26-0.52c0.06-0.53,0.4-0.83,1.03-0.91c-2.73-0.01-2.73,4.23,0,4.24c2.58,0.01,3.95-2.96,2.76-5.11
			c-1.25-2.26-4.61-2.33-6.76-1.59c-2.29,0.79-4.46,3.76-2.59,6.04c0.87,1.07,2.42,1.23,3.72,1.33c1.29,0.1,2.65-0.14,3.7-0.93
			c0.91-0.69,1.39-1.83,0.76-2.9C476.87,527.67,475.41,527.11,474.49,527.81L474.49,527.81z"/>
	</g>
</g>
<path id="Salami_4" class="st10" d="M330.21,312.08c5.65,7.07,29.67,7.07,57.93,4.24c28.26-2.83,38.15-33.91,38.15-48.04
	c0-14.13-8.48-39.56-19.78-40.98c-11.3-1.41-19.78,42.39-42.39,52.28C341.52,289.47,324.56,305.01,330.21,312.08z"/>
<g class="st8">
	<g>
		<path class="st12" d="M381.93,300.64c-0.95,0.35-1.28-0.62-0.76-1.38c0.32-0.47,1-0.82,1.57-0.87c0.59-0.05,0.52,0.04,0.9,0.57
			c0.4,0.57,0.6,1.09,0.85,1.71c0.04,0.1-0.14,0.33-0.11,0.39c0.05,0.09,0.32-0.18,0.32-0.19c-0.03-0.24-0.59-0.91-0.72-1.16
			c-0.07-0.13-0.02-0.36-0.07-0.47c-1.18-2.22-2.43,0.05-2.9,0.68c-0.69,0.92-0.14,2.36,0.76,2.9c1.08,0.65,2.21,0.15,2.9-0.76
			c0.8-1.06,1.38-2.35,1.02-3.71c-0.34-1.28-1.43-2.27-2.75-2.39c-2.55-0.23-3.62,2.42-3.12,4.54c0.5,2.12,2.2,4.48,4.55,4.63
			c2.36,0.15,4.19-1.78,4.35-4.08c0.15-2.18-1.34-4.96-3.14-6.22c-2.02-1.4-5.09-0.6-6.84,0.9c-1.81,1.56-2.59,4.22-1.57,6.44
			c1,2.19,3.62,3.41,5.91,2.55C385.59,303.78,384.49,299.68,381.93,300.64L381.93,300.64z"/>
	</g>
</g>
<g class="st8">
	<g>
		<path class="st12" d="M392.11,280.78c-0.22-0.18-0.43-0.37-0.61-0.58c0.04,0.05,0.09,0.11,0.13,0.16
			c-0.1-0.18-0.11-0.19-0.04-0.03c0.05,0.13,0.06,0.14,0.02,0.03c-0.04-0.16-0.03-0.1,0.02,0.17c0.01,0.2-0.07,0.41-0.16,0.58
			c0.2-0.37-0.23,0.26-0.06,0.08c0.17-0.18-0.39,0.25-0.06,0.07c-0.09,0.04-0.18,0.08-0.27,0.12c0.18-0.04,0.16-0.05-0.03-0.01
			c-0.18,0.02-0.21,0.02-0.09,0.02c0.17,0,0.08-0.01-0.25-0.04c-0.19-0.05-0.35-0.17-0.5-0.31c0.22,0.21-0.12-0.22-0.16-0.29
			c-0.07-0.18-0.08-0.19-0.02-0.03c-0.01-0.11-0.03-0.21-0.04-0.32c-0.04,0.06,0.04,0.49,0.01,0.09c0.03-0.18,0.03-0.21,0-0.1
			c-0.05,0.16-0.01,0.08,0.1-0.22c-0.13,0.25,0.06-0.08,0.12-0.14c0.33-0.33,0.24-0.16,0.03-0.07c-1.02,0.45-1.33,2.01-0.76,2.9
			c0.68,1.05,1.81,1.24,2.9,0.76c1.23-0.54,1.93-2.05,1.82-3.34c-0.15-1.72-1.46-3.13-3.25-3.13c-1.52,0-2.99,1.03-3.42,2.5
			c-0.47,1.58,0.39,3.14,1.58,4.13c0.85,0.71,2.18,0.9,3,0C392.82,283,393.02,281.54,392.11,280.78L392.11,280.78z"/>
	</g>
</g>
<g class="st8">
	<g>
		<path class="st12" d="M410.62,277.34c-0.37-0.68-0.77-1.36-1.1-2.06c-0.26-0.54,0.02,0.21-0.16-0.38
			c-0.07-0.27-0.08-0.31-0.02-0.12c-0.16,0.77-0.52,1.12-1.08,1.07c-0.29-0.02-0.4-0.18-0.65-0.28c-0.07-0.03,0.03,0.37,0.04,0.1
			c0,0.01-0.05,0.39-0.12,0.37c0.01,0,0.34-0.18,0.41-0.18c-2.72,0.06-2.73,4.3,0,4.24c4.09-0.09,5.48-6.5,1.66-8.16
			c-2.02-0.87-4.31,0.38-4.49,2.62c-0.15,1.78,1.04,3.42,1.84,4.93C408.25,281.88,411.91,279.74,410.62,277.34L410.62,277.34z"/>
	</g>
</g>
<g class="st8">
	<g>
		<path class="st12" d="M408.69,256.27c0.31,0.22-0.01-0.04-0.07-0.1c-0.14-0.14,0.08,0.22-0.06-0.1c-0.15-0.36-0.02,0.13-0.05-0.1
			c-0.02-0.11-0.06-0.5-0.05-0.09c0-0.12,0.02-0.26,0-0.38c-0.24,0.89-0.71,1.3-1.41,1.23c-0.24,0.07-0.44,0.02-0.62-0.15
			c-0.2-0.12-0.76-0.53-0.56-0.8c-0.02,0.02-0.05,0.72,0.01,0.3c-0.15,1.09,0.26,2.33,1.48,2.61c1,0.23,2.44-0.31,2.61-1.48
			c0.19-1.38,0.23-2.88-0.94-3.87c-1.11-0.95-2.85-1.12-3.94-0.01c-0.94,0.96-1.03,2.45-0.69,3.68c0.34,1.24,1.13,2.19,2.16,2.93
			c0.9,0.65,2.4,0.19,2.9-0.76C410.03,258.07,409.65,256.96,408.69,256.27L408.69,256.27z"/>
	</g>
</g>
<g class="st8">
	<g>
		<path class="st12" d="M359.61,296.82c-0.2,0.14-0.41,0.29-0.62,0.42c-0.09,0.06-0.18,0.11-0.28,0.16
			c0.16-0.05,0.16-0.06,0.02-0.01c-0.15,0.04-0.13,0.05,0.05,0.03c-0.25,0-0.24,0,0.03,0.02c0.18,0.12,0.31,0.17,0.43,0.38
			c-0.24-0.4,0.3,0.71,0.13,0.79c0.09-0.04,0.23-0.43,0.29-0.54c0.19-0.36,0.05-0.07-0.09,0.01c-0.53,0.32-1.15-0.17-1.46-0.57
			c0.69,0.91,1.83,1.39,2.9,0.76c0.9-0.52,1.46-1.98,0.76-2.9c-0.52-0.68-1.06-1.17-1.92-1.36c-0.82-0.18-1.7-0.03-2.42,0.4
			c-1.18,0.7-2.18,2.4-2.26,3.76c-0.09,1.58,1,2.93,2.51,3.35c1.47,0.41,2.87-0.21,4.05-1.04c0.93-0.66,1.37-1.85,0.76-2.9
			C361.97,296.66,360.55,296.15,359.61,296.82L359.61,296.82z"/>
	</g>
</g>
<path class="st13" d="M333.04,307.84c24.87,9.9,53.29,10.32,82.24-8.96"/>
<path id="Salami_5_2_" class="st10" d="M461.63,313.49c-11.3,66.41,69.24,65,81.96,65c12.72,0,93.26-1.41,86.19-70.65
	c-7.07-69.24-79.13-60.76-86.19-60.76C536.52,247.08,472.93,247.08,461.63,313.49z"/>
<path class="st14" d="M539.34,247.08c-93.26,19.78-100.33,130,0,131.3"/>
<g class="st8">
	<g>
		<path d="M491.57,326.77c-0.01-0.03-0.09-0.7-0.14-0.74c-0.17-0.16,0.43-0.28-0.31,0.19c-0.41,0.26-1.47-0.42-1.38-0.48
			c0.01-0.01,0.01,0.2,0.01,0.24c-0.01,0.47-0.27,0.84-0.91,1.13c-1.04,0.47-1.3,1.98-0.76,2.9c0.63,1.07,1.85,1.24,2.9,0.76
			c2.63-1.2,4.08-5.13,2.14-7.53c-1.15-1.43-3.16-1.49-4.54-0.36c-1.57,1.28-1.52,3.22-1.1,5.03c0.26,1.12,1.54,1.77,2.61,1.48
			C491.24,329.06,491.83,327.89,491.57,326.77L491.57,326.77z"/>
	</g>
</g>
<g class="st8">
	<g>
		<path d="M499.23,311.94c-0.26-0.41,0.13,0.42,0.08,0.69c-0.02,0.1-0.25,0.55-0.05,0.27c0.64-0.91,0.2-2.39-0.76-2.9
			c-1.08-0.57-2.22-0.21-2.9,0.76c-0.67,0.96-0.65,2.35-0.02,3.32c0.6,0.93,1.91,1.4,2.9,0.76
			C499.4,314.24,499.87,312.93,499.23,311.94L499.23,311.94z"/>
	</g>
</g>
<g class="st8">
	<g>
		<path d="M512.34,313.22c-0.01-0.04-0.14-0.66-0.07-0.25c0-0.07,0-0.14,0.01-0.21c-0.03,0.19-0.02,0.2,0.01,0.05
			c0.09-0.3-0.25,0.32,0.06-0.16c0.22-0.35-0.13,0.1,0.2-0.2c-0.86,0.11-1.71,0.22-2.57,0.33c0.32,0.17-0.05-0.17,0.05,0
			c0.11,0.19-0.2-0.18-0.02-0.05c0.18,0.13,0.11,0.32,0.03,0.02c0.02,0.07,0.08,0.52,0.06,0.21c-0.02-0.29-0.02,0.09-0.02,0.14
			c-0.01,0.27,0.05-0.4-0.03,0.01c0.03-0.15,0.14-0.28,0.01-0.06c0.22-0.36,0.02-0.04-0.11,0.06c-0.87,0.74-0.76,2.23,0,3
			c0.87,0.87,2.12,0.74,3,0c2.17-1.84,1.65-5.69-0.83-7c-0.87-0.46-1.85-0.33-2.57,0.33c-1.32,1.22-1.84,3.18-1.29,4.89
			c0.34,1.09,1.47,1.79,2.61,1.48C511.93,315.53,512.68,314.31,512.34,313.22L512.34,313.22z"/>
	</g>
</g>
<g class="st8">
	<g>
		<path d="M485.64,293.35c-0.28-0.08,0.25,0.13,0.32,0.18c0.1,0.07,0.4,0.54,0.26,0.25c0.12,0.32,0.15,0.4,0.1,0.24
			c-0.02-0.06-0.03-0.11-0.04-0.17c0.03,0.04,0.06,0.52,0.06,0.22c-0.06,0.35-0.07,0.44-0.02,0.28c0.05-0.16,0.02-0.07-0.1,0.25
			c-0.1,0.18-0.26,0.32-0.43,0.43c0.35-0.22-0.46,0.14-0.06,0.04c-0.11,0.02-0.22,0.03-0.32,0.05c0.18,0.01,0.16,0-0.04-0.02
			c-0.45-0.07,0.08,0.04,0.08,0.05c-0.09-0.04-0.19-0.07-0.28-0.11c0.14,0.09,0.14,0.08-0.02-0.03c-0.13-0.11-0.16-0.12-0.08-0.05
			c0.11,0.12,0.06,0.06-0.15-0.19c-0.03-0.09-0.07-0.17-0.1-0.26c0.04,0.18,0.05,0.17,0.02-0.02c-0.02-0.17-0.02-0.2-0.02-0.08
			c0,0.17,0.02,0.09,0.05-0.23c0.01,0-0.2,0.5-0.01,0.14c0.19-0.37-0.08,0.11-0.09,0.11c0.05-0.07,0.1-0.15,0.16-0.22
			c-0.17,0.15-0.13,0.13,0.11-0.08c-0.92,0.61-1.41,1.9-0.76,2.9c0.59,0.92,1.91,1.42,2.9,0.76c1.39-0.93,2.21-2.6,1.77-4.27
			c-0.41-1.58-1.87-2.6-3.47-2.64c-1.79-0.04-3.2,1.35-3.35,3.09c-0.13,1.56,0.9,3.06,2.4,3.49c1.07,0.3,2.35-0.37,2.61-1.48
			C487.38,294.83,486.79,293.67,485.64,293.35L485.64,293.35z"/>
	</g>
</g>
<g class="st8">
	<g>
		<path d="M513.03,279.65c-0.25-0.14-0.27-0.2-0.34-0.37c-0.12-0.31-0.11-0.38-0.07-0.81c-0.03,0.33,0.12-0.34,0.01-0.07
			c0.03-0.08,0.27-0.44,0.21-0.37c-0.1,0.11,0.27-0.08,0.26-0.08c0.4-0.01,0.93,0.37,1.07,0.67c0.08,0.17-0.01,0.21,0.06,0.26
			c0.26,0.19,0.63-0.14,0.99,0.2c0.31,0.3,0.32,1.04-0.02,1.33c-1.21-0.5-2.41-1-3.62-1.5c0.06,0.82,0.12,1.63,0.19,2.45
			c0.09,1.14,0.91,2.12,2.12,2.12c1.08,0,2.21-0.97,2.12-2.12c-0.06-0.82-0.12-1.63-0.19-2.45c-0.14-1.9-2.18-2.71-3.62-1.5
			c-1.28,1.08-1.22,3.01-0.29,4.28c1.04,1.41,2.93,1.77,4.44,0.88c3.02-1.77,2.45-5.92-0.07-7.78c-2.3-1.7-5.71-1.33-7.2,1.26
			c-1.41,2.46-0.64,5.8,1.82,7.25C513.25,284.7,515.38,281.03,513.03,279.65L513.03,279.65z"/>
	</g>
</g>
<g class="st8">
	<g>
		<path d="M559.49,275.24c-0.43,0.03,0.35,0.19-0.01,0.03c0.28,0.13,0.31,0.15,0.11,0.04c0.21,0.18,0.25,0.21,0.14,0.11
			c-0.06-0.05-0.11-0.1-0.15-0.16c0.16,0.22,0.2,0.26,0.12,0.12c-0.07-0.14-0.05-0.08,0.07,0.17c-0.04-0.19-0.05-0.19-0.01,0
			c0.04,0.14,0.03,0.28-0.03,0.41c0.07-0.23,0.04-0.19-0.07,0.13c0.17-0.35-0.31,0.32-0.01,0.03c-0.07,0.06-0.15,0.12-0.22,0.18
			c0.2-0.11,0.14-0.09-0.16,0.04c0.04-0.01,0.08-0.03,0.12-0.04c0.23-0.05,0.17-0.05-0.18,0c0.06-0.01,0.13-0.01,0.19,0
			c0.17,0.01,0.09-0.01-0.25-0.04c0.4,0.09-0.38-0.25-0.04-0.02c-0.23-0.2-0.29-0.24-0.18-0.13c0.11,0.12,0.06,0.06-0.14-0.17
			c-0.12-0.32-0.14-0.37-0.07-0.16c0.01,0.04,0.02,0.08,0.03,0.12c-0.04-0.35-0.05-0.41-0.04-0.18c0,0.04,0,0.09-0.01,0.13
			c0.05-0.35,0.05-0.41,0-0.18c0.04-0.09,0.08-0.18,0.12-0.26c-0.04,0.08-0.08,0.15-0.13,0.22c0.2-0.24,0.24-0.3,0.13-0.18
			c-0.11,0.11-0.05,0.07,0.18-0.13c-0.07,0.05-0.15,0.08-0.23,0.12c-1.02,0.45-1.33,2.01-0.76,2.9c0.68,1.05,1.81,1.24,2.9,0.76
			c1.57-0.7,2.36-2.77,1.91-4.38c-0.54-1.92-2.41-2.94-4.32-2.56c-1.72,0.34-3.05,1.9-2.96,3.67c0.1,1.98,1.9,3.82,3.94,3.65
			c1.1-0.09,2.17-0.91,2.12-2.12C561.56,276.29,560.67,275.14,559.49,275.24L559.49,275.24z"/>
	</g>
</g>
<g class="st8">
	<g>
		<path d="M575.47,291c-0.46,0.04-0.56-0.04-0.75-0.41c-0.08-0.15-0.02-0.12-0.01,0.01c0.02,0.15-0.07-0.03,0.07-0.12
			c-0.13,0.09,0.33-0.16,0.18-0.12c0.14-0.04,0.44-0.07,0.2-0.1c-0.07-0.01,0.24,0.2,0.07,0.02c0.11,0.11,0.12,0.23,0.07,0.08
			c0.09,0.3,0.01,0.14,0.1,0.41c-0.05-0.15-0.02-0.09-0.02,0.09c0-0.22-0.11,0.16,0.02,0.01c-0.74,0.87-0.85,2.14,0,3
			c0.76,0.76,2.25,0.87,3,0c1.37-1.6,1.63-3.79,0.57-5.65c-1.06-1.85-3.37-2.6-5.35-1.87c-2.13,0.79-3.45,2.85-3.04,5.11
			c0.4,2.2,2.65,3.97,4.89,3.77c1.14-0.1,2.12-0.9,2.12-2.12C577.59,292.06,576.62,290.9,575.47,291L575.47,291z"/>
	</g>
</g>
<g class="st8">
	<g>
		<path d="M551.89,305.78c-0.42,0.05,0.44,0.16,0.06,0.04c0.09,0.04,0.19,0.07,0.28,0.11c0.24,0.2,0.3,0.24,0.18,0.13
			c-0.17-0.17,0.23,0.39,0.06,0.06c0.11,0.29,0.14,0.35,0.09,0.2c-0.04-0.16-0.04-0.08,0.02,0.24c-0.02-0.34-0.04,0.18-0.1,0.31
			c-0.06,0.13-0.4,0.45-0.14,0.24c-0.45,0.38,0.21,0-0.35,0.22c0.35-0.14-0.33,0-0.09,0.01c0.18,0-0.42-0.2-0.08-0.02
			c0.34,0.18-0.28-0.18-0.05-0.03c0.2,0.13-0.27-0.33-0.04-0.04c-0.15-0.22-0.19-0.26-0.1-0.12c0.08,0.14,0.06,0.09-0.05-0.14
			c0.02,0.11,0.02,0.46,0.06,0.19c-0.02-0.18-0.03-0.16-0.02,0.04c0.01-0.08,0.03-0.16,0.04-0.24c0.03,0.01-0.12,0.45-0.13,0.47
			c0.15-0.44-0.17,0.16,0.14-0.23c-0.68,0.87-0.91,2.16,0,3c0.76,0.7,2.27,0.93,3,0c1.15-1.48,1.57-3.26,0.74-5.01
			c-0.75-1.59-2.66-2.37-4.34-2c-1.75,0.39-2.91,2-2.67,3.78c0.22,1.64,1.71,3.27,3.49,3.06c1.1-0.13,2.17-0.88,2.12-2.12
			C553.97,306.86,553.07,305.64,551.89,305.78L551.89,305.78z"/>
	</g>
</g>
<g class="st8">
	<g>
		<path d="M530.23,325.51c-0.84-0.64-2.04-1.69-1.85-2.61c-0.07,0.05-0.15,0.06-0.24,0.03c0.08,0.02,0.15,0.06,0.2,0.12
			c0.03,0.16,0.24,0.36,0.29,0.55c0.23,0.88-0.32,2.06-0.59,2.86c-0.87,2.59,3.22,3.7,4.09,1.13c0.72-2.15,1.21-4.51-0.03-6.57
			c-1.11-1.84-3.45-2.88-5.48-1.95c-1.86,0.86-2.71,2.95-2.44,4.91c0.33,2.33,2.14,3.83,3.9,5.18c0.91,0.7,2.37,0.14,2.9-0.76
			C531.63,327.32,531.14,326.21,530.23,325.51L530.23,325.51z"/>
	</g>
</g>
<g class="st8">
	<g>
		<path d="M519.03,355.82c0.23,0.02-0.11-0.09-0.21-0.24c-0.04-0.05-0.06-0.33-0.08-0.3c-0.09,0.27,0.06-0.05,0.17-0.16
			c-0.17,0.16,0.32-0.1,0.08-0.03c0.31-0.09,0.05-0.05,0.24-0.05c0.16,0-0.06-0.14,0.23,0.05c-0.07-0.05-0.24-0.19-0.12-0.02
			c0.03,0.04,0.08,0.14,0.08,0.19c0,0.14,0.04,0.29-0.04,0.54c-0.07,0.21,0.06-0.15-0.09,0.17c0.13-0.27-0.24,0.16,0.01-0.01
			c0.86,0.11,1.71,0.22,2.57,0.33c0.07,0.08,0.06,0.57,0.1-0.03c0.07-1.14-1.02-2.12-2.12-2.12c-1.21,0-2.05,0.97-2.12,2.12
			c-0.07,1.16,0.39,2.17,1.14,3.02c0.58,0.66,1.84,0.83,2.57,0.33c1.76-1.2,2.6-3.33,2.07-5.42c-0.56-2.23-2.64-3.66-4.91-3.34
			c-2.25,0.31-4.12,2.21-4.09,4.54c0.04,2.55,2.1,4.41,4.52,4.65c1.14,0.11,2.12-1.05,2.12-2.12
			C521.15,356.7,520.18,355.94,519.03,355.82L519.03,355.82z"/>
	</g>
</g>
<g class="st8">
	<g>
		<path d="M551.15,340.32c0.33-0.12,0.39-0.14,0.18-0.08c0.35-0.03,0.44-0.04,0.27-0.04c-0.17,0-0.08,0.02,0.27,0.05
			c-0.08-0.01-0.15-0.03-0.23-0.06c0.3,0.14,0.38,0.17,0.23,0.09c-0.05-0.03-0.1-0.06-0.15-0.09c0.27,0.22,0.32,0.25,0.16,0.1
			c0.06,0.08,0.12,0.16,0.19,0.24c-0.11-0.19-0.09-0.13,0.06,0.19c-0.06-0.22-0.05-0.15,0.02,0.21c0-0.04,0-0.08,0-0.12
			c0.01,0.23-0.04,0.43-0.16,0.62c0.21-0.35-0.35,0.34-0.06,0.05c0.28-0.28-0.43,0.26,0,0.02c0.15-0.07,0.07-0.04-0.23,0.1
			c0.22-0.05,0.15-0.05-0.22,0.01c0.38-0.01-0.49-0.15-0.1-0.02c-0.3-0.14-0.38-0.17-0.24-0.09c0.14,0.09,0.07,0.03-0.21-0.16
			c0.15,0.16,0.1,0.1-0.13-0.17c0.08,0.15,0.07,0.13-0.01-0.06c-0.07-0.19-0.09-0.2-0.03-0.05c0.05,0.22,0.04,0.14-0.03-0.24
			c0,0.04,0,0.07,0,0.11c-0.01,0.23,0,0.15,0.04-0.23c-0.02,0.07-0.04,0.14-0.06,0.21c0.04-0.1,0.08-0.21,0.12-0.31
			c-0.11,0.18-0.07,0.13,0.14-0.17C550.82,340.59,550.87,340.55,551.15,340.32c-0.92,0.62-1.41,1.9-0.76,2.9
			c0.59,0.92,1.91,1.42,2.9,0.76c1.6-1.07,2.08-3.02,1.27-4.75c-0.83-1.78-3.11-2.3-4.76-1.38c-1.68,0.94-2.42,3.07-1.41,4.78
			c1,1.69,3.2,2.27,4.91,1.36c0.98-0.52,1.36-1.96,0.76-2.9C553.41,340.08,552.19,339.75,551.15,340.32L551.15,340.32z"/>
	</g>
</g>
<g class="st8">
	<g>
		<path d="M574,321.49c-0.02-0.02-0.47-0.64-0.49-0.65c-0.22-0.14,0.07-0.16-0.16-0.02c-0.02,0.16-0.1,0.27-0.26,0.33
			c-0.46-0.09-0.92-0.19-1.38-0.28c0.03-0.04,0.09,0.32,0.09,0.26c-0.1,0.75-0.16,1.23-0.92,1.63c1.06,0.61,2.13,1.22,3.19,1.83
			c0.02-1.39-0.84-2.37-2-3c-0.2-0.11-0.4-0.21-0.6-0.31c-0.36-0.18-0.13-0.16-0.17-0.04c0.14,0.21,0.19,0.45,0.16,0.72
			c-0.04,0.23-0.17,0.36-0.4,0.39c-0.36,0.53-0.32-0.02-0.17,0.09c0.89,0.72,2.13,0.87,3,0c0.74-0.74,0.9-2.28,0-3
			c-1.14-0.91-2.45-1.46-3.93-1.11c-1.28,0.3-2.28,1.37-2.61,2.62c-0.33,1.25,0.14,2.53,1.09,3.36c0.37,0.32,0.77,0.56,1.2,0.78
			c0.18,0.1,0.39,0.23,0.58,0.31c0.06,0.04,0.11,0.07,0.17,0.11c-0.33-0.22-0.51-0.53-0.55-0.92c-0.02,1.67,1.8,2.55,3.19,1.83
			c2.96-1.54,4.49-6.74,1.25-8.87c-1.73-1.13-3.88-0.24-4.74,1.52c-0.98,1.99,0.18,3.91,1.46,5.42c0.74,0.87,2.23,0.76,3,0
			C574.86,323.62,574.74,322.36,574,321.49L574,321.49z"/>
	</g>
</g>
<g class="st8">
	<g>
		<path d="M601.08,315.23c-0.36-0.01-0.73-0.01-1.08-0.07c-0.1-0.02-0.69-0.27-0.72-0.27c-0.05,0.01-0.03,0.19-0.05,0.38
			c-0.02,0.07-0.05,0.12-0.1,0.18c-0.11,0.05-0.1,0.05,0.04,0.01c0.14-0.04,0.15-0.04,0.03,0c-0.16-0.06-0.12-0.05,0.14,0.02
			c-0.16-0.15,0.15,0.14,0.17,0.17c0.41,0.56,0.54,1.25,0.66,1.92c0.2,1.13,1.58,1.76,2.61,1.48c1.19-0.33,1.68-1.48,1.48-2.61
			c-0.3-1.75-1.1-3.48-2.62-4.5c-1.51-1.01-3.6-0.95-5.06,0.12c-1.6,1.17-1.99,3.38-0.91,5.05c1.22,1.88,3.33,2.28,5.41,2.35
			C603.81,319.56,603.81,315.32,601.08,315.23L601.08,315.23z"/>
	</g>
</g>
<g class="st8">
	<g>
		<path d="M586.72,351.75c-0.64-0.08-1.25-0.03-1.88,0c-0.26,0.02-1.18-0.04-1.2-0.03c-0.36,0.26-0.04-0.19-0.06-0.02
			c-0.01,0.08,0.12,0.35,0.14,0.43c0.08,0.28-0.22,0.28,0.05,0.17c0.11-0.04,0.26-0.24,0.36-0.31c0.26-0.18,0.55-0.27,0.84-0.32
			c-0.11,0.02,0.49,0.02,0.18,0c-0.05-0.04-0.08-0.09-0.09-0.15c-0.02-0.09-0.02-0.08,0.02,0.04c0.1-0.01-0.07,0,0.03,0.18
			c-0.13-0.25,0.18,0.01-0.03,0.05c0.01-0.08,0.04-0.15,0.09-0.21c0.09-0.16,0.24-0.27,0.45-0.31c-1.07,0.4-1.8,1.44-1.48,2.61
			c0.28,1.03,1.53,1.88,2.61,1.48c2.15-0.8,3.14-3.08,2.31-5.23c-0.95-2.44-3.72-3.21-6.04-2.29c-2.26,0.89-4.51,3.41-3.12,5.94
			c0.57,1.03,1.61,1.75,2.74,2.06c1.35,0.36,2.72-0.03,4.09,0.14c1.14,0.14,2.12-1.07,2.12-2.12
			C588.84,352.61,587.86,351.89,586.72,351.75L586.72,351.75z"/>
	</g>
</g>
<g class="st8">
	<g>
		<path d="M549.05,255.74c-0.18-0.27-0.17-0.11,0.01,0.47c0.19,0.44,0.11,0.83-0.25,1.17c-0.3,0.27-0.81,0.36-1.19,0.23
			c-0.2-0.07-0.31-0.22-0.47-0.32c-0.1-0.14-0.09-0.12,0.01,0.05c-0.09-0.23-0.11-0.27-0.06-0.12c0.03,0.28,0.01,0.26,0.02,0
			c-0.01,0.1-0.04,0.64,0.02,0.07c-0.04,0.35,0.05-0.15,0.18-0.27c0.47-0.12,0.93-0.23,1.4-0.35c0.82,0.26,1.06,1,0.75,2.23
			c0.5-0.99,0.3-2.34-0.76-2.9c-0.96-0.51-2.37-0.3-2.9,0.76c-0.53,1.06-0.46,2.27,0.39,3.16c0.69,0.74,1.81,1.12,2.81,0.85
			c1.89-0.52,2.61-2.59,2.26-4.36c-0.35-1.76-2.01-3.38-3.91-2.9c-1.76,0.44-3.19,2.71-1.95,4.37c0.66,0.88,1.86,1.43,2.9,0.76
			C549.16,258.08,549.76,256.69,549.05,255.74L549.05,255.74z"/>
	</g>
</g>
<g class="st8">
	<g>
		<path d="M594.85,266.37c-0.17-0.22-0.02-0.01,0,0.12c0.02,0.3,0.03,0.37,0.02,0.21c0-0.12,0-0.1-0.02,0.06
			c-0.23,0.35,0.23-0.21-0.01,0.11c-0.03,0.04-0.28,0.38-0.14,0.24c0.14-0.13-0.27,0.16-0.37,0.19c-0.17,0.04-0.33,0.02-0.5-0.02
			c-0.07-0.03-0.13-0.07-0.2-0.1c0.05,0.03,0.1,0.05,0.14,0.08c-0.06-0.04-0.11-0.08-0.17-0.12c0.14,0.15,0.15,0.16,0.05,0.05
			c-0.02-0.04-0.16-0.4-0.12-0.19c0.06,0.31-0.02-0.38,0-0.06c0.01,0.18,0.05-0.26,0.09-0.34c0.07-0.18,0.22-0.15,0.02-0.03
			c0.49-0.28-0.45,0.21,0.06-0.04c-0.38,0.19,0.18,0.01-0.03,0.01c-0.3,0,0.48,0.12-0.03-0.01c-1.07-0.28-2.35,0.36-2.61,1.48
			c-0.25,1.11,0.33,2.3,1.48,2.61c1.55,0.41,3.3-0.05,4.34-1.3c1.25-1.51,1.17-3.68-0.2-5.1c-1.29-1.34-3.48-1.5-4.85-0.19
			c-1.15,1.1-1.67,3.14-0.62,4.5c0.67,0.88,1.85,1.43,2.9,0.76C594.96,268.71,595.57,267.31,594.85,266.37L594.85,266.37z"/>
	</g>
</g>
<g class="st8">
	<g>
		<path d="M614.7,292.7c-0.13,0.27-0.15,0.33-0.07,0.19c0.08-0.13,0.04-0.08-0.12,0.16c-0.07,0.05-0.14,0.1-0.21,0.16
			c0.16-0.09,0.16-0.1-0.01-0.02c-0.17,0.06-0.17,0.07,0.01,0.01c-0.1,0.01-0.19,0.02-0.29,0.03c0.19,0,0.18,0-0.01-0.02
			c-0.14,0-0.27-0.05-0.39-0.14c0.33,0.18-0.24-0.21-0.05-0.04c0.19,0.17-0.25-0.36-0.06-0.03c-0.11-0.27-0.14-0.33-0.1-0.18
			c0.04,0.16,0.02,0.09-0.04-0.22c0-0.28,0.09-0.35-0.04-0.03c0.68-0.52,1.36-1.04,2.04-1.56c-0.06,0-0.56-0.07-0.28-0.01
			c0.28,0.06-0.28-0.09-0.27-0.08c-0.18-0.05-0.21-0.08-0.02,0.01c-0.17-0.08-0.33-0.18-0.49-0.28c-0.94-0.59-2.38-0.23-2.9,0.76
			c-0.55,1.05-0.24,2.27,0.76,2.9c0.97,0.61,2.07,0.91,3.21,0.95c1,0.03,1.72-0.69,2.04-1.56c0.69-1.8-0.49-4.01-2.3-4.55
			c-1.94-0.58-3.84,0.59-4.49,2.43c-0.37,1.05,0.42,2.37,1.48,2.61C613.28,294.45,614.3,293.82,614.7,292.7L614.7,292.7z"/>
	</g>
</g>
<path id="Salami_6_1_" class="st10" d="M619.88,435.01c5.65,73.48,86.19,73.48,98.91,73.48s87.61-4.24,76.3-77.72
	c-11.3-73.48-103.15-70.65-98.91-70.65S614.23,361.53,619.88,435.01z"/>
<path class="st15" d="M691.95,360.12c-107.39,28.26-76.3,149.78,34.97,147.31"/>
<g class="st8">
	<g>
		<path d="M711.86,423.8c-0.06-0.57-0.14-1.17-0.08-1.74c0.06-0.54,0.2-0.19-0.16-0.33c-0.36-0.15,0.67,0.56,0.57,0.58
			c0.15-0.02,0.11-0.37,0.22-0.5c0.1-0.15,0.25-0.24,0.45-0.28c0.9,0.3,1.14,0.32,0.73,0.04c-0.91-0.7-2.37-0.14-2.9,0.76
			c-0.64,1.09-0.15,2.2,0.76,2.9c1.49,1.14,3.73,0.27,4.59-1.23c1.02-1.8,0.08-3.96-1.37-5.2c-1.59-1.36-3.66-1.76-5.39-0.38
			c-1.66,1.33-1.87,3.42-1.65,5.39c0.12,1.14,0.89,2.12,2.12,2.12C710.8,425.92,711.99,424.95,711.86,423.8L711.86,423.8z"/>
	</g>
</g>
<g class="st8">
	<g>
		<path d="M760.24,412.28c-0.12-0.71-0.33-1.81-0.01-2.38c0.16-0.29,0.51-0.42,0.8-0.14c0.52,0.5,0.03,0.83-0.14,1.22
			c-0.08,0.18,0.23,1.08-0.54,0.86c2.62,0.76,3.75-3.33,1.13-4.09c-1.66-0.48-3.42,0.29-4.27,1.79c-0.89,1.57-0.4,3.52,0.93,4.67
			c2.88,2.49,6.97,0.06,7.3-3.39c0.33-3.35-2.74-6.11-6.04-5.26c-3.61,0.92-3.75,4.88-3.24,7.86c0.19,1.13,1.58,1.76,2.61,1.48
			C759.95,414.56,760.43,413.41,760.24,412.28L760.24,412.28z"/>
	</g>
</g>
<g class="st8">
	<g>
		<path d="M768.44,440.43c-0.86,0.02-1.9-0.18-2.35-1.02c-0.26-0.47-0.3-1.61,0.51-1.57c0.55,0.03,0.56,0.74,0.61,1.2
			c-0.02-0.15,0.01,0.6,0.02,0.6c-0.07-0.05,0.63-0.25,0.58-0.25c0.4,0.05,0.03,0.42,0.45,0c1.93-1.93-1.07-4.93-3-3
			c-1.37,1.37-1.91,3.47-0.96,5.24c0.82,1.52,2.73,2.29,4.38,1.88c3.89-0.97,3.36-7.12,0.64-9.04c-3.11-2.2-7.27,0.13-7.61,3.74
			c-0.36,3.86,3.13,6.52,6.73,6.45C771.16,444.62,771.17,440.38,768.44,440.43L768.44,440.43z"/>
	</g>
</g>
<g class="st8">
	<g>
		<path d="M738.25,444.65c0-0.27,0-0.53,0-0.8c0-1.11-0.97-2.17-2.12-2.12c-1.15,0.05-2.12,0.93-2.12,2.12c0,0.27,0,0.53,0,0.8
			c0,1.11,0.97,2.17,2.12,2.12C737.27,446.72,738.25,445.84,738.25,444.65L738.25,444.65z"/>
	</g>
</g>
<g class="st8">
	<g>
		<path d="M758.25,465.78c-0.93,0.14-4.65-0.16-3.56-1.62c0.66-0.89,2.59-1.46,3.6-1.63c1.06-0.18,2.56-0.06,2.53,1.35
			c-0.01,0.64-0.37,1.08-1.01,1.2c-0.22,0.04-2.69-0.7-2.38,0.14c0.94,2.54,5.04,1.44,4.09-1.13c-0.88-2.37-3.56-3.72-5.74-1.98
			c-2.18,1.75-1.53,4.89,0.67,6.3c4.57,2.95,10.29-1.78,8.14-6.81c-2.19-5.15-9.63-3.64-12.9-0.44c-1.96,1.92-2.22,5.02-0.08,6.9
			c2.13,1.86,5.07,2.22,7.76,1.81C762.06,469.47,760.92,465.38,758.25,465.78L758.25,465.78z"/>
	</g>
</g>
<g class="st8">
	<g>
		<path d="M723.41,479.61c0.01-0.05,0.03-0.1,0.04-0.15c0.25-0.25,0.51-0.51,0.76-0.76c0.47-0.34,1.36,0.67,1.3,0.28
			c-0.02-0.13-0.18-0.32-0.24-0.45c-0.11-0.25-0.18-0.59-0.28-0.88c0.02,0.05-0.01-0.17,0-0.17c-0.01,0-0.32,0.53-0.32,0.53
			c0.03,0.03,0.93-0.09,0.91-0.03c-0.05,0.14-0.41-0.48-0.41-0.48c0-0.04,0.01-0.08,0.01-0.11c-0.02,0.07-0.04,0.15-0.07,0.22
			c-0.05-0.04,0.08-0.15,0.11-0.17c-0.44,0.27-1.28,0.04-1.87-0.16c-1.09-0.36-2.32,0.42-2.61,1.48c-0.32,1.15,0.39,2.25,1.48,2.61
			c2.66,0.88,6,0.36,6.98-2.64c0.41-1.26,0.2-2.76-0.71-3.76c-0.98-1.06-2.41-1.33-3.8-1.22c-1.61,0.13-3.1,0.81-3.69,2.42
			c-0.44,1.19-0.22,2.48,0.24,3.63c0.5,1.24,1.19,2.54,2.58,2.94c1.56,0.45,3.25-0.4,3.68-2
			C728.2,478.1,724.11,476.98,723.41,479.61L723.41,479.61z"/>
	</g>
</g>
<g class="st8">
	<g>
		<path d="M698.68,452.89c-0.04,0.06-0.07,0.12-0.1,0.18c0.25-0.25,0.51-0.51,0.76-0.76c1.29-0.19,1.87,0.02,1.73,0.64
			c-0.01-0.19-0.02-0.37-0.01-0.56c0.02-0.28,0.07-0.28,0.09-0.54c0.04-0.38,0.23-0.24,0.09-0.16c-0.22,0.13-0.15-0.09,0.04,0.08
			c0.03,0.03,0.15,0.12,0.13,0.28c-0.07,0.54-0.58,0.79-1.03,0.99c-1.05,0.46-1.29,1.99-0.76,2.9c0.63,1.08,1.85,1.22,2.9,0.76
			c2.2-0.97,3.57-3.52,2.97-5.88c-0.58-2.27-3.11-3.77-5.38-3.22c-2.33,0.57-3.45,3.14-3.28,5.35c0.1,1.35,0.63,2.69,1.96,3.25
			c1.33,0.56,2.83,0.07,3.56-1.17C703.72,452.67,700.06,450.53,698.68,452.89L698.68,452.89z"/>
	</g>
</g>
<g class="st8">
	<g>
		<path d="M663.71,466.28c0.29-0.07,0.02,0.24,0.03-0.09c0-0.25-0.12-0.54-0.12-0.8c-0.01-0.64,0.01-1.47,0.39-1.98
			c-0.25,0.25-0.51,0.51-0.76,0.76c1.12-0.85,2.18,1.16,0.94,1.95c0.97,0.25,1.93,0.51,2.9,0.76c-0.34-0.44-0.47-0.62-0.15-1.12
			c1.45-2.32-2.21-4.45-3.66-2.14c-1.02,1.64-1.04,3.84,0.15,5.4c0.68,0.89,1.84,1.43,2.9,0.76c2.08-1.31,3.24-3.86,2.49-6.28
			c-0.73-2.34-3.16-3.96-5.59-3.75c-6.05,0.52-4.74,12.23,1.61,10.62C667.48,469.7,666.36,465.61,663.71,466.28L663.71,466.28z"/>
	</g>
</g>
<g class="st8">
	<g>
		<path d="M673.3,432.84c0.59-0.79,0.5-0.44,0.99-0.37c0.16,0.02-0.19-0.21-0.08-0.06c-0.04-0.05-0.38-0.88-0.29-0.88
			c0.1,0-0.37,0.3-0.45,0.36c0.26-0.19,0.17,0.08-0.08-0.04c-0.23-0.11-0.33-0.31-0.47-0.47c0.25,0.29-0.11,0.09,0.06-0.2
			c-1.34,2.38,2.32,4.52,3.66,2.14c1.01-1.79,0.5-4.16-1.32-5.22c-1.9-1.11-4.45-0.19-5.3,1.8c-0.77,1.82-0.12,4.27,1.32,5.61
			c1.74,1.62,4.24,1.3,5.62-0.55c0.69-0.92,0.15-2.37-0.76-2.9C675.11,431.44,673.98,431.92,673.3,432.84L673.3,432.84z"/>
	</g>
</g>
<g class="st8">
	<g>
		<path d="M648.78,421.21c0.13,0,0.22,0.15,0.26,0.25c0.06,0.13,0,0.27,0.02,0.39c0,0.05-0.02,0.09-0.06,0.12
			c-0.08,0.11-0.04,0.08,0.12-0.09c0.02,0.04-0.19,0.14-0.2,0.12c0.23-0.06,0.27-0.07,0.13-0.05c-0.05,0.02-0.1,0.01-0.15-0.01
			c-0.04-0.16,0.22,0.16,0.01,0.01c-0.03-0.02-0.07-0.05-0.1-0.07c-0.08-0.14-0.09-0.14-0.01-0.02c0.04-0.01,0.03-0.02,0.08,0.17
			c0.03,0.13,0.04,0.3,0.02,0.08c0.07,0.54,0.05-0.1,0,0.19c0.01-0.06,0,0.22-0.06,0.19c-0.02-0.01,1.06-0.07,1.03-0.03
			c-0.02,0.02-0.04-0.01-0.11-0.15c-0.11-0.22-0.23-0.43-0.34-0.65c-0.49-1.03-1.97-1.3-2.9-0.76c-1.06,0.62-1.25,1.86-0.76,2.9
			c0.53,1.11,1.37,2.22,2.58,2.6c1.39,0.44,2.79-0.07,3.71-1.16c1.53-1.82,1.46-4.77-0.3-6.43c-1.89-1.78-5.03-1.22-6.35,0.97
			c-1.55,2.58,0.53,5.65,3.39,5.67C651.51,425.47,651.52,421.23,648.78,421.21L648.78,421.21z"/>
	</g>
</g>
<g class="st8">
	<g>
		<path d="M674.11,397.41c-0.93-0.74-1.64-1.71-1.52-2.97c0.09-0.86,0.87-2.34,1.84-2.43c0.78-0.07,0.7,0.24,0.91,1.1
			c0.18,0.71,0.32,1.46,0.28,2.2c0,0.01-0.21,1.18-0.24,1.15c0.26,0.25,1.03-2.06,1.16-2.32c-0.97,0.25-1.93,0.51-2.9,0.76
			c-0.22-0.76-0.48-0.83-0.78-0.2c-0.27,0.28-0.51,0.58-0.74,0.89c-0.4,0.56-0.73,1.1-0.89,1.78c-0.31,1.3,0.07,2.57,1.01,3.5
			c1.95,1.91,4.95-1.08,3-3c0.4,0.39,0.14,0.28,0.62-0.18c0.27-0.25,0.52-0.59,0.73-0.9c0.45-0.64,0.75-1.32,0.84-2.1
			c0.17-1.49-0.46-2.61-1.65-3.46c-0.89-0.64-2.42-0.19-2.9,0.76c-1,1.97-1.85,4.21-0.73,6.33c0.82,1.54,2.54,2.54,4.29,2.19
			c4.38-0.89,3.72-7.12,2.45-10.11c-1.73-4.09-6.63-3.07-8.98-0.09c-2.43,3.09-1.88,7.64,1.2,10.09
			C673.23,402.08,676.25,399.1,674.11,397.41L674.11,397.41z"/>
	</g>
</g>
<g class="st8">
	<g>
		<path d="M709.92,387.47c0.03,0.09-0.12,0.13-0.08,0.19c-0.01-0.02,0.53-0.2,0.55-0.2c0.44-0.13,0.97-0.2,1.43-0.13
			c0.34,0.05,0.77,0.18,1,0.47c0.21,0.26,0.2,0.57,0.16,0.61c-0.2,0.24-0.66,0.25-0.95,0.29c-0.25,0.03-0.5-0.01-0.75,0.01
			c-0.06,0-0.57-0.14-0.31,0c0.08,0.04,0.18,0.05,0.03-0.22c-0.04-0.07-0.21,0.09-0.02,0.11c-0.36-0.1-0.71-0.19-1.07-0.29
			c-0.09-0.41-0.17-0.83-0.26-1.24c0.43-0.19,0.5-0.28,0.2-0.25c-0.08-0.08-0.94-0.19-1.03-0.21c0,1.36,0,2.73,0,4.09
			c0.92-0.13,1.84-0.26,2.76-0.39c1.13-0.16,1.76-1.61,1.48-2.61c-0.34-1.22-1.47-1.64-2.61-1.48c-0.92,0.13-1.84,0.26-2.76,0.39
			c-2.15,0.3-1.88,3.59,0,4.09c2.33,0.62,5.1,0.4,5.95-2.27c0.73-2.29-1.21-4.46-3.56-4.02c-4.69,0.87-4.12,7.71,0.35,8.46
			c2.12,0.35,4.83-0.16,6.08-2.08c1.25-1.92,0.79-4.52-0.82-6.09c-1.66-1.63-4.28-1.89-6.43-1.3c-2.29,0.63-4.33,2.7-3.44,5.23
			C706.74,391.15,710.83,390.05,709.92,387.47L709.92,387.47z"/>
	</g>
</g>
<g class="st16">
	<g>
		<path class="st17" d="M114.71,637.25c-1.01,0.27-2.03,0.52-3.06,0.71c-0.37,0.07-2.43,0.11-2.62,0.36c0.37,0.77,0.6,0.95,0.7,0.53
			c0.06-0.18,0.14-0.35,0.24-0.5c0.15-0.27,0.32-0.52,0.52-0.75c0.35-0.4,0.92-0.92,1.49-0.94c0.38-0.02,1.15,0.23,1.2,0.71
			c0.04,0.4-0.61,0.6-0.89,0.7c-0.3,0.11-0.63,0.11-0.92,0.22c-0.2,0.03-0.39,0.05-0.59,0.05c0.09,0.18,0.17,0.36,0.26,0.54
			c0.29-0.01,1.18-0.51,1.51-0.61c-0.87-0.49-1.74-0.99-2.61-1.48c0.14,0.88-0.34,1.56-0.96,2.1c0.69-0.18,1.37-0.36,2.06-0.55
			c0.15,0.13,0.31,0.26,0.46,0.39c-0.81-2.6-4.9-1.49-4.09,1.13c0.41,1.33,1.21,2.07,2.5,2.57c0.72,0.28,1.52-0.08,2.06-0.55
			c1.85-1.61,2.43-3.87,2.05-6.23c-0.18-1.12-1.6-1.77-2.61-1.48c-2.18,0.63-4.35,1.82-4.58,4.33c-0.23,2.41,1.6,4.08,3.94,4.06
			c1.98-0.01,4.22-0.67,5.55-2.2c1.55-1.79,1.37-4.33-0.15-6.07c-3.28-3.75-8.5-1.25-10.23,2.66c-0.93,2.11-0.56,4.74,1.95,5.45
			c1.12,0.32,2.35,0.04,3.46-0.12c1.51-0.23,3-0.55,4.47-0.95C118.47,640.63,117.36,636.54,114.71,637.25L114.71,637.25z"/>
	</g>
</g>
<g class="st16">
	<g>
		<path class="st17" d="M137.83,666.08c0.01-0.09,0.02-0.17,0.03-0.26c-0.1,0.36-0.19,0.71-0.29,1.07c0,0.02,0.01,0.03,0.01,0.05
			c-0.31,0.18-0.62,0.36-0.94,0.55c-0.68-0.39-0.89-0.45-0.62-0.19c0.15,0.22,0.29,0.45,0.43,0.68c0.29,0.46,0.57,0.93,0.86,1.39
			c0.61,0.99,1.23,1.98,1.84,2.97c1.43,2.31,5.1,0.19,3.66-2.14c-0.66-1.06-1.31-2.11-1.97-3.17c-0.61-0.99-1.17-2.14-2.04-2.93
			c-2.01-1.82-4.93-0.64-5.22,1.98c-0.12,1.14,1.06,2.12,2.12,2.12C136.96,668.2,137.71,667.23,137.83,666.08L137.83,666.08z"/>
	</g>
</g>
<g class="st16">
	<g>
		<path class="st17" d="M156.72,570.95c0.82-3.12,1.76-6.2,2.9-9.21c0.97-2.58,2.03-6.27,4.85-7.39c-0.87-0.49-1.74-0.99-2.61-1.48
			c0.33,1.09-5.73,14.78-5.47,14.82c0.49,0.87,0.99,1.74,1.48,2.61c1.01-3.78,2.68-7.2,5.14-10.24c-1.18-0.69-2.36-1.37-3.54-2.06
			c-0.52,2.41-1.42,4.48-2.82,6.51c-1.55,2.25,2.12,4.37,3.66,2.14c1.6-2.32,2.65-4.77,3.25-7.52c0.4-1.87-2.11-3.84-3.54-2.06
			c-2.94,3.64-5.02,7.59-6.23,12.12c-0.27,1.02,0.34,2.41,1.48,2.61c4.16,0.71,5.19-3.37,6.44-6.54c1-2.54,2-5.09,3.01-7.63
			c0.78-1.98,1.89-3.75,1.25-5.87c-0.31-1.01-1.51-1.91-2.61-1.48c-7.06,2.8-8.99,13.05-10.71,19.56
			C151.93,572.46,156.02,573.59,156.72,570.95L156.72,570.95z"/>
	</g>
</g>
<g class="st16">
	<g>
		<path class="st17" d="M208.51,512.73c0.03-0.13,0.53-0.5,0.64-0.54c0.17-0.07-0.02,0.05-0.14,0c0,0,0.4-0.04,0.27,0.12
			c0.77-0.92-0.75,1.18,0.09-0.08c0.18-0.27,0.21-0.86,0.39-1.19c0.19-0.36,0.41-0.7,0.73-0.96c0.11-0.09-0.02-0.09-0.01,0.06
			c-0.01-0.28-0.32-0.99,0.4-0.95c0.42,0.02,0.46,0.65,0.46,0.9c0.05,2.13-1.01-0.67-1.42-0.03c0.01-0.02-0.12,1.32-0.15,1.29
			c-0.05-0.05,0.22-0.2,0.23-0.21c0.39-0.08,0.31,0.14,0.08-0.07c-0.06-0.05,0.05,0.34,0.01,0.31c-0.07-0.05,0.47-0.06,0.5-0.05
			c-0.44-0.13,0.12-0.02,0.03,0.3c-0.13,0.45-0.45,0.4-0.9,0.34c-1.14-0.15-2.12,1.08-2.12,2.12c0,1.27,0.98,1.97,2.12,2.12
			c3.03,0.4,5.57-2.46,5.04-5.4c-0.5-2.77-3.28-4.4-5.93-3.48c-2.71,0.94-3.92,4.26-1.93,6.51c2.01,2.27,5.67,1.86,6.81-1.04
			c0.98-2.48,0.36-6.38-3.03-6.16c-2.86,0.19-4.69,3.72-2.39,5.83c1.98,1.82,5.55,0.85,6.2-1.79c0.74-3.03-2.51-5.63-5.33-4.66
			c-3.04,1.04-5.12,5.69-3.42,8.53c1.55,2.59,6.12,2.48,6.86-0.72C213.22,511.2,209.13,510.07,208.51,512.73L208.51,512.73z"/>
	</g>
</g>
<g class="st16">
	<g>
		<path class="st17" d="M337.76,565.57c0.38-2.99,2.45-9.1,6.5-7.3c1.3,0.58,2.51,2.03,3.09,3.29c1.29,2.82-0.75,3.93-3.29,4.26
			c-1.1,0.14-4.53-0.11-4.4-2c0.08-1.16,3.36-2.39,4.29-2.21c1.59,0.3,2.12,2.02,1.04,3.15c-0.6,0.64-2.03,1.53-2.04-0.2
			c0-0.56,0.73-1.48,1.05-1.94c1.45-2.03,0.61-0.57,0.11-0.24c-0.71,0-1.43,0-2.14,0c0.1,0.17,0.19,0.33,0.29,0.5
			c-0.55,2.66,3.53,3.8,4.09,1.13c0.46-2.24-0.26-4.09-2.24-5.29c-0.61-0.37-1.53-0.41-2.14,0c-2.88,1.95-2.6,6.72,0.92,7.94
			c4.15,1.43,7.53-3.79,5.63-7.32c-2.72-5.05-7.75-0.37-9.24,2.99c-1.78,4.02,1.16,8.48,5.73,7.35c4.24-1.05,6.58-7.26,3.38-10.55
			c-3.14-3.23-9.5-1.56-12.13,1.62c-2.87,3.47,1.03,8.18,4.51,9.13c3.99,1.09,10.84-1.02,11.48-5.74
			c0.63-4.66-4.61-10.37-9.22-10.51c-6.14-0.19-8.88,6.92-9.52,11.93C333.17,568.27,337.42,568.24,337.76,565.57L337.76,565.57z"/>
	</g>
</g>
<g class="st16">
	<g>
		<path class="st17" d="M404.69,625.85c-0.64-0.36-1.92-1.26-1.45-2.18c0.21-0.41,0.82-0.28,0.74,0.25c-0.04,0.32-0.66,0.43-0.9,0.4
			c0.15,0.02-0.42-0.14-0.41-0.14c-0.03-0.03-0.05-0.07-0.08-0.1c-0.04-0.09-0.08-0.03-0.1,0.17c-0.37,0.08-1.83,1.13-1.64-0.43
			c-0.14,1.14,1.07,2.12,2.12,2.12c1.26,0,1.98-0.98,2.12-2.12c0.26-2.2-2.17-3.7-4.14-3.27c-2.1,0.47-2.99,2.75-2.43,4.68
			c1.16,4.01,7.02,4.4,9.07,0.94c2.19-3.7-2.13-8.57-6.04-6.59c-1.76,0.89-2.74,2.91-2.59,4.84c0.18,2.24,1.7,4.02,3.59,5.09
			C404.93,630.85,407.06,627.19,404.69,625.85L404.69,625.85z"/>
	</g>
</g>
<g class="st16">
	<g>
		<path class="st17" d="M432,587.72c2.55,0.57,5.11,1.24,7.68,1.71c1.61,0.29,3.37,0.09,4.13-1.57c1.77-3.86-5.47-6.42-8.03-7.29
			c-2.71-0.92-6.99-0.02-6.39,3.67c0.66,4.1,7.09,3.58,10.05,3.87c2.71,0.26,2.7-3.98,0-4.24c-1.5-0.14-3-0.26-4.49-0.43
			c-0.29-0.03-1.07-0.29-1.32-0.22c-0.53-0.23-0.7,0.17-0.49,1.22c0.16-0.03,0.32-0.04,0.48-0.03c0.98,0.44,2.12,0.68,3.13,1.16
			c0.9,0.43,2.94,1.11,3.36,2.08c-0.07-0.54-0.14-1.09-0.21-1.63c1.08-0.45,1.25-0.71,0.52-0.77c-0.38-0.09-0.77-0.17-1.15-0.26
			c-0.64-0.14-1.28-0.29-1.92-0.43c-1.41-0.31-2.82-0.63-4.23-0.94C430.47,583.04,429.34,587.13,432,587.72L432,587.72z"/>
	</g>
</g>
<g class="st16">
	<g>
		<path class="st17" d="M409.49,366.85c-2.54-1.44-4.66-3.82-5.25-6.76c-0.04-0.23-0.09-0.46-0.13-0.69c0.14-0.8,0.01-0.8-0.37-0.01
			c0.24,0.71,1.02,1.46,1.37,2.15c0.62,1.23,1.66,3.61,1.16,4.96c0.32-0.42,0.65-0.84,0.97-1.27c-0.59,0.41-1.89-1.21-1.86-1.84
			c0.08-1.58,1.25-0.63,1.68,0.17c0.24,0.45,1.12,2.11,0.93,2.58c-0.34,0.83-0.83-0.41-0.97-0.77c-0.26-0.66-0.3-1.29-0.16-2
			c-0.49,0.49-0.99,0.99-1.48,1.48c-0.04,0-0.07-0.01-0.11-0.01c0.64,2.65,4.73,1.53,4.09-1.13c-0.57-2.35-2.8-3.59-5.1-2.95
			c-0.67,0.18-1.34,0.77-1.48,1.48c-0.57,2.95,0.22,6.21,2.83,7.99c2.32,1.59,5.27,0.9,6.34-1.81c1.82-4.65-3.75-13.48-8.93-9.1
			c-2.16,1.83-2.44,4.88-0.91,7.21c1.39,2.11,4.95,4.11,7.29,2.35c2.52-1.9,0.79-6.46-0.26-8.76c-1.1-2.41-3.18-5.86-6.34-5.17
			c-3.49,0.77-3.16,5-2.22,7.59c1.23,3.41,3.65,6.18,6.8,7.96C409.73,371.85,411.87,368.19,409.49,366.85L409.49,366.85z"/>
	</g>
</g>
<g class="st16">
	<g>
		<path class="st17" d="M502.13,415.15c0.34-1.58,0.9-3.47,2.41-4.32c1.1-0.62,2.91-0.57,3.06,0.97c0.16,1.59-1.33,2.46-2.72,2.49
			c-0.41,0.01-0.76-0.13-1.16-0.15c-0.16-0.05-0.32-0.1-0.47-0.15c0.2,0.66,0.36,0.77,0.47,0.33c0.15-0.11,0.58-0.89,0.67-1.13
			c0.1-0.07,0.2-0.14,0.3-0.21c-0.47-1.22-0.11-0.94,1.07,0.86c2.64-0.69,1.52-4.78-1.13-4.09c-2.07,0.54-2.81,2.97-1.71,4.74
			c1.16,1.87,3.79,1.84,5.06,0.13c1.36-1.82,0.73-4.38-1.24-5.44c-2.27-1.23-4.88,0.08-6.18,2.06c-1.26,1.91-2.08,4.68,0.17,6.2
			c1.9,1.29,4.78,1.38,6.86,0.58c4.29-1.65,6.04-7.99,1.82-10.8c-2.07-1.37-4.89-1.29-7-0.06c-2.46,1.43-3.78,4.17-4.36,6.86
			C497.47,416.68,501.55,417.82,502.13,415.15L502.13,415.15z"/>
	</g>
</g>
<g class="st16">
	<g>
		<path class="st17" d="M584.06,427.97c-0.6-0.65-2.33-2.6-1.24-3.54c0.79-0.68,1.68,1.31,1.72,1.91c0.02,0.29,0.01,0.95-0.34,1.08
			c-0.18,0.07-0.49-0.17-0.6-0.13c0,0,0.17,0.36,0.04,0.44c-0.11,0.07,0.23-0.11,0.03,0c0.07-0.04-0.49-0.23-0.35-0.22
			c0.15,0.01-0.42,0.26,0.02,0c-2.33,1.41-0.2,5.08,2.14,3.66c3.2-1.94,2.51-7.55-1.64-7.66c-3.82-0.11-5.97,4.71-2.8,7.14
			c3.11,2.39,7.31,0.24,7.7-3.51c0.38-3.61-2.91-8.08-6.89-6.94c-2.07,0.59-3.43,2.69-3.53,4.77c-0.11,2.34,1.22,4.33,2.74,5.99
			C582.92,432.98,585.91,429.98,584.06,427.97L584.06,427.97z"/>
	</g>
</g>
<g class="st16">
	<g>
		<path class="st17" d="M740.58,512.88c-2.23,5.9,3.04,12.23,9.26,10.75c6.15-1.47,8.26-9.36,3.53-13.67
			c-2.48-2.26-6.34-2.57-9.49-1.85c-3.45,0.79-3.8,4.94-2.95,7.84c0.85,2.88,3.98,5.22,7,3.97c2.46-1.02,3.45-4.25,2.16-6.55
			c-0.8-1.42-2.6-2.45-4.23-1.89c-1.54,0.53-2.35,2.4-1.61,3.86c1.69,3.32,6.55-0.15,3.94-2.95c-1.86-2-4.86,1-3,3
			c0.06,0.06,0.12,0.13,0.18,0.19c-0.18-0.69-0.36-1.37-0.55-2.06c0.09-0.14,0.19-0.29,0.28-0.43c0.5-0.21,1-0.41,1.5-0.62
			c-0.1,0-0.19,0.01-0.29,0.01c0.61,0.35,1.22,0.7,1.83,1.05c0.03,0.11,0.07,0.22,0.1,0.32c-0.21,0.5-0.41,1-0.62,1.5
			c0.1-0.11,0.19-0.21,0.29-0.32c-0.5,0.21-1,0.41-1.5,0.62c-0.05-0.34-0.05-0.29,0,0.13c-0.04,0.08-0.07,0.17-0.11,0.25
			c-0.7-0.14-1.02-0.53-1.27-1.17c-0.21-0.55-0.36-1.46-0.18-2.04c0.24-0.76,0.34-0.69,1.23-0.76c2.65-0.21,5.54,0.71,5.66,3.79
			c0.09,2.35-2.08,4.09-4.38,3.74c-2.66-0.41-3.55-3.34-2.71-5.59C745.63,511.45,741.54,510.35,740.58,512.88L740.58,512.88z"/>
	</g>
</g>
<g class="st16">
	<g>
		<path class="st17" d="M789.84,502.6c0.01-0.73,0.32-1.49,0.87-1.89c-0.86-0.11-1.71-0.22-2.57-0.33c0.2,0.15,0.38,0.31,0.55,0.49
			c-0.15-0.16,0.21,0.29,0.09,0.09c0.15,0.25,0.14,0.21,0.08-0.01c0.11-0.18,0.1-0.15-0.03,0.07c0.03-0.06,0.07-0.11,0.13-0.15
			c0.25,0.01,0.52-0.19,0.84-0.05c0.21,0.07,0.37,0.21,0.48,0.42c-0.1-0.18-0.12-0.2-0.04-0.06c0.32,0.94-0.63,1.88-1.62,1.6
			c-0.89-0.25-1.12-1.19-0.34-2.18c-0.71,0.89-0.87,2.12,0,3c0.74,0.74,2.28,0.9,3,0c0.81-1.01,1.05-2.2,0.39-3.38
			c-0.51-0.91-1.55-1.54-2.58-1.58c-2.54-0.11-3.72,2.86-2.41,4.81c1.42,2.11,4.42,1.88,5.75-0.21c1.25-1.98,0.47-4.48-1.3-5.86
			c-0.68-0.53-1.76-0.93-2.57-0.33c-1.82,1.35-2.93,3.25-2.97,5.55C785.56,505.32,789.79,505.32,789.84,502.6L789.84,502.6z"/>
	</g>
</g>
<g class="st16">
	<g>
		<path class="st17" d="M632.78,369.13c-3.56,0.11-8.69,0.09-11.68-2.21c-2.93-2.26,0.25-4.24,2.81-4.19
			c1.93,0.04,4.38,0.58,5.85,1.93c0.66,0.61,1.66,1.84,1.15,2.76c-0.52,0.93-1.43,0.24-2.44-0.02c-0.78-0.2-5.68-1.36-3.29-1.82
			c1.06-0.2,1.31,0.67,2.38-0.17c1.02-0.81,0.45-0.69-0.42-1.15c-1.11-0.59-2.14-1.04-3.42-0.94c-2.7,0.21-2.73,4.45,0,4.24
			c2.39-0.18,4.47,3.27,6.89,0.62c2.24-2.46-0.04-5.56-2.64-6.35c-2.47-0.76-6.16-0.95-7.77,1.53c-1.79,2.77,0.28,5.55,2.81,6.8
			c1.69,0.84,3.65,1.18,5.46,1.63c1.51,0.38,3.1,0.89,4.59,0.14c2.84-1.44,2.64-5.56,1.38-7.99c-2.97-5.73-14.32-8.08-18.04-1.95
			c-1.93,3.18-0.38,6.72,2.54,8.6c3.92,2.52,9.29,2.93,13.82,2.79C635.5,373.29,635.52,369.05,632.78,369.13L632.78,369.13z"/>
	</g>
</g>
<g class="st16">
	<g>
		<path class="st17" d="M459.3,286.8c-1.92-0.7,2.9-3.62,3.28-3.83c1.79-0.99,3.35-2.1,4.42-3.88c1.43-2.36-2.13-4.36-3.66-2.14
			c-2.29,3.34-3.83,7.06-4.55,11.05c1.29-0.17,2.58-0.34,3.87-0.51c-1.42-2.8-1.17-6.26,0.8-8.75c1.37-1.73-0.38-4.77-2.57-3.33
			c-3.72,2.44-5.44,6.69-4.44,11.03c0.42,1.84,2.95,1.99,3.87,0.51c0.66-1.07,0.99-2.15,1.18-3.39c0.13-0.9,0.11-3.39,1.49-3.26
			c-0.61-1.06-1.22-2.13-1.83-3.19c-1.09,2-2.17,3.99-3.26,5.99c-1.31,2.4,2.35,4.54,3.66,2.14c1.09-2,2.17-3.99,3.26-5.99
			c0.82-1.51-0.24-3.03-1.83-3.19c-1.92-0.19-3.55,0.91-4.5,2.53c-1.14,1.94-0.66,4.34-1.83,6.21c1.29,0.17,2.58,0.34,3.87,0.51
			c-0.56-2.42,0.41-4.87,2.49-6.24c-0.86-1.11-1.71-2.22-2.57-3.33c-3.21,4.06-3.82,9.24-1.46,13.88c0.79,1.56,3.55,1.28,3.87-0.51
			c0.66-3.67,2.01-6.96,4.12-10.04c-1.22-0.71-2.44-1.43-3.66-2.14c-1.88,3.09-6.35,3.26-8.01,6.8c-1.32,2.83-0.09,6.08,2.84,7.14
			C460.74,291.82,461.84,287.72,459.3,286.8L459.3,286.8z"/>
	</g>
</g>
<g class="st16">
	<g>
		<path class="st17" d="M453.83,257.13c0.2-0.09-0.08-0.06-0.05-0.13c-0.05,0.12,0.17-0.09,0.15-0.09c0.1,0.02,0.5,0.3,0.68,0.44
			c0.51,0.39,1.11,0.94,1.35,1.55c0.05,0.13-0.1,0.43-0.11,0.42c0.19-0.29,0.48-0.34,0.9-0.13c0.43,0.26,0.44,0.69,0.01,1.28
			c1.85-2-1.14-5-3-3c-2.58,2.79,0.84,7.22,4.21,5.43c3.44-1.83,2.31-6.17-0.08-8.3c-1.31-1.17-2.9-2.18-4.72-1.84
			c-1.61,0.3-3.01,1.53-3.48,3.12c-0.47,1.6,0.07,3.27,1.33,4.34c1.46,1.23,3.26,1.31,4.95,0.58c1.05-0.46,1.29-1.99,0.76-2.9
			C456.1,256.8,454.88,256.67,453.83,257.13L453.83,257.13z"/>
	</g>
</g>
<g class="st16">
	<g>
		<path class="st17" d="M747.62,513.81c0,1.07,0,2.14,0,3.2c0,1.11,0.97,2.17,2.12,2.12c1.15-0.05,2.12-0.93,2.12-2.12
			c0-1.07,0-2.14,0-3.2c0-1.11-0.97-2.17-2.12-2.12C748.6,511.74,747.62,512.62,747.62,513.81L747.62,513.81z"/>
	</g>
</g>
<g class="st16">
	<g>
		<path class="st18" d="M68.63,669.39c-1.58,0.74-3.87,0.23-5.49-0.27c-1.55-0.48-3.23-1.77-1.06-2.87
			c1.01-0.51,2.33-0.62,3.41-0.22c0.35,0.13,1.06,0.43,1.22,0.83c0.16,0.39-0.93,0.49-1.21,0.09c0,0.71,0,1.43,0,2.14
			c0.43-0.75,1.64-0.78,1.28,0.32c0.32-0.42,0.65-0.84,0.97-1.27c-0.29,0.2-2.05-1.36-2.17-1.48c-0.71-0.67-1.45-1.42-1.93-2.27
			c0.07,0.54,0.14,1.09,0.21,1.63c-0.25,0.22-0.49,0.45-0.74,0.67c-1.52,2.27,2.15,4.4,3.66,2.14c2.35-3.52-1.35-8.19-5.28-6.16
			c-4.45,2.31,0.72,7.2,3.26,8.67c1.44,0.84,3.42,1.5,4.95,0.57c1.61-0.98,1.68-3.14,0.98-4.7c-1.71-3.86-6.84-3.77-8.86-0.27
			c-0.35,0.61-0.43,1.53,0,2.14c2.16,3.04,8.6,3.23,9.31-1.23c0.71-4.45-4.81-6.69-8.35-6.19c-3.86,0.55-7.82,4.26-5.44,8.32
			c2.36,4.04,9.51,4.9,13.41,3.06C73.24,671.89,71.09,668.24,68.63,669.39L68.63,669.39z"/>
	</g>
</g>
<g class="st16">
	<g>
		<path class="st18" d="M97.36,616.36c-0.72,0.29-1.44,0.59-2.16,0.88c-1.52-1.67-3.04-3.34-4.55-5.01c0.11-1,2.15-2.57,2.98-3.31
			c1.67-1.5,3.28-2.95,4.78-4.63c4.07-4.55,8.09-6.73,14.01-8.31c-0.8-0.32-1.6-0.65-2.39-0.97c2.41,3.7-1.73,6.69,0.28,10.01
			c1.57,2.59,6.22,3.35,8.51,5.25c0-1,0-2,0-3c-2.83,2.74-8.5,3.99-12.23,5.25c-1.72,0.58-3.46,1.12-5.21,1.62
			c-1.17,0.33-2.34,0.64-3.51,0.93c-0.42-1.92,0.15-3.17,1.7-3.73c-0.86-1.11-1.71-2.22-2.57-3.33c-1.31,1.31-3.88,5.09-5.77,5.44
			c0.69,0.18,1.37,0.36,2.06,0.55c0.73,0.7,10.09-8.45,11.54-9.48c2.68-1.92,5.86-2.57,7.71-5.48c0.92-1.44-0.65-3.85-2.39-3.11
			c-5.9,2.48-16.73,7.24-14.46,15.32c0.4,1.41,1.89,1.84,3.11,1.27c4.84-2.25,9.07-5.19,12.91-8.88c-1.11-0.86-2.22-1.71-3.33-2.57
			c-3.44,5.07-9.48,7.14-12.71,12.22c-0.96,1.5,0.65,3.73,2.39,3.11c5.32-1.89,10.58-3.92,15.79-6.09c1.23-0.51,2.04-1.82,1.27-3.11
			c-1.03-1.73-2.09-2.54-4.01-3.11c-0.19,1.39-0.38,2.78-0.56,4.16c2.68,0.19,0.21-1.22-0.82-1.99c-2.18-1.64-4.29,2.03-2.14,3.66
			c2.69,2.03,7.23,3.49,8.91-0.65c1.77-4.36-2.96-5.04-5.96-5.26c-2.45-0.18-2.79,3.5-0.56,4.16c0.49,0.39,0.98,0.78,1.48,1.17
			c0.42-1.04,0.84-2.08,1.27-3.11c-5.21,2.17-10.47,4.2-15.79,6.09c0.8,1.04,1.6,2.08,2.39,3.11c1.81-2.84,4.93-4.14,7.45-6.23
			c2.08-1.73,3.75-3.77,5.27-5.99c1.39-2.04-1.64-4.2-3.33-2.57c-3.59,3.46-7.54,6.12-12.05,8.22c1.04,0.42,2.08,0.84,3.11,1.27
			c-1.3-4.63,8.36-8.79,11.5-10.11c-0.8-1.04-1.6-2.08-2.39-3.11c-1.13,1.78-3.88,2.42-5.59,3.55c-1.56,1.03-2.97,2.28-4.37,3.51
			c-2.79,2.44-8.45,5.69-9.68,9.3c-0.61,1.79,0.32,3.94,2.28,4.32c3.25,0.62,6.66-4.74,8.49-6.57c1.68-1.69-0.48-4.6-2.57-3.33
			c-2.53,1.54-5.14,3.48-5.2,6.72c-0.04,2.44,1.37,4.46,3.76,4.96c3.96,0.84,9.81-2.04,13.45-3.34c3.92-1.4,9.36-2.81,12.39-5.74
			c0.77-0.74,0.87-2.27,0-3c-1.23-1.02-2.46-2-3.87-2.76c-0.57-0.31-1.17-0.58-1.77-0.83c-2.28-0.93-1.49,0.01-1.25-2.2
			c0.36-3.37,0.78-5.54-1.23-8.62c-0.52-0.8-1.45-1.23-2.39-0.97c-5.25,1.4-10.02,3.08-13.85,7.09c-1.93,2.02-3.62,4.15-5.73,6
			c-1.74,1.54-3.58,3.04-4.73,5.1c-1.91,3.44-1.6,7.68,1.72,10.09c3.36,2.43,7.34,1.49,10.79-0.16
			C101.96,618.84,99.81,615.19,97.36,616.36L97.36,616.36z"/>
	</g>
</g>
<g class="st16">
	<g>
		<path class="st18" d="M400.75,526.81c-2.06,0.11-5.05-0.28-5.49-2.8c-0.43-2.46,2.66-2.97,4.28-2c1.74,1.04,3.21,4.86-0.12,4.72
			c-0.9-0.04-1.98-0.94-1.54-1.93c0.15-0.34,0.39-0.44,0.74-0.58c0.13-0.01,0.26-0.02,0.38-0.03c0.08-0.65,0.21-0.37,0.39,0.84
			c2.69-0.37,1.55-4.46-1.13-4.09c-2.97,0.41-3.9,4.22-1.76,6.16c2.17,1.97,5.64,0.84,6.6-1.83c0.98-2.74-1.37-5.27-4.1-5.32
			c-2.72-0.05-5.22,2.03-5.41,4.78c-0.49,7,9.89,8.42,11.92,1.96c1.96-6.22-6.18-11.61-11.44-8.44c-2.85,1.72-3.84,5.23-2.44,8.22
			c1.63,3.49,5.49,4.78,9.11,4.58C403.46,530.9,403.48,526.66,400.75,526.81L400.75,526.81z"/>
	</g>
</g>
<g class="st16">
	<g>
		<path class="st18" d="M654.54,551.91c3.67-8.75,17.34-6.78,24.33-11.41c4.24-2.81,7.18-5.82,12.48-6.68
			c2.26-0.36,4.55-0.48,6.83-0.77c1.5-0.19,6.39-1.82,7.28-1.29c0.68,1.41,1.36,2.82,2.04,4.23c-0.4,0.24-0.79,0.47-1.19,0.71
			c-0.63,0.61-1.77,1-2.51,1.48c-1.76,1.15-3.35,2.52-5.06,3.73c-4.13,2.93-8.74,4.67-13.64,5.82c-5.27,1.24-10.7,1.96-16.07,2.61
			c-5.18,0.62-12.15,2.35-17.32,1.32c0.49,0.49,0.99,0.99,1.48,1.48c-0.07-0.22,31.59-7.44,34.91-8.5
			c5.74-1.84,11.44-3.97,16.99-6.31c2.05-0.87,4.76-2.3,3.46-5.04c-1.24-2.63-4.71-2.09-6.99-1.71c-5.92,0.98-11.76,2.47-17.44,4.42
			c-5.92,2.03-11,4.16-17.26,4.98c-3.67,0.48-6.63,1.72-8.67,4.89c-0.92,1.42,0.31,3.11,1.83,3.19c6.14,0.31,11.73-1.49,17.42-3.62
			c6.05-2.26,12.12-3.62,18.32-5.36c1.27-0.36,5.35-2.04,0.41,0.4c-1.27,0.63-2.56,1.08-3.91,1.51c-3.24,1.03-6.5,2.02-9.74,3.03
			c-5.92,1.84-14.54,6.22-20.57,3.22c-2.43-1.21-4.58,2.44-2.14,3.66c7.42,3.69,15.65-0.25,22.95-2.52
			c5.26-1.63,17.3-2.94,19.24-9.52c2.33-7.92-8.75-3.48-11.91-2.75c-9.95,2.3-19.7,8.25-30.07,7.73c0.61,1.06,1.22,2.13,1.83,3.19
			c2.25-3.49,6.95-2.75,10.47-3.4c3.62-0.67,6.96-2.34,10.39-3.61c3.38-1.25,6.81-2.34,10.3-3.25c2.47-0.65,10.33-3.49,12.54-1.81
			c-0.35-0.61-0.7-1.22-1.05-1.83c0.1,0.82-15.87,5.92-17.52,6.45c-5.63,1.81-11.35,3.05-17.16,4.13
			c-3.93,0.73-22.93,2.63-20.7,9.59c0.22,0.67,0.75,1.33,1.48,1.48c6.77,1.36,15.39-0.74,22.19-1.64
			c6.91-0.92,13.99-1.87,20.51-4.44c5.87-2.31,11.17-6.47,16.36-10.01c3.19-2.17,5.49-5.86,2.65-9.41
			c-3.73-4.65-10.08-1.94-14.9-1.33c-6.4,0.81-11.78,1.15-17.09,5.19c-2.74,2.09-5.24,4.01-8.58,5.07
			c-3.42,1.09-7.04,1.37-10.46,2.47c-4.92,1.58-8.79,4.32-10.81,9.14C649.4,553.29,653.5,554.39,654.54,551.91L654.54,551.91z"/>
	</g>
</g>
<g class="st16">
	<g>
		<path class="st18" d="M459.27,412.6c-0.16,1.65-0.94,2.76-2.68,2.71c-0.33-0.01-1.71-0.17-2.05-0.41
			c-0.15-0.06-0.3-0.11-0.45-0.17c0.51-0.05,0.93-0.28,1.24-0.69c1.16-0.76,2.12-1.71,3.43-2.24c1.29-0.52,3.32-0.88,2.77,1.17
			c-0.31,1.14-1.1,2.2-2.01,2.94c-1.14,0.93-2.34,1.01-3.62,1.52c-0.58-0.18-0.76-0.1-0.53,0.25c0.11,0.43,0.21,0.32,0.28-0.36
			c0.51-0.44,0.84-1.13,1.38-1.6c0.48-0.41,1-0.76,1.55-1.06c0.34-0.2,0.7-0.36,1.08-0.49c0.8-0.15,0.89-0.23,0.28-0.24
			c-0.32-0.42-0.65-0.84-0.97-1.27c-0.12-0.37-1.18,0.68-1.48,0.85c-0.7,0.4-1.46,0.65-2.26,0.75c-2.68,0.3-2.71,4.54,0,4.24
			c2.86-0.32,6.23-1.64,7.63-4.39c1.62-3.17-1.62-4.9-4.31-4.03c-2.82,0.91-6.05,3.2-7,6.14c-1.05,3.23,1.12,5.58,4.37,5.43
			c3.07-0.14,6-1.76,7.9-4.14c1.79-2.25,3.07-5.82,1.19-8.39c-1.87-2.57-5.53-2.29-8.12-1.14c-2.59,1.15-6.36,3.6-6.76,6.67
			c-0.49,3.8,4.25,5,7.19,4.89c3.89-0.15,5.88-3.43,6.21-6.96C463.77,409.89,459.53,409.91,459.27,412.6L459.27,412.6z"/>
	</g>
</g>
<g class="st16">
	<g>
		<path class="st18" d="M417.53,331.6c-1.47,0.3-7.3,2.12-7.54,0.84c-0.22-1.18,2.99-2.2,4.1-2.94c2.25-1.5,4.38-3.58,7.38-3.18
			c1.45,0.19,5.47,1.25,6.55,1.9c3.28,1.96-0.9,2.78-2.65,3.2c-3.03,0.72-6.59,1.99-9.72,1.35c-3.94-0.8,0.07-2.15,1.94-2.81
			c2.94-1.04,7.3-2.05,10.21-0.36c-0.35-0.61-0.7-1.22-1.05-1.83c-0.18-1.4-12.33,2.05-13.38,2.53c-2.48,1.12-0.33,4.78,2.14,3.66
			c4.16-1.88,8.52-0.69,12.57-2.18c1.77-0.65,3.26-2,2.91-4.01c-0.92-5.25-11.33-3.01-14.53-1.9c-3.02,1.06-10.87,4.25-7.12,8.75
			c4.12,4.93,14.45,1.83,19.2,0.38c3.59-1.1,9.21-5.27,5.36-9.44c-0.98-1.07-1.88-1.08-3.24-1.33c-2.39-0.43-4.4-0.86-6.69-1.53
			c-2.54-0.75-4.41-1.09-6.96-0.08c-3.08,1.22-6.59,3.7-9.37,5.51c-1.62,1.06-3.09,2.46-3.28,4.49c-0.71,7.68,10.64,3.8,14.28,3.06
			C421.33,335.15,420.2,331.06,417.53,331.6L417.53,331.6z"/>
	</g>
</g>
<g>
	<g>
		<path class="st19" d="M421.88,678.37c13.52-6.03,24.42-19.71,31.74-32.25c3.61-6.18,6.56-13.01,11.64-18.17
			c5.74-5.82,14.68-8.52,22-11.79c2.49-1.11,0.33-4.77-2.14-3.66c-6.66,2.98-14.39,5.47-20.16,10.03
			c-5.38,4.26-8.82,10.3-12.08,16.22c-7.61,13.81-18.3,29.33-33.15,35.96C417.26,675.82,419.41,679.48,421.88,678.37L421.88,678.37z
			"/>
	</g>
</g>
<g>
	<g>
		<path class="st19" d="M770.04,585.62c5.21-1.89,8.69-3.12,12.37-7.64c3.47-4.26,5.63-9.38,7.56-14.47
			c2.64-6.97,5.06-14.03,7.65-21.02c2.85-7.69,5.77-15.04,14.8-16.47c2.69-0.43,1.55-4.51-1.13-4.09
			c-13.27,2.11-16.41,15.72-20.36,26.58c-2.48,6.82-4.6,13.97-7.85,20.47c-1.39,2.79-3.01,5.44-5.17,7.71
			c-2.82,2.97-5.36,3.53-9,4.85C766.36,582.45,767.46,586.55,770.04,585.62L770.04,585.62z"/>
	</g>
</g>
<g>
	<g>
		<path class="st19" d="M40.63,735.87c8.12-3.74,10.89-13.07,16.28-19.57c2.28-2.76,3.73-5.64,5.17-8.9
			c2.3-5.24,5.73-8.23,11.4-9.45c5.08-1.09,9.65-1.12,14.49,0.58c4.17,1.46,8.63,1.76,12.82,3.24c8.78,3.1,16.71,8.09,25.93,9.94
			c2.66,0.54,3.8-3.55,1.13-4.09c-9.74-1.96-18.08-7.48-27.47-10.46c-2.38-0.76-4.77-1.21-7.21-1.68c-2.56-0.5-4.82-1.7-7.31-2.33
			c-3.67-0.92-8.17-0.18-11.84,0.42c-8.59,1.41-12.98,5.83-16.37,13.54c-1.96,4.46-5.32,7.64-7.92,11.68
			c-3.25,5.07-5.4,10.74-11.21,13.41C36.02,733.35,38.17,737,40.63,735.87L40.63,735.87z"/>
	</g>
</g>
<g>
	<g>
		<path class="st19" d="M633.38,328.21c3.21,2.47,6.88,3.63,10.71,4.79c5.16,1.55,9.71,3.91,14.38,6.56
			c9.6,5.44,18.33,10.41,26.03,18.45c1.89,1.97,4.89-1.03,3-3c-7.52-7.85-15.78-12.81-25.17-18.14c-4.14-2.35-8.25-4.8-12.71-6.51
			c-4.83-1.85-9.9-2.57-14.1-5.8C633.36,322.88,631.25,326.56,633.38,328.21L633.38,328.21z"/>
	</g>
</g>
<g>
	<g>
		<path class="st19" d="M799.16,451.57c0.94,3.69,1.9,7.74,3.83,11.07c1.67,2.87,4.56,4.58,7.29,6.32
			c7.53,4.78,15.52,8.67,23.83,11.88c2.55,0.98,3.65-3.11,1.13-4.09c-6.84-2.65-13.44-5.81-19.75-9.57
			c-2.99-1.78-6.96-3.64-8.83-6.68c-1.79-2.9-2.57-6.79-3.4-10.06C802.58,447.8,798.49,448.92,799.16,451.57L799.16,451.57z"/>
	</g>
</g>
<g>
	<g>
		<path class="st19" d="M323.03,347.31c3.65-3.33,6.18-7.41,8.72-11.61c2.82-4.68,6.67-8.65,9.32-13.39
			c1.33-2.38-2.33-4.52-3.66-2.14c-2.39,4.29-5.97,7.89-8.55,12.11c-2.63,4.31-5.06,8.59-8.82,12.03
			C318.02,346.16,321.02,349.15,323.03,347.31L323.03,347.31z"/>
	</g>
</g>
<g id="Fords_1_">
	<path class="st20" d="M86.38,325.61l10.2-10.2l2.05-2.06c5.9-5.9,11.38-6.32,16.44-1.26c3.16,3.16,4.64,7.04,4.43,11.62
		c-0.21,4.59-2.08,8.64-5.61,12.17l-2.05,2.05L97.6,352.17l22.52,53.19c15.49,36.78,12.8,65.6-8.06,86.47
		c-10.91,10.91-23.46,16.43-37.66,16.56c-14.2,0.13-26.65-5.15-37.34-15.85c-8.32-8.32-14.16-18.4-17.51-30.23
		c-3.35-11.83-3.94-24.3-1.78-37.42c1.9-11.06,5.81-22.25,11.74-33.55c5.93-11.3,13.08-21.14,21.46-29.52l10.83-11.46l3.4-3.56
		l-23-53.35l-1.34-3.08c-2.06-4.48-2.69-8.19-1.9-11.14c0.79-2.95,3.4-6.64,7.83-11.06l40.55-40.55c7.32-7.32,13.57-8.4,18.73-3.24
		c3.06,3.06,4.47,6.89,4.23,11.5c-0.24,4.61-2.09,8.65-5.57,12.13l-2.13,2.13l-33.75,33.75L86.38,325.61z M76.42,373.35l-4.27,4.27
		c-15.6,15.6-24.5,31.61-26.71,48.05c-2.48,18.39,1.29,32.59,11.3,42.6c5.37,5.37,11.53,8.23,18.45,8.58
		c6.93,0.34,12.84-1.94,17.74-6.84c11.38-11.38,11.7-29.77,0.95-55.17L76.42,373.35z"/>
	<path class="st20" d="M155.06,252.5c7.64-7.64,16.35-11.5,26.12-11.58c9.77-0.08,18.4,3.62,25.88,11.1
		c5.64,5.64,9.95,12.53,12.92,20.67c2.98,8.14,4.07,15.92,3.28,23.36c-0.58,4.9-1.92,9.22-4.03,12.96
		c-2.11,3.74-5.8,8.25-11.07,13.51c-8.59,8.59-15.41,13.36-20.47,14.31c-11.91,2.21-22.6-1.42-32.09-10.91
		c-10.01-10.01-15.07-22.29-15.17-36.83C140.34,274.55,145.21,262.36,155.06,252.5z M170,271.23c-3.9,3.9-5.53,9.38-4.9,16.44
		c0.63,7.06,3.27,12.91,7.9,17.55c6.11,6.11,12.59,5.74,19.44-1.11c4-4,5.85-8.32,5.53-12.96c-0.47-7.64-3.32-14.07-8.54-19.28
		c-3-3-6.3-4.56-9.88-4.66C175.98,267.1,172.79,268.44,170,271.23z"/>
	<path class="st20" d="M223.67,220.73l3.95,9.33c3.48,8.33,3.27,14.44-0.63,18.34c-2.37,2.37-5.06,3.64-8.06,3.79
		s-5.56-0.82-7.67-2.92c-1.21-1.21-2.69-3.85-4.43-7.9l-13.12-30.98c-3.16-7.48-2.77-13.2,1.19-17.15c3.9-3.9,8.14-4.45,12.73-1.66
		l3.08,1.82c1.58,0.95,2.85,1.27,3.79,0.95c0.95-0.32,2.66-1.71,5.14-4.19l18.49-18.49c6.9-6.9,12.78-7.93,17.63-3.08
		c6.69,6.69,5.66,14.41-3.08,23.16l-0.08,1.66c-0.37,16.39,1.63,26.77,6.01,31.14c4.37,4.37,8.98,4.14,13.83-0.71l9.96-9.96
		c6.69-6.69,12.36-7.72,16.99-3.08c3.27,3.27,4.62,6.97,4.07,11.1c-0.55,4.14-2.94,8.31-7.15,12.53l-15.49,15.49
		c-5.27,5.27-11.39,7.76-18.38,7.47c-6.98-0.29-13.37-3.33-19.17-9.13c-3.69-3.69-6.38-8.17-8.06-13.44
		c-1.69-5.27-2.79-12.7-3.32-22.29L223.67,220.73z"/>
	<path class="st20" d="M350.2,146.04l9.01-9.01c6.69-6.69,12.38-7.69,17.07-3c3.22,3.21,4.53,6.9,3.95,11.06
		c-0.58,4.16-2.95,8.33-7.11,12.49l-10.67,10.67c-4.11,4.11-8.8,5.43-14.07,3.95c0,6.75-1.92,12.04-5.77,15.89l-10.04,10.04
		c-5.85,5.85-12.53,8.52-20.03,8.02c-7.51-0.5-14.58-4.07-21.22-10.71c-10.17-10.17-15.85-22.77-17.03-37.82
		c-1.19-15.04,2.54-26.88,11.18-35.53c6.38-6.37,13.75-9.17,22.13-8.38l-25.61-60.86c-4.37-10.38-3.87-18.26,1.5-23.63
		c2.27-2.26,4.92-3.46,7.94-3.6c3.03-0.13,5.6,0.86,7.71,2.96c1.63,1.63,3.08,3.87,4.35,6.72l1.19,3.08L350.2,146.04z
		 M321.67,175.36l3-3c3.63-3.64,4.58-7.48,2.84-11.54l-8.69-20.55c-1.05-2.53-2.05-4.27-3-5.22c-1.58-1.58-3.6-2.25-6.05-2.02
		c-2.45,0.24-4.68,1.36-6.68,3.36c-4.11,4.11-5.65,10.23-4.62,18.38c1.03,8.14,4.2,14.87,9.52,20.19
		C312.69,179.66,317.25,179.79,321.67,175.36z"/>
	<path class="st20" d="M377.08,75.86l2.13,5.14c2.9,7.54,2.21,13.44-2.06,17.7c-2.16,2.16-4.85,3.35-8.06,3.56
		c-3.21,0.21-5.8-0.66-7.74-2.61c-1.84-1.84-3.53-5.06-5.06-9.64l-10.83-31.85c-2.53-7.69-1.87-13.46,1.98-17.31
		c2.05-2.05,4.49-3.15,7.31-3.28c2.82-0.13,5.15,0.72,7,2.57c0.47,0.47,1.34,1.66,2.61,3.56c0.95,1.37,1.87,2.5,2.77,3.4
		c3.32,3.32,7.96,5.48,13.91,6.48l10.75,1.74c10.96,1.79,19.42,5.67,25.37,11.62c6.64,6.64,9.71,14.66,9.21,24.07
		c-0.5,9.41-4.44,17.8-11.82,25.17l-16.52,16.52c-6.69,6.69-12.35,7.72-16.99,3.08c-3.21-3.21-4.54-6.92-3.99-11.1
		c0.55-4.19,2.91-8.36,7.07-12.53l9.17-9.17c7.32-7.32,8.33-13.65,3-18.97c-1.95-1.95-4.92-3.56-8.93-4.82L377.08,75.86z"/>
</g>
<g id="Fords">
	<path class="st21" d="M74.87,323.78l10.2-10.2l2.05-2.06c5.9-5.9,11.38-6.32,16.44-1.26c3.16,3.16,4.64,7.04,4.43,11.62
		c-0.21,4.59-2.08,8.64-5.61,12.17l-2.05,2.05L86.1,350.34l22.52,53.19c15.49,36.78,12.8,65.6-8.06,86.47
		C89.65,500.9,77.1,506.42,62.9,506.55c-14.2,0.13-26.65-5.15-37.34-15.85c-8.32-8.32-14.16-18.4-17.51-30.23
		c-3.35-11.83-3.94-24.3-1.78-37.42c1.9-11.06,5.81-22.25,11.74-33.55c5.93-11.3,13.08-21.14,21.46-29.52l10.83-11.46l3.4-3.56
		l-23-53.35l-1.34-3.08c-2.06-4.48-2.69-8.19-1.9-11.14c0.79-2.95,3.4-6.64,7.83-11.06l40.55-40.55c7.32-7.32,13.57-8.4,18.73-3.24
		c3.06,3.06,4.47,6.89,4.23,11.5c-0.24,4.61-2.09,8.65-5.57,12.13l-2.13,2.13l-33.75,33.75L74.87,323.78z M64.92,371.52l-4.27,4.27
		c-15.6,15.6-24.5,31.61-26.71,48.05c-2.48,18.39,1.29,32.59,11.3,42.6c5.37,5.37,11.53,8.23,18.45,8.58
		c6.93,0.34,12.84-1.94,17.74-6.84c11.38-11.38,11.7-29.77,0.95-55.17L64.92,371.52z"/>
	<path class="st21" d="M143.56,250.67c7.64-7.64,16.35-11.5,26.12-11.58c9.77-0.08,18.4,3.62,25.88,11.1
		c5.64,5.64,9.95,12.53,12.92,20.67c2.98,8.14,4.07,15.92,3.28,23.36c-0.58,4.9-1.92,9.22-4.03,12.96
		c-2.11,3.74-5.8,8.25-11.07,13.51c-8.59,8.59-15.41,13.36-20.47,14.31c-11.91,2.21-22.6-1.42-32.09-10.91
		c-10.01-10.01-15.07-22.29-15.17-36.83C128.83,272.72,133.7,260.52,143.56,250.67z M158.49,269.4c-3.9,3.9-5.53,9.38-4.9,16.44
		c0.63,7.06,3.27,12.91,7.9,17.55c6.11,6.11,12.59,5.74,19.44-1.11c4-4,5.85-8.32,5.53-12.96c-0.47-7.64-3.32-14.07-8.54-19.28
		c-3-3-6.3-4.56-9.88-4.66C164.47,265.27,161.29,266.61,158.49,269.4z"/>
	<path class="st21" d="M212.16,218.9l3.95,9.33c3.48,8.33,3.27,14.44-0.63,18.34c-2.37,2.37-5.06,3.64-8.06,3.79
		c-3,0.16-5.56-0.82-7.67-2.92c-1.21-1.21-2.69-3.85-4.43-7.9l-13.12-30.98c-3.16-7.48-2.77-13.2,1.19-17.15
		c3.9-3.9,8.14-4.45,12.73-1.66l3.08,1.82c1.58,0.95,2.85,1.27,3.79,0.95c0.95-0.32,2.66-1.71,5.14-4.19l18.49-18.49
		c6.9-6.9,12.78-7.93,17.63-3.08c6.69,6.69,5.66,14.41-3.08,23.16l-0.08,1.66c-0.37,16.39,1.63,26.77,6.01,31.14
		c4.37,4.37,8.98,4.14,13.83-0.71l9.96-9.96c6.69-6.69,12.36-7.72,16.99-3.08c3.27,3.27,4.62,6.97,4.07,11.1
		c-0.55,4.14-2.94,8.31-7.15,12.53l-15.49,15.49c-5.27,5.27-11.39,7.76-18.38,7.47c-6.98-0.29-13.37-3.33-19.17-9.13
		c-3.69-3.69-6.38-8.17-8.06-13.44c-1.69-5.27-2.79-12.7-3.32-22.29L212.16,218.9z"/>
	<path class="st21" d="M338.7,144.21l9.01-9.01c6.69-6.69,12.38-7.69,17.07-3c3.22,3.21,4.53,6.9,3.95,11.06
		c-0.58,4.16-2.95,8.33-7.11,12.49l-10.67,10.67c-4.11,4.11-8.8,5.43-14.07,3.95c0,6.75-1.92,12.04-5.77,15.89l-10.04,10.04
		c-5.85,5.85-12.53,8.52-20.03,8.02c-7.51-0.5-14.58-4.07-21.22-10.71c-10.17-10.17-15.85-22.77-17.03-37.82
		c-1.19-15.04,2.54-26.88,11.18-35.53c6.38-6.37,13.75-9.17,22.13-8.38l-25.61-60.86c-4.37-10.38-3.87-18.26,1.5-23.63
		c2.27-2.26,4.92-3.46,7.94-3.6c3.03-0.13,5.6,0.86,7.71,2.96c1.63,1.63,3.08,3.87,4.35,6.72l1.19,3.08L338.7,144.21z
		 M310.16,173.53l3-3c3.63-3.64,4.58-7.48,2.84-11.54l-8.69-20.55c-1.05-2.53-2.05-4.27-3-5.22c-1.58-1.58-3.6-2.25-6.05-2.02
		c-2.45,0.24-4.68,1.36-6.68,3.36c-4.11,4.11-5.65,10.23-4.62,18.38c1.03,8.14,4.2,14.87,9.52,20.19
		C301.18,177.83,305.74,177.96,310.16,173.53z"/>
	<path class="st21" d="M365.57,74.03l2.13,5.14c2.9,7.54,2.21,13.44-2.06,17.7c-2.16,2.16-4.85,3.35-8.06,3.56
		c-3.21,0.21-5.8-0.66-7.74-2.61c-1.84-1.84-3.53-5.06-5.06-9.64l-10.83-31.85c-2.53-7.69-1.87-13.46,1.98-17.31
		c2.05-2.05,4.49-3.15,7.31-3.28c2.82-0.13,5.15,0.72,7,2.57c0.47,0.47,1.34,1.66,2.61,3.56c0.95,1.37,1.87,2.5,2.77,3.4
		c3.32,3.32,7.96,5.48,13.91,6.48l10.75,1.74c10.96,1.79,19.42,5.67,25.37,11.62c6.64,6.64,9.71,14.66,9.21,24.07
		c-0.5,9.41-4.44,17.8-11.82,25.17l-16.52,16.52c-6.69,6.69-12.35,7.72-16.99,3.08c-3.21-3.21-4.54-6.92-3.99-11.1
		c0.55-4.19,2.91-8.36,7.07-12.53l9.17-9.17c7.32-7.32,8.33-13.65,3-18.97c-1.95-1.95-4.92-3.56-8.93-4.82L365.57,74.03z"/>
</g>
<g id="Pizza_2_">
	<path class="st20" d="M410.81,811.07l-9.31,52.59c-4.68,26.01-8.71,44.11-12.1,54.29c-3.39,10.18-8.46,19.33-15.21,27.43
		c-9.84,11.8-22.55,19.36-38.14,22.67c-16.46,3.5-30.91,1.14-43.35-7.08c-12.45-8.22-20.43-20.64-23.96-37.25
		c-4.72-22.2-0.74-43.33,11.95-63.4c6.83-10.83,16.24-20.38,28.23-28.65c11.98-8.27,24.43-13.77,37.35-16.52
		c6.22-1.32,11.52-0.99,15.89,1.01c4.37,1.99,7.05,5.27,8.02,9.84c1.02,4.8-0.21,9.1-3.68,12.88c-1.99,2.23-6.27,4.38-12.83,6.43
		c-15.29,4.73-27.16,11-35.63,18.8c-7.01,6.51-12.01,14.14-15.01,22.88c-3,8.74-3.58,17.41-1.76,25.99
		c1.86,8.74,5.6,15.21,11.22,19.4c5.62,4.19,12.25,5.48,19.89,3.86c9.6-2.04,17.05-7.86,22.33-17.46
		c5.28-9.6,9.94-25.65,13.96-48.15l19.57-109.45l-12.87,2.74c-10.87,2.31-17.1-0.31-18.71-7.87c-1.14-5.35-0.11-9.91,3.08-13.68
		c3.19-3.76,8.25-6.38,15.18-7.86l45-9.56c15.12-3.21,26.88-2.73,35.3,1.45c8.42,4.18,13.89,12.21,16.42,24.1
		c3.08,14.49,0.01,27.53-9.21,39.11c-6.69,8.42-18.5,14.43-35.42,18.02L410.81,811.07z M416.27,780.41l9.57-2.03
		c12.6-2.68,17.81-9.13,15.63-19.37c-1.24-5.83-5.44-7.98-12.61-6.46l-7.91,1.68L416.27,780.41z"/>
	<path class="st20" d="M506.22,848.19l13.35-2.84c9.92-2.11,15.62,0.34,17.12,7.35c1.02,4.8,0.06,8.92-2.87,12.34
		c-2.94,3.42-7.55,5.8-13.85,7.14l-18.78,3.99c-6.93,1.47-12.68,1.22-17.26-0.77c-4.58-1.99-7.39-5.42-8.42-10.31
		c-0.55-2.6-0.43-6.08,0.37-10.45l9.3-52.09l0.6-3.58c1.73-9.67,6.61-15.36,14.64-17.06c3.31-0.7,6.4-0.21,9.27,1.49
		c2.87,1.69,4.63,4.08,5.29,7.15c0.54,2.52,0.29,6.6-0.73,12.25L506.22,848.19z M500.07,742.6c4.56-0.97,8.78-0.2,12.65,2.31
		c3.87,2.51,6.28,6.05,7.25,10.61c0.97,4.57,0.2,8.79-2.31,12.65c-2.51,3.87-6.05,6.29-10.62,7.26c-4.57,0.97-8.78,0.2-12.65-2.31
		c-3.87-2.51-6.28-6.05-7.26-10.62c-0.97-4.56-0.2-8.78,2.31-12.65C491.97,745.99,495.5,743.57,500.07,742.6z"/>
	<path class="st20" d="M582.99,831.87l29.76-6.33c9.92-2.11,15.63,0.34,17.12,7.35c1.02,4.8,0.06,8.92-2.87,12.34
		c-2.94,3.42-7.55,5.8-13.85,7.14l-55.04,11.7c-4.88,1.04-9.02,0.64-12.41-1.19c-3.39-1.83-5.53-4.83-6.42-9
		c-0.85-4.02,0.81-9.14,5-15.38l30.71-45.41l-13.01,3.26l-2.95,0.63c-8.58,1.82-13.63-0.81-15.13-7.89
		c-0.94-4.41-0.04-8.49,2.7-12.24c2.74-3.75,6.55-6.15,11.44-7.19l2.95-0.63l36.73-7.81c10.94-2.33,17.4,1.16,19.38,10.45
		c1.02,4.8-0.43,10.17-4.35,16.11L582.99,831.87z"/>
	<path class="st20" d="M677.35,811.82l29.76-6.33c9.92-2.11,15.63,0.34,17.12,7.35c1.02,4.8,0.06,8.92-2.87,12.34
		c-2.94,3.42-7.55,5.8-13.85,7.14l-55.04,11.7c-4.88,1.04-9.02,0.64-12.41-1.19c-3.39-1.83-5.53-4.83-6.42-9
		c-0.85-4.02,0.81-9.14,5-15.38l30.71-45.41l-13.01,3.26l-2.95,0.63c-8.58,1.82-13.63-0.81-15.13-7.89
		c-0.94-4.41-0.04-8.49,2.71-12.24c2.74-3.75,6.55-6.15,11.43-7.18l2.95-0.63l36.73-7.81c10.94-2.33,17.4,1.16,19.38,10.45
		c1.02,4.8-0.43,10.17-4.35,16.11L677.35,811.82z"/>
	<path class="st20" d="M808.33,783.98l12.99-2.76c9.92-2.11,15.62,0.3,17.09,7.23c1.02,4.8,0.05,8.94-2.92,12.41
		c-2.97,3.47-7.56,5.87-13.78,7.19l-15.12,3.21c-6.77,1.44-11.94-0.22-15.5-4.97c-4.78,6.53-9.93,10.38-15.44,11.55l-13.47,2.86
		c-8.66,1.84-16.31,0.24-22.93-4.82c-6.63-5.05-11.01-12.58-13.13-22.58c-3.21-15.12-0.87-29.75,7.03-43.9
		c7.9-14.15,18.42-22.62,31.57-25.41c10.08-2.14,18.18-0.2,24.32,5.82c2.68-6.74,7.21-10.79,13.59-12.15
		c3.46-0.74,6.59-0.25,9.38,1.46c2.79,1.71,4.53,4.18,5.22,7.41c0.47,2.21,0.4,4.98-0.21,8.31l-0.62,3.46L808.33,783.98z
		 M765.58,793.68l2.95-0.63c6.46-1.37,10.19-4.92,11.19-10.65l3.92-22.19c0.53-2.91,0.61-5.27,0.22-7.08
		c-0.45-2.13-1.89-3.75-4.31-4.89c-2.42-1.13-5.09-1.39-8-0.77c-5.75,1.22-10.63,5.76-14.64,13.6c-4.01,7.85-5.25,15.36-3.73,22.52
		C754.92,791.71,759.05,795.07,765.58,793.68z"/>
</g>
<g id="Pizza_1_">
	<path class="st22" d="M399.38,804.84l-9.31,52.59c-4.68,26.01-8.71,44.11-12.1,54.29c-3.39,10.18-8.46,19.33-15.21,27.43
		c-9.84,11.8-22.55,19.36-38.14,22.67c-16.46,3.5-30.91,1.14-43.35-7.08c-12.45-8.22-20.43-20.64-23.96-37.25
		c-4.72-22.2-0.74-43.33,11.95-63.4c6.83-10.83,16.24-20.38,28.23-28.65c11.98-8.27,24.43-13.77,37.35-16.52
		c6.22-1.32,11.52-0.99,15.89,1c4.37,1.99,7.05,5.27,8.02,9.84c1.02,4.8-0.21,9.1-3.68,12.88c-1.99,2.24-6.27,4.38-12.83,6.43
		c-15.29,4.73-27.16,11-35.63,18.81c-7.01,6.51-12.01,14.14-15.01,22.88c-3,8.74-3.58,17.41-1.76,25.99
		c1.86,8.74,5.6,15.21,11.22,19.4c5.62,4.19,12.25,5.48,19.89,3.86c9.6-2.04,17.05-7.86,22.33-17.46
		c5.28-9.6,9.94-25.65,13.96-48.15l19.57-109.45l-12.87,2.74c-10.87,2.31-17.1-0.31-18.71-7.87c-1.14-5.35-0.11-9.91,3.08-13.68
		c3.19-3.76,8.25-6.38,15.18-7.86l45-9.56c15.12-3.21,26.88-2.73,35.3,1.45c8.42,4.18,13.89,12.21,16.42,24.1
		c3.08,14.49,0.01,27.53-9.21,39.11c-6.69,8.42-18.5,14.42-35.42,18.02L399.38,804.84z M404.83,774.17l9.57-2.03
		c12.6-2.68,17.81-9.13,15.63-19.37c-1.24-5.83-5.44-7.98-12.61-6.46l-7.91,1.68L404.83,774.17z"/>
	<path class="st22" d="M494.78,841.95l13.35-2.84c9.92-2.11,15.62,0.34,17.12,7.35c1.02,4.8,0.06,8.92-2.87,12.34
		c-2.94,3.42-7.55,5.8-13.85,7.14l-18.78,3.99c-6.93,1.47-12.68,1.21-17.26-0.78c-4.58-1.99-7.39-5.42-8.42-10.31
		c-0.55-2.6-0.43-6.08,0.37-10.45l9.3-52.09l0.6-3.58c1.73-9.66,6.61-15.35,14.64-17.06c3.31-0.7,6.4-0.21,9.27,1.49
		c2.87,1.69,4.63,4.08,5.29,7.15c0.54,2.52,0.29,6.6-0.73,12.25L494.78,841.95z M488.63,736.36c4.56-0.97,8.78-0.2,12.65,2.31
		c3.87,2.51,6.28,6.05,7.25,10.62c0.97,4.57,0.2,8.78-2.31,12.65c-2.51,3.87-6.05,6.29-10.62,7.26c-4.57,0.97-8.78,0.2-12.65-2.31
		c-3.87-2.51-6.28-6.05-7.26-10.62c-0.97-4.56-0.2-8.78,2.31-12.65C480.53,739.75,484.07,737.33,488.63,736.36z"/>
	<path class="st22" d="M571.55,825.64l29.76-6.33c9.92-2.11,15.63,0.34,17.12,7.35c1.02,4.8,0.06,8.92-2.87,12.34
		c-2.94,3.42-7.55,5.8-13.85,7.14l-55.04,11.7c-4.88,1.04-9.02,0.64-12.41-1.19c-3.39-1.83-5.53-4.83-6.42-9
		c-0.85-4.02,0.81-9.14,5-15.38l30.71-45.41l-13.01,3.26l-2.95,0.63c-8.58,1.82-13.63-0.81-15.13-7.89
		c-0.94-4.41-0.04-8.49,2.7-12.24c2.74-3.75,6.55-6.15,11.44-7.18l2.95-0.63l36.73-7.81c10.94-2.33,17.4,1.16,19.38,10.45
		c1.02,4.8-0.43,10.17-4.35,16.11L571.55,825.64z"/>
	<path class="st22" d="M665.92,805.58l29.76-6.33c9.92-2.11,15.63,0.34,17.12,7.35c1.02,4.8,0.06,8.92-2.87,12.34
		c-2.94,3.42-7.55,5.8-13.85,7.14l-55.04,11.7c-4.88,1.04-9.02,0.64-12.41-1.19c-3.39-1.83-5.53-4.83-6.42-9
		c-0.85-4.02,0.81-9.14,5-15.38l30.71-45.41l-13.01,3.26l-2.95,0.63c-8.58,1.82-13.63-0.81-15.13-7.89
		c-0.94-4.41-0.04-8.49,2.71-12.24c2.74-3.75,6.55-6.15,11.43-7.18l2.95-0.63l36.73-7.81c10.94-2.33,17.4,1.16,19.38,10.45
		c1.02,4.8-0.43,10.17-4.35,16.11L665.92,805.58z"/>
	<path class="st22" d="M796.89,777.74l12.99-2.76c9.92-2.11,15.62,0.3,17.09,7.23c1.02,4.8,0.05,8.94-2.92,12.41
		c-2.97,3.47-7.56,5.87-13.78,7.19l-15.12,3.21c-6.77,1.44-11.94-0.22-15.5-4.97c-4.78,6.53-9.93,10.38-15.44,11.55l-13.47,2.86
		c-8.66,1.84-16.3,0.24-22.93-4.82c-6.63-5.05-11.01-12.58-13.13-22.58c-3.21-15.12-0.87-29.75,7.03-43.89
		c7.9-14.15,18.42-22.62,31.57-25.41c10.08-2.14,18.18-0.2,24.32,5.82c2.68-6.74,7.21-10.79,13.59-12.15
		c3.46-0.74,6.59-0.25,9.38,1.46c2.79,1.71,4.53,4.18,5.22,7.41c0.47,2.21,0.4,4.98-0.21,8.31l-0.62,3.46L796.89,777.74z
		 M754.15,787.44l2.95-0.63c6.46-1.37,10.19-4.92,11.19-10.65l3.92-22.19c0.53-2.91,0.61-5.27,0.22-7.08
		c-0.45-2.13-1.89-3.75-4.31-4.89c-2.42-1.13-5.09-1.39-8-0.77c-5.75,1.22-10.63,5.76-14.64,13.6c-4.01,7.85-5.25,15.36-3.73,22.52
		C743.48,785.47,747.61,788.83,754.15,787.44z"/>
</g>
</svg>
